<svg xmlns="http://www.w3.org/2000/svg" xmlns:xlink="http://www.w3.org/1999/xlink" width="111" height="24" viewBox="0 0 111 24">
  <defs>
    <clipPath id="clip-path">
      <rect id="Ret창ngulo_9355" data-name="Ret창ngulo 9355" width="111" height="24" fill="none"/>
    </clipPath>
  </defs>
  <g id="Grupo_40246" data-name="Grupo 40246" transform="translate(-112 -31.999)">
    <rect id="Ret창ngulo_9354" data-name="Ret창ngulo 9354" width="23.968" height="24" transform="translate(112 31.999)" fill="white"/>
    <path id="Caminho_3663" data-name="Caminho 3663" d="M29.61,22.894,34.249,34.02H32.714l-3.942-9.206L24.983,34.02H23.448l4.485-11.126Z" transform="translate(95.135 15.542)" fill="313978" fill-rule="evenodd"/>
    <g id="Grupo_40245" data-name="Grupo 40245" transform="translate(112 31.999)">
      <g id="Grupo_40244" data-name="Grupo 40244" clip-path="url(#clip-path)">
        <path id="Caminho_3664" data-name="Caminho 3664" d="M247.8,38.588a4.078,4.078,0,1,1,4.072-4.078,4.075,4.075,0,0,1-4.072,4.078m0-9.777a5.7,5.7,0,1,0,5.694,5.7,5.7,5.7,0,0,0-5.694-5.7" transform="translate(-174.126 -20.711)" fill="#fff"/>
        <path id="Caminho_3665" data-name="Caminho 3665" d="M307.453,34.02V31.061h3.29a1.482,1.482,0,0,1,.061,2.964h-.061Zm6.387-1.484a3.1,3.1,0,0,0-3.1-3.1h-4.91V40.48h1.621V35.64h2.564l2.58,4.838h1.829l-2.671-5.013a3.1,3.1,0,0,0,2.085-2.929Z" transform="translate(-219.962 -21.158)" fill="#fff"/>
        <path id="Caminho_3666" data-name="Caminho 3666" d="M187.415,35.176h3.7v.885a3.627,3.627,0,0,1-.911,1.425,4.156,4.156,0,0,1-2.9,1.081,4.078,4.078,0,1,1,2.884-6.949l1.1-1.195a5.7,5.7,0,1,0-3.985,9.766,5.458,5.458,0,0,0,5.433-3.866V33.554h-5.32Z" transform="translate(-130.612 -20.693)" fill="#fff"/>
        <path id="Caminho_3667" data-name="Caminho 3667" d="M359.845,36.2l1.935-4.637,1.936,4.637Zm2.8-6.76h-1.739l-4.615,11.045h1.755l1.112-2.664h5.226l1.112,2.664h1.755L362.64,29.442Z" transform="translate(-256.255 -21.164)" fill="#fff"/>
        <path id="Caminho_3668" data-name="Caminho 3668" d="M147.611,15.994h-3.032l-.647,1.547h3.678Z" transform="translate(-103.52 -11.497)" fill="#fff"/>
        <path id="Caminho_3669" data-name="Caminho 3669" d="M127.753,36.2l1.935-4.637,1.936,4.637Zm1.072-6.76-4.615,11.045h1.755l1.111-2.664H132.3l1.112,2.664h1.754l-4.61-11.045Z" transform="translate(-89.334 -21.164)" fill="#fff"/>
      </g>
    </g>
  </g>
</svg>
