<svg width="25" height="24" viewBox="0 0 25 24" fill="none" xmlns="http://www.w3.org/2000/svg">
<path d="M7.54828 17.7C7.35828 17.7 7.16828 17.63 7.01828 17.48C6.72828 17.19 6.72828 16.71 7.01828 16.42L16.9183 6.51999C17.2083 6.22999 17.6883 6.22999 17.9783 6.51999C18.2683 6.80999 18.2683 7.28999 17.9783 7.57999L8.07828 17.48C7.92828 17.63 7.73828 17.7 7.54828 17.7Z" fill="white"/>
<path d="M17.4492 14.8C17.0392 14.8 16.6992 14.46 16.6992 14.05V7.05005C16.6992 6.64005 17.0392 6.30005 17.4492 6.30005C17.8592 6.30005 18.1992 6.64005 18.1992 7.05005V14.05C18.1992 14.46 17.8592 14.8 17.4492 14.8Z" fill="white"/>
<path d="M17.4492 7.80005H10.4492C10.0392 7.80005 9.69922 7.46005 9.69922 7.05005C9.69922 6.64005 10.0392 6.30005 10.4492 6.30005H17.4492C17.8592 6.30005 18.1992 6.64005 18.1992 7.05005C18.1992 7.46005 17.8592 7.80005 17.4492 7.80005Z" fill="white"/>
</svg>
