<svg width="16" height="16" viewBox="0 0 16 16" fill="none" xmlns="http://www.w3.org/2000/svg">
<path fill-rule="evenodd" clip-rule="evenodd" d="M2.83301 8C2.83301 7.72386 3.05687 7.5 3.33301 7.5L12.6663 7.5C12.9425 7.5 13.1663 7.72386 13.1663 8C13.1663 8.27614 12.9425 8.5 12.6663 8.5L3.33301 8.5C3.05687 8.5 2.83301 8.27614 2.83301 8Z" fill="#0E0E0E"/>
<path fill-rule="evenodd" clip-rule="evenodd" d="M8.97945 11.6875C8.78419 11.4923 8.78419 11.1757 8.97945 10.9804L11.9599 7.99998L8.97945 5.01954C8.78419 4.82428 8.78419 4.50769 8.97945 4.31243C9.17472 4.11717 9.4913 4.11717 9.68656 4.31243L13.0206 7.64643C13.2158 7.84169 13.2158 8.15828 13.0206 8.35354L9.68656 11.6875C9.4913 11.8828 9.17472 11.8828 8.97945 11.6875Z" fill="#0E0E0E"/>
</svg>
