<svg width="24" height="24" viewBox="0 0 24 24" fill="none" xmlns="http://www.w3.org/2000/svg">
<path d="M12 19.7501C11.59 19.7501 11.25 19.4101 11.25 19.0001L11.25 5.00006C11.25 4.59006 11.59 4.25006 12 4.25006C12.41 4.25006 12.75 4.59006 12.75 5.00006L12.75 19.0001C12.75 19.4101 12.41 19.7501 12 19.7501Z" fill="#A4AABB"/>
<path d="M12.0014 19.7501C11.8014 19.7501 11.6114 19.6701 11.4714 19.5301L6.47141 14.5301C6.18141 14.2401 6.18141 13.7601 6.47141 13.4701C6.76141 13.1801 7.24141 13.1801 7.53141 13.4701L12.0014 17.9401L16.4714 13.4701C16.7614 13.1801 17.2414 13.1801 17.5314 13.4701C17.8214 13.7601 17.8214 14.2401 17.5314 14.5301L12.5314 19.5301C12.3914 19.6701 12.2014 19.7501 12.0014 19.7501Z" fill="#A4AABB"/>
</svg>
