<svg width="61" height="60" viewBox="0 0 61 60" fill="none" xmlns="http://www.w3.org/2000/svg">
<g clip-path="url(#clip0_1852_17072)">
<path d="M34.2389 31.5616C35.3472 30.1095 36.0139 28.3019 36.0139 26.3401C36.0139 21.5809 32.1437 17.7107 27.3845 17.7107H11.6133V46.8646H28.7743C33.5336 46.8646 37.4038 42.9944 37.4038 38.2352C37.4038 35.5474 36.168 33.147 34.2389 31.5616ZM18.7729 23.0715H25.971C27.7727 23.0715 29.2366 24.5354 29.2366 26.3371C29.2366 28.1389 27.7697 29.6028 25.971 29.6028H18.7729V23.0685V23.0715ZM26.617 41.5008H18.7729V34.9665H26.617C28.4187 34.9665 29.8827 36.4334 29.8827 38.2322C29.8827 40.031 28.4187 41.4979 26.617 41.4979" fill="#3239F4"/>
<path d="M60.6999 12.5096C60.6999 13.5675 60.2939 14.4358 59.4849 15.1174C58.6759 15.796 57.6357 16.1338 56.3674 16.1338C55.1761 16.1338 54.1685 15.8197 53.3477 15.1914C52.5298 14.5662 52.0438 13.7097 51.8867 12.6251H55.099C55.342 13.2504 55.7717 13.5675 56.4 13.5675C56.7852 13.5675 57.1023 13.4667 57.3512 13.2623C57.6002 13.0578 57.7246 12.7911 57.7246 12.4592C57.7246 12.1273 57.6031 11.8813 57.3601 11.6887C57.1171 11.4961 56.7823 11.3983 56.3496 11.3983H55.2591V9.14908H56.2666C56.6756 9.14908 57.0016 9.05722 57.2416 8.87645C57.4846 8.69568 57.6061 8.45565 57.6061 8.15634C57.6061 7.82444 57.4935 7.5607 57.2683 7.36215C57.043 7.16361 56.7378 7.06581 56.3496 7.06581C55.9614 7.06581 55.6473 7.19917 55.3984 7.46291C55.2502 7.62293 55.1405 7.8363 55.0665 8.09115H51.9993C52.1771 6.97691 52.6542 6.10864 53.4307 5.48633C54.2071 4.86401 55.1761 4.55286 56.3348 4.55286C57.5587 4.55286 58.5662 4.88476 59.3545 5.54559C60.1428 6.20643 60.5369 7.051 60.5369 8.07633C60.5369 9.01276 60.1516 9.72991 59.3782 10.2278C60.2613 10.7226 60.7028 11.4842 60.7028 12.5096" fill="#3239F4"/>
<path d="M11.6816 12.1245V8.55359H0.699219V56.0331H11.6816V52.4503H4.26123V12.1245H11.6816Z" fill="#3239F4"/>
<path d="M37.1953 52.4503V56.0331H48.1777V8.55359H37.1953V12.1245H44.6186V52.4503H37.1953Z" fill="#3239F4"/>
</g>
<defs>
<clipPath id="clip0_1852_17072">
<rect width="60" height="51.483" fill="white" transform="translate(0.699219 4.55078)"/>
</clipPath>
</defs>
</svg>
