<svg width="55" height="47" viewBox="0 0 55 47" fill="none" xmlns="http://www.w3.org/2000/svg">
<g clip-path="url(#clip0_272_410)">
<path d="M30.7056 24.8214C31.6967 23.523 32.2929 21.9066 32.2929 20.1524C32.2929 15.8968 28.8322 12.4361 24.5765 12.4361H10.4741V38.5052H25.8193C30.075 38.5052 33.5356 35.0445 33.5356 30.7889C33.5356 28.3855 32.4307 26.2391 30.7056 24.8214ZM16.8761 17.2296H23.3126C24.9237 17.2296 26.2327 18.5387 26.2327 20.1498C26.2327 21.7609 24.921 23.0699 23.3126 23.0699H16.8761V17.227V17.2296ZM23.8902 33.709H16.8761V27.8661H23.8902C25.5013 27.8661 26.8104 29.1778 26.8104 30.7862C26.8104 32.3947 25.5013 33.7063 23.8902 33.7063" fill="white"/>
<path d="M54.366 7.78528C54.366 8.73127 54.0029 9.50767 53.2795 10.1171C52.5561 10.7239 51.626 11.026 50.4919 11.026C49.4267 11.026 48.5257 10.7451 47.7917 10.1834C47.0604 9.62427 46.6258 8.85846 46.4854 7.88862H49.3578C49.5751 8.44774 49.9593 8.73127 50.5211 8.73127C50.8655 8.73127 51.1491 8.64118 51.3716 8.45834C51.5942 8.2755 51.7055 8.03701 51.7055 7.74023C51.7055 7.44345 51.5969 7.22352 51.3796 7.05128C51.1623 6.87904 50.8629 6.79159 50.476 6.79159H49.5009V4.78037H50.4018C50.7675 4.78037 51.059 4.69822 51.2736 4.53658C51.4909 4.37494 51.5995 4.16031 51.5995 3.89267C51.5995 3.59589 51.4988 3.36005 51.2975 3.18252C51.0961 3.00498 50.8231 2.91753 50.476 2.91753C50.1289 2.91753 49.848 3.03677 49.6254 3.27261C49.4929 3.4157 49.3949 3.60649 49.3286 3.83438H46.586C46.745 2.83804 47.1717 2.06164 47.8659 1.50517C48.5602 0.948704 49.4267 0.670471 50.4628 0.670471C51.5571 0.670471 52.4581 0.967253 53.1629 1.55817C53.8678 2.14908 54.2202 2.90428 54.2202 3.82113C54.2202 4.65847 53.8757 5.29973 53.1841 5.74491C53.9738 6.18743 54.3686 6.86844 54.3686 7.78528" fill="white"/>
<path d="M10.5351 7.44092V4.24786H0.714844V46.7035H10.5351V43.4999H3.89995V7.44092H10.5351Z" fill="white"/>
<path d="M33.3501 43.4999V46.7035H43.1704V4.24786H33.3501V7.44092H39.9879V43.4999H33.3501Z" fill="white"/>
</g>
<defs>
<clipPath id="clip0_272_410">
<rect width="53.6512" height="46.0356" fill="white" transform="translate(0.714844 0.66803)"/>
</clipPath>
</defs>
</svg>
