<svg width="112" height="22" viewBox="0 0 112 22" fill="none" xmlns="http://www.w3.org/2000/svg">
<path d="M4.80871 12.8132H2.25349L1.81445 14.0601H0.769531L2.95596 7.94866H4.11503L6.30146 14.0601H5.24776L4.80871 12.8132ZM4.52773 11.9966L3.53549 9.16042L2.53448 11.9966H4.52773Z" fill="white"/>
<path d="M13.2758 9.77508C13.2758 10.0853 13.2026 10.378 13.0562 10.6532C12.9099 10.9283 12.6757 11.1537 12.3538 11.3293C12.0318 11.499 11.6191 11.5839 11.1157 11.5839H10.0093V14.0601H9.00829V7.95745H11.1157C11.584 7.95745 11.9791 8.0394 12.3011 8.20331C12.6289 8.36136 12.8719 8.57796 13.0299 8.85309C13.1938 9.12822 13.2758 9.43555 13.2758 9.77508ZM11.1157 10.7673C11.4962 10.7673 11.7801 10.6824 11.9674 10.5127C12.1548 10.3371 12.2484 10.0912 12.2484 9.77508C12.2484 9.10773 11.8708 8.77406 11.1157 8.77406H10.0093V10.7673H11.1157Z" fill="white"/>
<path d="M20.2541 9.77508C20.2541 10.0853 20.181 10.378 20.0346 10.6532C19.8883 10.9283 19.6541 11.1537 19.3321 11.3293C19.0102 11.499 18.5975 11.5839 18.094 11.5839H16.9877V14.0601H15.9866V7.95745H18.094C18.5624 7.95745 18.9575 8.0394 19.2795 8.20331C19.6073 8.36136 19.8502 8.57796 20.0083 8.85309C20.1722 9.12822 20.2541 9.43555 20.2541 9.77508ZM18.094 10.7673C18.4746 10.7673 18.7585 10.6824 18.9458 10.5127C19.1331 10.3371 19.2268 10.0912 19.2268 9.77508C19.2268 9.10773 18.8492 8.77406 18.094 8.77406H16.9877V10.7673H18.094Z" fill="white"/>
<path d="M31.2696 9.77508C31.2696 10.0853 31.1964 10.378 31.0501 10.6532C30.9038 10.9283 30.6696 11.1537 30.3476 11.3293C30.0257 11.499 29.613 11.5839 29.1095 11.5839H28.0031V14.0601H27.0021V7.95745H29.1095C29.5778 7.95745 29.973 8.0394 30.2949 8.20331C30.6228 8.36136 30.8657 8.57796 31.0238 8.85309C31.1877 9.12822 31.2696 9.43555 31.2696 9.77508ZM29.1095 10.7673C29.49 10.7673 29.774 10.6824 29.9613 10.5127C30.1486 10.3371 30.2423 10.0912 30.2423 9.77508C30.2423 9.10773 29.8647 8.77406 29.1095 8.77406H28.0031V10.7673H29.1095Z" fill="white"/>
<path d="M37.6597 12.8132H35.1044L34.6654 14.0601H33.6205L35.8069 7.94866H36.966L39.1524 14.0601H38.0987L37.6597 12.8132ZM37.3787 11.9966L36.3864 9.16042L35.3854 11.9966H37.3787Z" fill="white"/>
<path d="M45.0291 14.0601L43.6242 11.6191H42.8603V14.0601H41.8592V7.95745H43.9666C44.4349 7.95745 44.8301 8.0394 45.1521 8.20331C45.4799 8.36722 45.7228 8.58674 45.8809 8.86187C46.0448 9.137 46.1267 9.44433 46.1267 9.78386C46.1267 10.1819 46.0096 10.5449 45.7755 10.8727C45.5472 11.1946 45.193 11.4142 44.713 11.5312L46.2233 14.0601H45.0291ZM42.8603 10.82H43.9666C44.3413 10.82 44.6223 10.7263 44.8096 10.539C45.0028 10.3517 45.0994 10.1 45.0994 9.78386C45.0994 9.46775 45.0057 9.22189 44.8184 9.04627C44.6311 8.8648 44.3471 8.77406 43.9666 8.77406H42.8603V10.82Z" fill="white"/>
<path d="M48.8298 10.9956C48.8298 10.3985 48.9673 9.86289 49.2425 9.38872C49.5235 8.91456 49.901 8.54576 50.3752 8.28234C50.8552 8.01306 51.3791 7.87842 51.947 7.87842C52.5968 7.87842 53.1734 8.0394 53.6768 8.36136C54.1861 8.67747 54.5549 9.12822 54.7832 9.71361H53.5802C53.4221 9.39165 53.2026 9.15164 52.9216 8.99358C52.6407 8.83553 52.3158 8.7565 51.947 8.7565C51.5431 8.7565 51.183 8.84724 50.8669 9.02871C50.5508 9.21018 50.302 9.47068 50.1206 9.8102C49.9449 10.1497 49.8571 10.5449 49.8571 10.9956C49.8571 11.4464 49.9449 11.8415 50.1206 12.181C50.302 12.5206 50.5508 12.784 50.8669 12.9713C51.183 13.1528 51.5431 13.2435 51.947 13.2435C52.3158 13.2435 52.6407 13.1645 52.9216 13.0064C53.2026 12.8484 53.4221 12.6084 53.5802 12.2864H54.7832C54.5549 12.8718 54.1861 13.3225 53.6768 13.6386C53.1734 13.9548 52.5968 14.1128 51.947 14.1128C51.3733 14.1128 50.8494 13.9811 50.3752 13.7177C49.901 13.4484 49.5235 13.0767 49.2425 12.6025C48.9673 12.1283 48.8298 11.5927 48.8298 10.9956Z" fill="white"/>
<path d="M58.7121 8.76528V10.5566H60.8195V11.3732H58.7121V13.2435H61.0829V14.0601H57.711V7.94866H61.0829V8.76528H58.7121Z" fill="white"/>
<path d="M65.073 7.95745V14.0601H64.072V7.95745H65.073Z" fill="white"/>
<path d="M71.3133 14.0601L69.9084 11.6191H69.1444V14.0601H68.1434V7.95745H70.2508C70.7191 7.95745 71.1143 8.0394 71.4362 8.20331C71.7641 8.36722 72.007 8.58674 72.165 8.86187C72.329 9.137 72.4109 9.44433 72.4109 9.78386C72.4109 10.1819 72.2938 10.5449 72.0597 10.8727C71.8314 11.1946 71.4772 11.4142 70.9972 11.5312L72.5075 14.0601H71.3133ZM69.1444 10.82H70.2508C70.6255 10.82 70.9065 10.7263 71.0938 10.539C71.287 10.3517 71.3836 10.1 71.3836 9.78386C71.3836 9.46775 71.2899 9.22189 71.1026 9.04627C70.9152 8.8648 70.6313 8.77406 70.2508 8.77406H69.1444V10.82Z" fill="white"/>
<path d="M78.2312 14.1216C77.6633 14.1216 77.1394 13.9899 76.6594 13.7265C76.1852 13.4572 75.8076 13.0855 75.5267 12.6113C75.2515 12.1313 75.114 11.5927 75.114 10.9956C75.114 10.3985 75.2515 9.86289 75.5267 9.38872C75.8076 8.91456 76.1852 8.54576 76.6594 8.28234C77.1394 8.01306 77.6633 7.87842 78.2312 7.87842C78.8048 7.87842 79.3288 8.01306 79.8029 8.28234C80.283 8.54576 80.6605 8.91456 80.9357 9.38872C81.2108 9.86289 81.3484 10.3985 81.3484 10.9956C81.3484 11.5927 81.2108 12.1313 80.9357 12.6113C80.6605 13.0855 80.283 13.4572 79.8029 13.7265C79.3288 13.9899 78.8048 14.1216 78.2312 14.1216ZM78.2312 13.2523C78.6351 13.2523 78.9951 13.1616 79.3112 12.9801C79.6273 12.7928 79.8732 12.5293 80.0488 12.1898C80.2303 11.8444 80.321 11.4464 80.321 10.9956C80.321 10.5449 80.2303 10.1497 80.0488 9.8102C79.8732 9.47068 79.6273 9.21018 79.3112 9.02871C78.9951 8.84724 78.6351 8.7565 78.2312 8.7565C77.8272 8.7565 77.4672 8.84724 77.1511 9.02871C76.835 9.21018 76.5862 9.47068 76.4047 9.8102C76.2291 10.1497 76.1413 10.5449 76.1413 10.9956C76.1413 11.4464 76.2291 11.8444 76.4047 12.1898C76.5862 12.5293 76.835 12.7928 77.1511 12.9801C77.4672 13.1616 77.8272 13.2523 78.2312 13.2523Z" fill="white"/>
<g clip-path="url(#clip0_1297_4709)">
<path d="M100.505 11.5038C100.945 10.9279 101.209 10.2109 101.209 9.43275C101.209 7.54507 99.6744 6.01001 97.7867 6.01001H91.5312V17.5735H98.3379C100.226 17.5735 101.761 16.0385 101.761 14.1508C101.761 13.0847 101.271 12.1326 100.505 11.5038ZM94.371 8.13629H97.226C97.9407 8.13629 98.5213 8.71694 98.5213 9.43158C98.5213 10.1462 97.9395 10.7269 97.226 10.7269H94.371V8.13512V8.13629ZM97.4823 15.4461H94.371V12.8543H97.4823C98.1969 12.8543 98.7775 13.4361 98.7775 14.1496C98.7775 14.8631 98.1969 15.4449 97.4823 15.4449" fill="white"/>
<path d="M111.001 3.94701C111.001 4.36662 110.84 4.71101 110.52 4.98135C110.199 5.25052 109.786 5.38451 109.283 5.38451C108.811 5.38451 108.411 5.25992 108.085 5.01074C107.761 4.76273 107.568 4.42304 107.506 3.99285H108.78C108.876 4.24085 109.047 4.36662 109.296 4.36662C109.449 4.36662 109.575 4.32666 109.673 4.24555C109.772 4.16445 109.821 4.05867 109.821 3.92702C109.821 3.79538 109.773 3.69782 109.677 3.62142C109.58 3.54502 109.448 3.50623 109.276 3.50623H108.843V2.61411H109.243C109.405 2.61411 109.535 2.57767 109.63 2.50597C109.726 2.43428 109.774 2.33907 109.774 2.22035C109.774 2.08871 109.73 1.9841 109.64 1.90535C109.551 1.8266 109.43 1.78781 109.276 1.78781C109.122 1.78781 108.997 1.8407 108.899 1.94531C108.84 2.00878 108.796 2.09341 108.767 2.1945H107.551C107.621 1.75255 107.81 1.40816 108.118 1.16133C108.426 0.914493 108.811 0.791077 109.27 0.791077C109.756 0.791077 110.155 0.922721 110.468 1.18483C110.781 1.44695 110.937 1.78193 110.937 2.18862C110.937 2.56004 110.784 2.84449 110.477 3.04195C110.828 3.23824 111.003 3.54032 111.003 3.94701" fill="white"/>
<path d="M91.5591 3.79409V2.37775H87.2031V21.2099H91.5591V19.7888H88.6159V3.79409H91.5591Z" fill="white"/>
<path d="M101.68 19.7888V21.2099H106.036V2.37775H101.68V3.79409H104.624V19.7888H101.68Z" fill="white"/>
</g>
<defs>
<clipPath id="clip0_1297_4709">
<rect width="23.7982" height="20.4201" fill="white" transform="translate(87.2031 0.789978)"/>
</clipPath>
</defs>
</svg>
