<svg width="24" height="24" viewBox="0 0 24 24" fill="none" xmlns="http://www.w3.org/2000/svg">
<path d="M12 24C18.6195 24 24 18.6195 24 12C24 5.38047 18.6195 0 12 0C5.38046 0 -1.90735e-06 5.38047 -1.90735e-06 12C-1.90735e-06 18.6195 5.38046 24 12 24ZM12 1.67442C17.693 1.67442 22.3256 6.30698 22.3256 12C22.3256 17.693 17.693 22.3256 12 22.3256C6.30698 22.3256 1.67442 17.693 1.67442 12C1.67442 6.30698 6.30698 1.67442 12 1.67442Z" fill="#555D72"/>
<path d="M13.4078 16.7779C13.6199 16.7779 13.8319 16.6998 13.9994 16.5324C14.3231 16.2086 14.3231 15.6728 13.9994 15.3491L10.6506 12.0003L13.9994 8.65139C14.3231 8.32767 14.3231 7.79185 13.9994 7.46813C13.6757 7.14441 13.1399 7.14441 12.8161 7.46813L8.87567 11.4086C8.55195 11.7324 8.55195 12.2682 8.87567 12.5919L12.8161 16.5324C12.9836 16.6998 13.1957 16.7779 13.4078 16.7779Z" fill="#555D72"/>
</svg>
