<svg width="515" height="230" viewBox="0 0 515 230" fill="none" xmlns="http://www.w3.org/2000/svg">
<path d="M37 3H13C7.47715 3 3 7.47715 3 13V37" stroke="#3239F4" stroke-width="5"/>
<path d="M473 227L497 227C502.523 227 507 222.523 507 217L507 193" stroke="#3239F4" stroke-width="5"/>
<path d="M137.182 160.5C119.36 160.5 104.867 146.084 104.867 128.373V103.721C104.867 99.597 108.229 96.2466 112.385 96.2466H137.182C155.005 96.2466 169.497 110.663 169.497 128.373C169.497 146.084 154.997 160.5 137.182 160.5ZM119.903 111.194V128.373C119.903 137.845 127.655 145.552 137.182 145.552C146.709 145.552 154.462 137.845 154.462 128.373C154.462 118.902 146.709 111.194 137.182 111.194H119.903Z" fill="white"/>
<path d="M112.385 111.195C108.237 111.195 104.867 107.852 104.867 103.721V76.9739C104.867 72.8504 108.229 69.5 112.385 69.5C116.541 69.5 119.903 72.8423 119.903 76.9739V103.721C119.903 107.844 116.541 111.195 112.385 111.195Z" fill="white"/>
<path d="M84.2602 112.837C89.3249 112.837 93.4306 108.756 93.4306 103.72C93.4306 98.6853 89.3249 94.6035 84.2602 94.6035C79.1956 94.6035 75.0898 98.6853 75.0898 103.72C75.0898 108.756 79.1956 112.837 84.2602 112.837Z" fill="white"/>
<path d="M219.008 107.872C220.515 107.083 222.241 106.688 224.177 106.688C226.429 106.688 228.47 107.244 230.293 108.347C232.116 109.451 233.566 111.021 234.627 113.059C235.688 115.096 236.223 117.456 236.223 120.138C236.223 122.82 235.688 125.196 234.627 127.266C233.566 129.336 232.116 130.938 230.293 132.074C228.47 133.209 226.429 133.781 224.177 133.781C222.208 133.781 220.491 133.395 219.008 132.621C217.534 131.848 216.351 130.85 215.46 129.617V133.354H208.793V98.3203H215.46V110.965C216.319 109.7 217.502 108.677 219.008 107.888V107.872ZM228.438 116.039C227.79 114.887 226.931 114.009 225.87 113.413C224.809 112.817 223.658 112.511 222.419 112.511C221.179 112.511 220.078 112.817 219.017 113.437C217.955 114.049 217.097 114.943 216.44 116.111C215.792 117.279 215.468 118.656 215.468 120.227C215.468 121.797 215.792 123.182 216.44 124.342C217.088 125.51 217.947 126.404 219.017 127.016C220.078 127.628 221.212 127.942 222.419 127.942C223.626 127.942 224.809 127.628 225.87 126.992C226.931 126.364 227.79 125.462 228.438 124.294C229.086 123.126 229.418 121.741 229.418 120.13C229.418 118.519 229.094 117.19 228.438 116.039Z" fill="white"/>
<path d="M245.94 132.082C243.906 130.962 242.31 129.376 241.152 127.322C239.993 125.268 239.41 122.9 239.41 120.219C239.41 117.537 240.01 115.169 241.2 113.115C242.391 111.061 244.02 109.475 246.085 108.355C248.151 107.236 250.452 106.672 252.988 106.672C255.523 106.672 257.832 107.236 259.89 108.355C261.955 109.475 263.584 111.061 264.775 113.115C265.965 115.169 266.565 117.537 266.565 120.219C266.565 122.9 265.957 125.268 264.734 127.322C263.511 129.376 261.858 130.962 259.784 132.082C257.702 133.201 255.377 133.765 252.809 133.765C250.241 133.765 247.981 133.201 245.956 132.082H245.94ZM256.204 127.113C257.265 126.533 258.116 125.655 258.755 124.487C259.387 123.319 259.711 121.902 259.711 120.227C259.711 117.73 259.055 115.813 257.735 114.476C256.414 113.131 254.802 112.463 252.898 112.463C250.995 112.463 249.399 113.131 248.111 114.476C246.823 115.821 246.183 117.738 246.183 120.227C246.183 122.715 246.806 124.64 248.062 125.977C249.318 127.322 250.897 127.99 252.801 127.99C254.008 127.99 255.142 127.701 256.204 127.113Z" fill="white"/>
<path d="M278.128 98.3044V133.338H271.461V98.3044H278.128Z" fill="white"/>
<path d="M309.033 122.216H289.745C289.907 124.109 290.571 125.591 291.746 126.67C292.92 127.741 294.362 128.281 296.08 128.281C298.559 128.281 300.317 127.226 301.37 125.107H308.564C307.802 127.636 306.344 129.706 304.181 131.333C302.018 132.96 299.369 133.773 296.226 133.773C293.682 133.773 291.406 133.21 289.388 132.09C287.371 130.971 285.8 129.384 284.674 127.33C283.548 125.277 282.98 122.909 282.98 120.227C282.98 117.545 283.539 115.129 284.649 113.075C285.759 111.021 287.315 109.443 289.316 108.339C291.316 107.236 293.617 106.68 296.218 106.68C299.223 106.68 301.856 107.453 304.108 108.992C305.04 109.628 305.866 110.409 306.546 111.295C308.329 113.607 309.22 116.393 309.22 119.647C309.22 120.597 309.155 121.443 309.025 122.2L309.033 122.216ZM302.318 117.762C302.285 116.055 301.67 114.694 300.463 113.671C299.255 112.648 297.781 112.133 296.031 112.133C294.379 112.133 292.993 112.632 291.867 113.623C290.741 114.613 290.053 115.999 289.793 117.762H302.318Z" fill="white"/>
<path d="M321.851 112.56V125.244C321.851 126.13 322.062 126.767 322.491 127.161C322.921 127.556 323.642 127.749 324.654 127.749H327.749V133.339H323.561C317.938 133.339 315.135 130.624 315.135 125.196V112.56H311.992V107.115H315.135V100.632H321.851V107.115H327.757V112.56H321.851Z" fill="white"/>
<path d="M332.444 113.075C333.505 111.021 334.955 109.443 336.778 108.339C338.601 107.236 340.642 106.68 342.894 106.68C344.863 106.68 346.588 107.075 348.063 107.864C349.537 108.653 350.72 109.644 351.611 110.844V107.107H358.327V133.338H351.611V129.505C350.752 130.737 349.57 131.752 348.063 132.557C346.556 133.363 344.814 133.765 342.846 133.765C340.626 133.765 338.601 133.193 336.77 132.058C334.947 130.922 333.497 129.32 332.436 127.25C331.375 125.18 330.84 122.804 330.84 120.122C330.84 117.44 331.375 115.121 332.436 113.067L332.444 113.075ZM350.663 116.079C350.023 114.927 349.173 114.041 348.095 113.429C347.018 112.817 345.859 112.503 344.62 112.503C343.38 112.503 342.238 112.801 341.193 113.405C340.148 114.001 339.297 114.879 338.641 116.031C337.993 117.182 337.661 118.552 337.661 120.122C337.661 121.693 337.985 123.078 338.641 124.262C339.289 125.446 340.148 126.356 341.209 126.984C342.27 127.612 343.405 127.934 344.612 127.934C345.819 127.934 347.01 127.628 348.087 127.008C349.164 126.396 350.023 125.51 350.655 124.358C351.287 123.207 351.603 121.83 351.603 120.219C351.603 118.608 351.287 117.231 350.655 116.079H350.663Z" fill="white"/>
<path d="M364.831 132.557C364.053 131.816 363.664 130.89 363.664 129.787C363.664 128.683 364.053 127.757 364.831 127.016C365.608 126.275 366.597 125.905 367.804 125.905C369.011 125.905 369.942 126.275 370.704 127.016C371.465 127.757 371.846 128.683 371.846 129.787C371.846 130.89 371.465 131.816 370.704 132.557C369.942 133.298 368.97 133.669 367.804 133.669C366.637 133.669 365.608 133.298 364.831 132.557Z" fill="white"/>
<path d="M377.112 113.075C378.173 111.021 379.623 109.443 381.446 108.339C383.269 107.236 385.31 106.68 387.562 106.68C389.531 106.68 391.256 107.075 392.731 107.864C394.205 108.653 395.388 109.644 396.279 110.844V107.107H402.995V133.338H396.279V129.505C395.42 130.737 394.237 131.752 392.731 132.557C391.224 133.363 389.482 133.765 387.514 133.765C385.294 133.765 383.269 133.193 381.438 132.058C379.615 130.922 378.165 129.32 377.104 127.25C376.042 125.18 375.508 122.804 375.508 120.122C375.508 117.44 376.042 115.121 377.104 113.067L377.112 113.075ZM395.331 116.079C394.691 114.927 393.841 114.041 392.763 113.429C391.686 112.817 390.527 112.503 389.288 112.503C388.048 112.503 386.906 112.801 385.861 113.405C384.816 114.001 383.965 114.879 383.309 116.031C382.661 117.182 382.329 118.552 382.329 120.122C382.329 121.693 382.653 123.078 383.309 124.262C383.957 125.446 384.816 126.356 385.877 126.984C386.938 127.612 388.073 127.934 389.28 127.934C390.487 127.934 391.678 127.628 392.755 127.008C393.832 126.396 394.691 125.51 395.323 124.358C395.955 123.207 396.271 121.83 396.271 120.219C396.271 118.608 395.955 117.231 395.323 116.079H395.331Z" fill="white"/>
<path d="M409.967 102.871C409.19 102.13 408.801 101.204 408.801 100.1C408.801 98.9971 409.19 98.0709 409.967 97.3299C410.745 96.589 411.725 96.2185 412.9 96.2185C414.075 96.2185 415.047 96.589 415.832 97.3299C416.61 98.0709 416.999 98.9971 416.999 100.1C416.999 101.204 416.61 102.13 415.832 102.871C415.055 103.612 414.075 103.982 412.9 103.982C411.725 103.982 410.745 103.612 409.967 102.871ZM416.181 107.107V133.339H409.514V107.107H416.181Z" fill="white"/>
</svg>
