<svg width="52" height="50" viewBox="0 0 52 50" fill="none" xmlns="http://www.w3.org/2000/svg">
<path d="M34.4089 49.498C24.7147 49.498 16.8315 41.6564 16.8315 32.0232V18.6137C16.8315 16.3708 18.6602 14.5484 20.9207 14.5484H34.4089C44.103 14.5484 51.9862 22.3899 51.9862 32.0232C51.9862 41.6564 44.0986 49.498 34.4089 49.498ZM25.0099 22.6791V32.0232C25.0099 37.1749 29.2269 41.3673 34.4089 41.3673C39.5908 41.3673 43.8078 37.1749 43.8078 32.0232C43.8078 26.8714 39.5908 22.6791 34.4089 22.6791H25.0099Z" fill="white"/>
<path d="M20.9207 22.6791C18.6646 22.6791 16.8315 20.8611 16.8315 18.6138V4.06533C16.8315 1.82239 18.6602 0 20.9207 0C23.1812 0 25.0099 1.81801 25.0099 4.06533V18.6138C25.0099 20.8567 23.1812 22.6791 20.9207 22.6791Z" fill="white"/>
<path d="M5.6214 23.5726C8.37625 23.5726 10.6095 21.3524 10.6095 18.6136C10.6095 15.8748 8.37625 13.6546 5.6214 13.6546C2.86655 13.6546 0.633301 15.8748 0.633301 18.6136C0.633301 21.3524 2.86655 23.5726 5.6214 23.5726Z" fill="white"/>
</svg>
