<svg width="112" height="45" viewBox="0 0 112 45" fill="none" xmlns="http://www.w3.org/2000/svg">
<g id="btg-pactual" clip-path="url(#clip0_32_145)">
<path id="Vector" fill-rule="evenodd" clip-rule="evenodd" d="M104.059 18.8321H101.356L101.133 19.8251H104.059C106.74 19.8251 107.633 20.5502 107.633 22.7035V23.741C106.974 23.0605 105.802 22.7146 104.137 22.7146C101.49 22.7146 100.206 23.8637 100.206 26.2178V26.3851C100.206 28.5941 101.468 29.7097 103.97 29.7097H104.64C107.287 29.7097 108.627 28.5941 108.627 26.3851V22.6923C108.638 19.959 107.309 18.8321 104.059 18.8321ZM107.633 26.5413C107.633 28.1255 106.784 28.7391 104.618 28.7391H104.204C102.105 28.7391 101.211 28.0363 101.211 26.3963V26.2289C101.211 24.4439 102.06 23.6852 104.059 23.6852H104.227C106.617 23.6852 107.633 24.4216 107.633 26.1397V26.5413ZM34.7011 20.7734L35.2372 18.1293H30.6692V14.5257L27.4638 15.0166V25.7938C27.4638 29.5201 28.8934 30.6246 32.8024 30.6246H34.5113L35.0474 28.0028H33.037C31.2612 28.0028 30.6804 27.5565 30.6804 25.5707V20.7622C30.658 20.7734 34.7011 20.7734 34.7011 20.7734ZM12.6428 13.2762V24.8567C12.6428 29.1519 14.5862 30.9369 18.808 30.9369C23.1973 30.9369 25.1407 29.1965 25.1407 24.879V23.7745C25.1407 19.7135 23.3425 17.7388 19.4111 17.7388C18.1602 17.7388 16.7976 17.9954 15.8818 18.7317V12.763L12.6428 13.2762ZM18.9308 20.3271C21.1534 20.3271 21.9352 21.2196 21.9352 23.886V24.879C21.9352 27.4784 21.1534 28.371 18.8862 28.371C16.6189 28.371 15.8371 27.4784 15.8371 24.8567V23.5179C15.8371 21.1304 16.6189 20.3271 18.9308 20.3271ZM42.4634 17.7388C38.2416 17.7388 36.2983 19.5573 36.2983 23.7075V24.3435C36.2983 28.2817 37.9848 30.1895 41.9608 30.1895C43.2341 30.1895 44.5073 29.9552 45.4008 29.2188V29.6874C45.4008 31.9076 44.4515 32.6327 42.2401 32.6327H40.911C40.1515 32.6439 39.8053 32.7889 39.3473 33.5476C35.5388 39.706 28.9269 43.4657 21.723 43.4657C10.2192 43.4657 0.87092 33.9157 0.87092 22.1791C0.87092 10.4425 10.2192 0.89249 21.723 0.89249C29.798 0.89249 37.1471 5.66747 40.5871 13.0977H41.5476C38.0294 5.13196 30.2671 -3.05176e-05 21.723 -3.05176e-05C9.73893 -3.05176e-05 -0.000244141 9.95157 -0.000244141 22.1791C-0.000244141 34.4066 9.73893 44.3582 21.723 44.3582C28.7705 44.3582 35.2596 40.9109 39.3138 35.1876H42.4188C46.5065 35.1876 48.6063 33.6034 48.6063 29.5759V23.4956C48.6063 19.4792 46.5959 17.7388 42.4634 17.7388ZM45.4232 24.7339C45.4232 26.9541 44.6637 27.6346 42.4634 27.6346C39.9951 27.6346 39.5037 26.7644 39.5037 24.1873V23.7856C39.5037 21.2419 39.9393 20.316 42.4634 20.316C44.9317 20.316 45.4232 21.2085 45.4232 23.8079V24.7339ZM110.693 29.7209H111.688V14.7489H110.693V29.7209ZM88.2442 19.8251L88.4676 18.8321H84.0113V16.0096L82.9838 16.1992V25.8831C82.9838 28.6387 84.0001 29.6651 86.7141 29.6651H88.1884L88.3783 28.6722H86.7253C84.6702 28.6722 84.0113 28.0028 84.0113 25.9277V19.8139L88.2442 19.8251ZM97.4697 25.4256C97.4697 27.9805 96.6878 28.7949 94.2531 28.7949C91.8964 28.7949 91.0923 27.947 91.0923 25.4256V18.8321H90.0648V25.4256C90.0648 28.5606 91.2375 29.7878 94.2419 29.7878C97.2351 29.7878 98.4525 28.5271 98.4525 25.4256V18.8321H97.4585V25.4256H97.4697ZM74.9311 24.7116V23.7968C74.9311 20.8626 75.9139 19.8251 78.6726 19.8251H81.0069L81.2303 18.8321H78.6726C75.3778 18.8321 73.9035 20.3606 73.9035 23.7856V24.7005C73.9035 28.1255 75.3778 29.654 78.6726 29.654H81.0404L81.2638 28.661H78.6726C75.9809 28.6833 74.9311 27.5677 74.9311 24.7116ZM67.5485 18.8321H64.8457L64.6223 19.8251H67.5485C70.2067 19.8251 71.1002 20.5502 71.1002 22.7035V23.741C70.4412 23.0605 69.2685 22.7146 67.6043 22.7146C64.9574 22.7146 63.6729 23.8637 63.6729 26.2178V26.3851C63.6729 28.5941 64.9462 29.7097 67.4592 29.7097H68.1293C70.7539 29.7097 72.083 28.5941 72.083 26.3851V22.6923C72.0942 19.959 70.7875 18.8321 67.5485 18.8321ZM71.1002 26.5413C71.1002 28.1367 70.2849 28.7391 68.1069 28.7391H67.6825C65.5716 28.7391 64.667 28.0363 64.667 26.3963V26.2289C64.667 24.4439 65.5158 23.6852 67.515 23.6852H67.6825C70.0726 23.6852 71.089 24.4216 71.089 26.1397C71.1002 26.1397 71.1002 26.5413 71.1002 26.5413ZM57.5189 18.6648C54.3582 18.6648 52.8839 20.2602 52.8839 23.6852V32.9897H53.8779V28.2148C54.6039 29.1742 55.9442 29.732 57.5636 29.732C60.7132 29.732 62.1093 28.1813 62.1093 24.7116V23.6518C62.1205 20.2044 60.702 18.6648 57.5189 18.6648ZM61.1041 24.7116C61.1041 27.6458 60.1548 28.7391 57.586 28.7391C55.1512 28.7391 53.9226 27.5342 53.9226 25.1467V23.6852C53.9226 20.8292 54.9725 19.6577 57.5301 19.6577C60.1101 19.6577 61.1041 20.7734 61.1041 23.6518V24.7116Z" fill="white"/>
</g>
<defs>
<clipPath id="clip0_32_145">
<rect width="111.688" height="44.3583" fill="white"/>
</clipPath>
</defs>
</svg>
