<svg width="25" height="24" viewBox="0 0 25 24" fill="none" xmlns="http://www.w3.org/2000/svg">
<path fill-rule="evenodd" clip-rule="evenodd" d="M16.5 1.25C16.9142 1.25 17.25 1.58579 17.25 2V6C17.25 6.41421 16.9142 6.75 16.5 6.75C16.0858 6.75 15.75 6.41421 15.75 6V2C15.75 1.58579 16.0858 1.25 16.5 1.25Z" fill="#555D72"/>
<path fill-rule="evenodd" clip-rule="evenodd" d="M8.5 1.25C8.91421 1.25 9.25 1.58579 9.25 2V6C9.25 6.41421 8.91421 6.75 8.5 6.75C8.08579 6.75 7.75 6.41421 7.75 6V2C7.75 1.58579 8.08579 1.25 8.5 1.25Z" fill="#555D72"/>
<path fill-rule="evenodd" clip-rule="evenodd" d="M2.75 9C2.75 8.58579 3.08579 8.25 3.5 8.25H21.5C21.9142 8.25 22.25 8.58579 22.25 9C22.25 9.41421 21.9142 9.75 21.5 9.75H3.5C3.08579 9.75 2.75 9.41421 2.75 9Z" fill="#555D72"/>
<path fill-rule="evenodd" clip-rule="evenodd" d="M2.75 6C2.75 4.48079 3.98079 3.25 5.5 3.25H19.5C21.0192 3.25 22.25 4.48079 22.25 6V19C22.25 20.5192 21.0192 21.75 19.5 21.75H5.5C3.98079 21.75 2.75 20.5192 2.75 19V6ZM5.5 4.75C4.80921 4.75 4.25 5.30921 4.25 6V19C4.25 19.6908 4.80921 20.25 5.5 20.25H19.5C20.1908 20.25 20.75 19.6908 20.75 19V6C20.75 5.30921 20.1908 4.75 19.5 4.75H5.5Z" fill="#555D72"/>
<path fill-rule="evenodd" clip-rule="evenodd" d="M6.75 13C6.75 12.5858 7.08579 12.25 7.5 12.25H17.5C17.9142 12.25 18.25 12.5858 18.25 13C18.25 13.4142 17.9142 13.75 17.5 13.75H7.5C7.08579 13.75 6.75 13.4142 6.75 13Z" fill="#555D72"/>
<path fill-rule="evenodd" clip-rule="evenodd" d="M6.75 17C6.75 16.5858 7.08579 16.25 7.5 16.25H17.5C17.9142 16.25 18.25 16.5858 18.25 17C18.25 17.4142 17.9142 17.75 17.5 17.75H7.5C7.08579 17.75 6.75 17.4142 6.75 17Z" fill="#555D72"/>
</svg>
