<svg width="16" height="16" viewBox="0 0 16 16" fill="none" xmlns="http://www.w3.org/2000/svg">
<g clip-path="url(#clip0_1106_5569)">
<path fill-rule="evenodd" clip-rule="evenodd" d="M10.2403 6.07462C10.4355 6.26988 10.4355 6.58647 10.2403 6.78173L6.46904 10.553C6.27377 10.7482 5.95719 10.7482 5.76193 10.553C5.56667 10.3577 5.56667 10.0411 5.76193 9.84586L9.53317 6.07462C9.72843 5.87936 10.045 5.87936 10.2403 6.07462Z" fill="#555D72"/>
<path fill-rule="evenodd" clip-rule="evenodd" d="M5.75973 6.07462C5.95499 5.87936 6.27157 5.87936 6.46683 6.07462L10.2381 9.84586C10.4333 10.0411 10.4333 10.3577 10.2381 10.553C10.0428 10.7482 9.72623 10.7482 9.53096 10.553L5.75973 6.78173C5.56447 6.58647 5.56447 6.26988 5.75973 6.07462Z" fill="#555D72"/>
<path fill-rule="evenodd" clip-rule="evenodd" d="M11.8891 4.42476C9.741 2.27667 6.259 2.27667 4.11091 4.42476C1.96282 6.57285 1.96282 10.0548 4.11091 12.2029C6.259 14.351 9.741 14.351 11.8891 12.2029C14.0372 10.0548 14.0372 6.57285 11.8891 4.42476ZM3.40381 3.71765C5.94242 1.17904 10.0576 1.17904 12.5962 3.71765C15.1348 6.25627 15.1348 10.3714 12.5962 12.91C10.0576 15.4487 5.94242 15.4487 3.40381 12.91C0.865192 10.3714 0.865191 6.25627 3.40381 3.71765Z" fill="#555D72"/>
</g>
<defs>
<clipPath id="clip0_1106_5569">
<rect width="16" height="16" fill="white"/>
</clipPath>
</defs>
</svg>
