<svg width="13" height="12" viewBox="0 0 13 12" fill="none" xmlns="http://www.w3.org/2000/svg">
<g clip-path="url(#clip0_1297_8585)">
<path fill-rule="evenodd" clip-rule="evenodd" d="M8.17923 4.55618C8.32567 4.70263 8.32567 4.94006 8.17923 5.08651L5.3508 7.91494C5.20435 8.06138 4.96692 8.06138 4.82047 7.91494C4.67402 7.76849 4.67402 7.53105 4.82047 7.38461L7.6489 4.55618C7.79534 4.40973 8.03278 4.40973 8.17923 4.55618Z" fill="white"/>
<path fill-rule="evenodd" clip-rule="evenodd" d="M4.82077 4.55618C4.96722 4.40973 5.20466 4.40973 5.3511 4.55618L8.17953 7.38461C8.32598 7.53105 8.32598 7.76849 8.17953 7.91494C8.03308 8.06138 7.79565 8.06138 7.6492 7.91494L4.82077 5.08651C4.67433 4.94006 4.67433 4.70263 4.82077 4.55618Z" fill="white"/>
<path fill-rule="evenodd" clip-rule="evenodd" d="M9.41682 3.31878C7.80575 1.70772 5.19425 1.70772 3.58318 3.31878C1.97212 4.92985 1.97212 7.54135 3.58318 9.15242C5.19425 10.7635 7.80575 10.7635 9.41682 9.15242C11.0279 7.54135 11.0279 4.92985 9.41682 3.31878ZM3.05285 2.78845C4.95682 0.884494 8.04318 0.884494 9.94715 2.78845C11.8511 4.69242 11.8511 7.77878 9.94715 9.68275C8.04318 11.5867 4.95682 11.5867 3.05285 9.68275C1.14889 7.77878 1.14889 4.69242 3.05285 2.78845Z" fill="white"/>
</g>
<defs>
<clipPath id="clip0_1297_8585">
<rect width="12" height="12" fill="white" transform="translate(0.5)"/>
</clipPath>
</defs>
</svg>
