<svg width="24" height="24" viewBox="0 0 24 24" fill="none" xmlns="http://www.w3.org/2000/svg">
<g clip-path="url(#clip0_974_4932)">
<path fill-rule="evenodd" clip-rule="evenodd" d="M15.3585 8.61187C15.6513 8.90477 15.6513 9.37964 15.3585 9.67253L9.7016 15.3294C9.40871 15.6223 8.93383 15.6223 8.64094 15.3294C8.34805 15.0365 8.34805 14.5616 8.64094 14.2687L14.2978 8.61187C14.5907 8.31898 15.0656 8.31898 15.3585 8.61187Z" fill="#555D72"/>
<path fill-rule="evenodd" clip-rule="evenodd" d="M8.64154 8.61187C8.93444 8.31898 9.40931 8.31898 9.70221 8.61187L15.3591 14.2687C15.652 14.5616 15.652 15.0365 15.3591 15.3294C15.0662 15.6223 14.5913 15.6223 14.2984 15.3294L8.64154 9.67253C8.34865 9.37964 8.34865 8.90477 8.64154 8.61187Z" fill="#555D72"/>
<path fill-rule="evenodd" clip-rule="evenodd" d="M17.8336 6.13708C14.6115 2.91495 9.3885 2.91495 6.16637 6.13708C2.94423 9.35921 2.94423 14.5822 6.16637 17.8043C9.3885 21.0265 14.6115 21.0265 17.8336 17.8043C21.0558 14.5822 21.0558 9.35921 17.8336 6.13708ZM5.10571 5.07642C8.91363 1.2685 15.0864 1.2685 18.8943 5.07642C22.7022 8.88434 22.7022 15.0571 18.8943 18.865C15.0864 22.6729 8.91363 22.6729 5.10571 18.865C1.29779 15.0571 1.29779 8.88434 5.10571 5.07642Z" fill="#555D72"/>
</g>
<defs>
<clipPath id="clip0_974_4932">
<rect width="24" height="24" fill="white"/>
</clipPath>
</defs>
</svg>
