<svg width="33" height="32" viewBox="0 0 33 32" fill="none" xmlns="http://www.w3.org/2000/svg">
<path d="M5.56 18.148L6.494 19.988C5.854 20.618 5.5 21.304 5.5 22C5.5 24.572 10.354 27 16.5 27C22.646 27 27.5 24.572 27.5 22C27.5 21.304 27.144 20.62 26.506 19.99L27.458 18.164C28.748 19.244 29.5 20.552 29.5 22C29.5 26.054 23.608 29 16.5 29C9.392 29 3.5 26.054 3.5 22C3.5 20.544 4.26 19.232 5.56 18.148Z" fill="white"/>
<path d="M5.56 12.148L6.494 13.988C5.854 14.62 5.5 15.306 5.5 16C5.5 18.572 10.354 21 16.5 21C22.646 21 27.5 18.572 27.5 16C27.5 15.304 27.144 14.62 26.506 13.99L27.458 12.164C28.748 13.244 29.5 14.552 29.5 16C29.5 20.054 23.608 23 16.5 23C9.392 23 3.5 20.054 3.5 16C3.5 14.544 4.26 13.232 5.56 12.148Z" fill="white"/>
<path d="M16.5 17C9.392 17 3.5 14.054 3.5 10C3.5 5.946 9.392 3 16.5 3C23.608 3 29.5 5.946 29.5 10C29.5 14.054 23.608 17 16.5 17ZM16.5 15C22.646 15 27.5 12.572 27.5 10C27.5 7.428 22.646 5 16.5 5C10.354 5 5.5 7.428 5.5 10C5.5 12.572 10.354 15 16.5 15Z" fill="white"/>
</svg>
