<svg width="24" height="24" viewBox="0 0 24 24" fill="none" xmlns="http://www.w3.org/2000/svg">
<g id="Circle Check">
<path id="Oval (Stroke)" fill-rule="evenodd" clip-rule="evenodd" d="M12 3.75C7.44365 3.75 3.75 7.44365 3.75 12C3.75 16.5563 7.44365 20.25 12 20.25C16.5563 20.25 20.25 16.5563 20.25 12C20.25 7.44365 16.5563 3.75 12 3.75ZM2.25 12C2.25 6.61522 6.61522 2.25 12 2.25C17.3848 2.25 21.75 6.61522 21.75 12C21.75 17.3848 17.3848 21.75 12 21.75C6.61522 21.75 2.25 17.3848 2.25 12Z" fill="white"/>
<path id="Path (Stroke)" fill-rule="evenodd" clip-rule="evenodd" d="M16.1057 9.05332C16.3985 9.34622 16.3985 9.82109 16.1057 10.114L11.3382 14.8814C11.3083 14.9296 11.2725 14.9752 11.2307 15.017C10.9378 15.3099 10.4629 15.3099 10.17 15.017L8.003 12.85C7.7101 12.5571 7.7101 12.0822 8.003 11.7893C8.29589 11.4964 8.77076 11.4964 9.06366 11.7893L10.6863 13.412L15.045 9.05332C15.3379 8.76043 15.8128 8.76043 16.1057 9.05332Z" fill="white"/>
</g>
</svg>
