<svg width="65" height="65" viewBox="0 0 65 65" fill="none" xmlns="http://www.w3.org/2000/svg">
    <path fill-rule="evenodd" clip-rule="evenodd" d="M32.5 5C17.3122 5 5 17.3122 5 32.5C5 47.6878 17.3122 60 32.5 60C47.6878 60 60 47.6878 60 32.5C60 17.3122 47.6878 5 32.5 5ZM0 32.5C0 14.5507 14.5507 0 32.5 0C50.4493 0 65 14.5507 65 32.5C65 50.4493 50.4493 65 32.5 65C14.5507 65 0 50.4493 0 32.5Z" fill="#3239F4"/>
    <path fill-rule="evenodd" clip-rule="evenodd" d="M45.8881 22.7421C46.8644 23.7184 46.8644 25.3013 45.8881 26.2777L29.9966 42.1691C29.897 42.3297 29.7775 42.4816 29.6381 42.621C28.6617 43.5973 27.0788 43.5973 26.1025 42.621L18.8792 35.3977C17.9029 34.4213 17.9029 32.8384 18.8792 31.8621C19.8555 30.8858 21.4384 30.8858 22.4147 31.8621L27.8236 37.271L42.3525 22.7421C43.3288 21.7658 44.9118 21.7658 45.8881 22.7421Z" fill="#3239F4"/>
</svg>
