<svg width="16" height="16" viewBox="0 0 16 16" fill="none" xmlns="http://www.w3.org/2000/svg">
<path fill-rule="evenodd" clip-rule="evenodd" d="M7.5 4.66675C7.5 4.39061 7.72386 4.16675 8 4.16675H10.6667C10.9428 4.16675 11.1667 4.39061 11.1667 4.66675C11.1667 4.94289 10.9428 5.16675 10.6667 5.16675H8C7.72386 5.16675 7.5 4.94289 7.5 4.66675Z" fill="#555D72"/>
<path fill-rule="evenodd" clip-rule="evenodd" d="M7.5 7.33325C7.5 7.05711 7.72386 6.83325 8 6.83325H10.6667C10.9428 6.83325 11.1667 7.05711 11.1667 7.33325C11.1667 7.60939 10.9428 7.83325 10.6667 7.83325H8C7.72386 7.83325 7.5 7.60939 7.5 7.33325Z" fill="#555D72"/>
<path fill-rule="evenodd" clip-rule="evenodd" d="M7.5 10C7.5 9.72386 7.72386 9.5 8 9.5H10.6667C10.9428 9.5 11.1667 9.72386 11.1667 10C11.1667 10.2761 10.9428 10.5 10.6667 10.5H8C7.72386 10.5 7.5 10.2761 7.5 10Z" fill="#555D72"/>
<path fill-rule="evenodd" clip-rule="evenodd" d="M3.33268 2.5C3.24082 2.5 3.16602 2.57481 3.16602 2.66667V13.1913L4.21965 12.6642C4.36041 12.5938 4.52611 12.5937 4.66689 12.6641L6.22135 13.441L7.77581 12.6641C7.91654 12.5937 8.08216 12.5937 8.22289 12.6641L9.77722 13.441L11.3309 12.6635C11.4718 12.5931 11.6376 12.593 11.7784 12.6635L12.8327 13.1909V2.66667C12.8327 2.57481 12.7579 2.5 12.666 2.5H3.33268ZM2.16602 2.66667C2.16602 2.02252 2.68854 1.5 3.33268 1.5H12.666C13.3102 1.5 13.8327 2.02252 13.8327 2.66667V13.4607C13.8327 14.0818 13.1799 14.4818 12.6269 14.2061L12.6263 14.2058L11.5547 13.6698L10.0011 14.4471C9.86032 14.5176 9.69461 14.5176 9.55381 14.4472L7.99935 13.6703L6.44489 14.4472C6.30416 14.5176 6.13854 14.5176 5.99781 14.4472L4.44345 13.6704L3.37171 14.2065L3.37054 14.2071C2.81782 14.4818 2.16602 14.0809 2.16602 13.4607V2.66667Z" fill="#555D72"/>
<path fill-rule="evenodd" clip-rule="evenodd" d="M5.48136 4.18216C5.4346 4.1677 5.38492 4.15991 5.33341 4.15991C5.28188 4.15991 5.23217 4.16771 5.18539 4.18218C5.11299 4.20434 5.04046 4.24425 4.97744 4.30728C4.87047 4.41425 4.83008 4.54862 4.83008 4.66325C4.83008 4.77787 4.87047 4.91224 4.97744 5.01922C5.08441 5.12619 5.21879 5.16658 5.33341 5.16658C5.44804 5.16658 5.58241 5.12619 5.68938 5.01922C5.79635 4.91224 5.83674 4.77787 5.83674 4.66325C5.83674 4.54862 5.79635 4.41425 5.68938 4.30728C5.62634 4.24423 5.55378 4.20432 5.48136 4.18216Z" fill="#555D72"/>
<path fill-rule="evenodd" clip-rule="evenodd" d="M5.48136 6.8555C5.4346 6.84104 5.38492 6.83325 5.33341 6.83325C5.28188 6.83325 5.23217 6.84105 5.18539 6.85552C5.11299 6.87768 5.04046 6.91759 4.97744 6.98062C4.87047 7.08759 4.83008 7.22196 4.83008 7.33659C4.83008 7.45121 4.87047 7.58558 4.97744 7.69256C5.08441 7.79953 5.21879 7.83992 5.33341 7.83992C5.44804 7.83992 5.58241 7.79953 5.68938 7.69256C5.79635 7.58558 5.83674 7.45121 5.83674 7.33659C5.83674 7.22196 5.79635 7.08759 5.68938 6.98062C5.62634 6.91757 5.55378 6.87766 5.48136 6.8555Z" fill="#555D72"/>
<path fill-rule="evenodd" clip-rule="evenodd" d="M5.48136 9.51566C5.4346 9.5012 5.38492 9.49341 5.33341 9.49341C5.28188 9.49341 5.23217 9.5012 5.18539 9.51568C5.11299 9.53784 5.04046 9.57775 4.97744 9.64077C4.87047 9.74774 4.83008 9.88212 4.83008 9.99674C4.83008 10.1114 4.87047 10.2457 4.97744 10.3527C5.08441 10.4597 5.21879 10.5001 5.33341 10.5001C5.44804 10.5001 5.58241 10.4597 5.68938 10.3527C5.79635 10.2457 5.83674 10.1114 5.83674 9.99674C5.83674 9.88212 5.79635 9.74774 5.68938 9.64077C5.62634 9.57773 5.55378 9.53781 5.48136 9.51566Z" fill="#555D72"/>
</svg>
