<svg width="24" height="24" viewBox="0 0 24 24" fill="none" xmlns="http://www.w3.org/2000/svg">
<path fill-rule="evenodd" clip-rule="evenodd" d="M11.25 7C11.25 6.58579 11.5858 6.25 12 6.25H16C16.4142 6.25 16.75 6.58579 16.75 7C16.75 7.41421 16.4142 7.75 16 7.75H12C11.5858 7.75 11.25 7.41421 11.25 7Z" fill="white"/>
<path fill-rule="evenodd" clip-rule="evenodd" d="M11.25 11C11.25 10.5858 11.5858 10.25 12 10.25H16C16.4142 10.25 16.75 10.5858 16.75 11C16.75 11.4142 16.4142 11.75 16 11.75H12C11.5858 11.75 11.25 11.4142 11.25 11Z" fill="white"/>
<path fill-rule="evenodd" clip-rule="evenodd" d="M11.25 15C11.25 14.5858 11.5858 14.25 12 14.25H16C16.4142 14.25 16.75 14.5858 16.75 15C16.75 15.4142 16.4142 15.75 16 15.75H12C11.5858 15.75 11.25 15.4142 11.25 15Z" fill="white"/>
<path fill-rule="evenodd" clip-rule="evenodd" d="M5 3.75C4.86221 3.75 4.75 3.86221 4.75 4V19.7869L6.33045 18.9962C6.54159 18.8906 6.79014 18.8906 7.00131 18.9961L9.333 20.1615L11.6647 18.9961C11.8758 18.8906 12.1242 18.8906 12.3353 18.9961L14.6668 20.1614L16.9974 18.9953C17.2086 18.8896 17.4573 18.8896 17.6685 18.9952L19.25 19.7864V4C19.25 3.86221 19.1378 3.75 19 3.75H5ZM3.25 4C3.25 3.03379 4.03379 2.25 5 2.25H19C19.9662 2.25 20.75 3.03379 20.75 4V20.191C20.75 21.1227 19.7708 21.7227 18.9414 21.3092L18.9405 21.3088L17.333 20.5046L15.0026 21.6707C14.7915 21.7764 14.5429 21.7764 14.3317 21.6709L12 20.5055L9.66831 21.6709C9.45722 21.7764 9.20878 21.7764 8.99769 21.6709L6.66615 20.5055L5.05855 21.3098L5.05679 21.3106C4.22771 21.7227 3.25 21.1214 3.25 20.191V4Z" fill="white"/>
<path fill-rule="evenodd" clip-rule="evenodd" d="M8.22308 6.27338C8.15293 6.25168 8.07837 6.23999 8.00109 6.23999C7.92381 6.23999 7.84926 6.25168 7.77911 6.27338C7.6705 6.30662 7.56168 6.36649 7.46714 6.46104C7.30668 6.62149 7.24609 6.82305 7.24609 6.99499C7.24609 7.16693 7.30668 7.36849 7.46714 7.52895C7.6276 7.68941 7.82916 7.74999 8.00109 7.74999C8.17303 7.74999 8.37459 7.68941 8.53505 7.52895C8.69551 7.36849 8.75609 7.16693 8.75609 6.99499C8.75609 6.82305 8.69551 6.62149 8.53505 6.46104C8.4405 6.36649 8.33169 6.30662 8.22308 6.27338Z" fill="white"/>
<path fill-rule="evenodd" clip-rule="evenodd" d="M8.22112 10.2834C8.15097 10.2617 8.07642 10.25 7.99914 10.25C7.92186 10.25 7.84731 10.2617 7.77716 10.2834C7.66854 10.3166 7.55973 10.3765 7.46519 10.471C7.30473 10.6315 7.24414 10.8331 7.24414 11.005C7.24414 11.1769 7.30473 11.3785 7.46519 11.539C7.62565 11.6994 7.82721 11.76 7.99914 11.76C8.17108 11.76 8.37264 11.6994 8.5331 11.539C8.69356 11.3785 8.75414 11.1769 8.75414 11.005C8.75414 10.8331 8.69356 10.6315 8.5331 10.471C8.43855 10.3765 8.32974 10.3166 8.22112 10.2834Z" fill="white"/>
<path fill-rule="evenodd" clip-rule="evenodd" d="M8.22112 14.2734C8.15097 14.2517 8.07642 14.24 7.99914 14.24C7.92186 14.24 7.84731 14.2517 7.77716 14.2734C7.66854 14.3066 7.55973 14.3665 7.46519 14.461C7.30473 14.6215 7.24414 14.8231 7.24414 14.995C7.24414 15.1669 7.30473 15.3685 7.46519 15.5289C7.62565 15.6894 7.82721 15.75 7.99914 15.75C8.17108 15.75 8.37264 15.6894 8.5331 15.5289C8.69356 15.3685 8.75414 15.1669 8.75414 14.995C8.75414 14.8231 8.69356 14.6215 8.5331 14.461C8.43855 14.3665 8.32974 14.3066 8.22112 14.2734Z" fill="white"/>
</svg>
