<svg width="24" height="24" viewBox="0 0 24 24" fill="none" xmlns="http://www.w3.org/2000/svg">
<path fill-rule="evenodd" clip-rule="evenodd" d="M2.25 2.5C2.25 2.08579 2.58579 1.75 3 1.75H21C21.4142 1.75 21.75 2.08579 21.75 2.5C21.75 2.91421 21.4142 3.25 21 3.25H3C2.58579 3.25 2.25 2.91421 2.25 2.5Z" fill="white"/>
<path fill-rule="evenodd" clip-rule="evenodd" d="M8.75 16C8.75 15.5858 9.08579 15.25 9.5 15.25H14.5C14.9142 15.25 15.25 15.5858 15.25 16C15.25 16.4142 14.9142 16.75 14.5 16.75H9.5C9.08579 16.75 8.75 16.4142 8.75 16Z" fill="white"/>
<path fill-rule="evenodd" clip-rule="evenodd" d="M7.75 13C7.75 12.5858 8.08579 12.25 8.5 12.25H15.5C15.9142 12.25 16.25 12.5858 16.25 13C16.25 13.4142 15.9142 13.75 15.5 13.75H8.5C8.08579 13.75 7.75 13.4142 7.75 13Z" fill="white"/>
<path fill-rule="evenodd" clip-rule="evenodd" d="M6.75 10C6.75 9.58579 7.08579 9.25 7.5 9.25H16.5C16.9142 9.25 17.25 9.58579 17.25 10C17.25 10.4142 16.9142 10.75 16.5 10.75H7.5C7.08579 10.75 6.75 10.4142 6.75 10Z" fill="white"/>
<path fill-rule="evenodd" clip-rule="evenodd" d="M4 4.75C4.41421 4.75 4.75 5.08579 4.75 5.5V17.5C4.75 19.2949 6.20507 20.75 8 20.75H16C17.7949 20.75 19.25 19.2949 19.25 17.5V5.5C19.25 5.08579 19.5858 4.75 20 4.75C20.4142 4.75 20.75 5.08579 20.75 5.5V17.5C20.75 20.1234 18.6234 22.25 16 22.25H8C5.37665 22.25 3.25 20.1234 3.25 17.5V5.5C3.25 5.08579 3.58579 4.75 4 4.75Z" fill="white"/>
</svg>
