<svg width="16" height="16" viewBox="0 0 16 16" fill="none" xmlns="http://www.w3.org/2000/svg">
<path fill-rule="evenodd" clip-rule="evenodd" d="M1.5 1.66675C1.5 1.39061 1.72386 1.16675 2 1.16675H14C14.2761 1.16675 14.5 1.39061 14.5 1.66675C14.5 1.94289 14.2761 2.16675 14 2.16675H2C1.72386 2.16675 1.5 1.94289 1.5 1.66675Z" fill="#555D72"/>
<path fill-rule="evenodd" clip-rule="evenodd" d="M5.83398 10.6667C5.83398 10.3906 6.05784 10.1667 6.33398 10.1667H9.66732C9.94346 10.1667 10.1673 10.3906 10.1673 10.6667C10.1673 10.9429 9.94346 11.1667 9.66732 11.1667H6.33398C6.05784 11.1667 5.83398 10.9429 5.83398 10.6667Z" fill="#555D72"/>
<path fill-rule="evenodd" clip-rule="evenodd" d="M5.16602 8.66675C5.16602 8.39061 5.38987 8.16675 5.66602 8.16675H10.3327C10.6088 8.16675 10.8327 8.39061 10.8327 8.66675C10.8327 8.94289 10.6088 9.16675 10.3327 9.16675H5.66602C5.38987 9.16675 5.16602 8.94289 5.16602 8.66675Z" fill="#555D72"/>
<path fill-rule="evenodd" clip-rule="evenodd" d="M4.5 6.66675C4.5 6.39061 4.72386 6.16675 5 6.16675H11C11.2761 6.16675 11.5 6.39061 11.5 6.66675C11.5 6.94289 11.2761 7.16675 11 7.16675H5C4.72386 7.16675 4.5 6.94289 4.5 6.66675Z" fill="#555D72"/>
<path fill-rule="evenodd" clip-rule="evenodd" d="M2.66602 3.16675C2.94216 3.16675 3.16602 3.39061 3.16602 3.66675V11.6667C3.16602 12.8634 4.13607 13.8334 5.33268 13.8334H10.666C11.8626 13.8334 12.8327 12.8634 12.8327 11.6667V3.66675C12.8327 3.39061 13.0565 3.16675 13.3327 3.16675C13.6088 3.16675 13.8327 3.39061 13.8327 3.66675V11.6667C13.8327 13.4156 12.4149 14.8334 10.666 14.8334H5.33268C3.58378 14.8334 2.16602 13.4156 2.16602 11.6667V3.66675C2.16602 3.39061 2.38987 3.16675 2.66602 3.16675Z" fill="#555D72"/>
</svg>
