<svg width="33" height="32" viewBox="0 0 33 32" fill="none" xmlns="http://www.w3.org/2000/svg">
<path fill-rule="evenodd" clip-rule="evenodd" d="M3.5 3.33331C3.5 2.78103 3.94772 2.33331 4.5 2.33331H28.5C29.0523 2.33331 29.5 2.78103 29.5 3.33331C29.5 3.8856 29.0523 4.33331 28.5 4.33331H4.5C3.94772 4.33331 3.5 3.8856 3.5 3.33331Z" fill="white"/>
<path fill-rule="evenodd" clip-rule="evenodd" d="M12.168 21.3333C12.168 20.781 12.6157 20.3333 13.168 20.3333H19.8346C20.3869 20.3333 20.8346 20.781 20.8346 21.3333C20.8346 21.8856 20.3869 22.3333 19.8346 22.3333H13.168C12.6157 22.3333 12.168 21.8856 12.168 21.3333Z" fill="white"/>
<path fill-rule="evenodd" clip-rule="evenodd" d="M10.832 17.3333C10.832 16.781 11.2797 16.3333 11.832 16.3333H21.1654C21.7176 16.3333 22.1654 16.781 22.1654 17.3333C22.1654 17.8856 21.7176 18.3333 21.1654 18.3333H11.832C11.2797 18.3333 10.832 17.8856 10.832 17.3333Z" fill="white"/>
<path fill-rule="evenodd" clip-rule="evenodd" d="M9.5 13.3333C9.5 12.781 9.94772 12.3333 10.5 12.3333H22.5C23.0523 12.3333 23.5 12.781 23.5 13.3333C23.5 13.8856 23.0523 14.3333 22.5 14.3333H10.5C9.94772 14.3333 9.5 13.8856 9.5 13.3333Z" fill="white"/>
<path fill-rule="evenodd" clip-rule="evenodd" d="M5.83203 6.33331C6.38432 6.33331 6.83203 6.78103 6.83203 7.33331V23.3333C6.83203 25.7265 8.77213 27.6666 11.1654 27.6666H21.832C24.2253 27.6666 26.1654 25.7265 26.1654 23.3333V7.33331C26.1654 6.78103 26.6131 6.33331 27.1654 6.33331C27.7176 6.33331 28.1654 6.78103 28.1654 7.33331V23.3333C28.1654 26.8311 25.3298 29.6666 21.832 29.6666H11.1654C7.66756 29.6666 4.83203 26.8311 4.83203 23.3333V7.33331C4.83203 6.78103 5.27975 6.33331 5.83203 6.33331Z" fill="white"/>
</svg>
