<svg width="24" height="24" viewBox="0 0 24 24" fill="none" xmlns="http://www.w3.org/2000/svg">
<path fill-rule="evenodd" clip-rule="evenodd" d="M6 4.75C5.30921 4.75 4.75 5.30921 4.75 6V18C4.75 18.6908 5.30921 19.25 6 19.25H18C18.6908 19.25 19.25 18.6908 19.25 18V6C19.25 5.30921 18.6908 4.75 18 4.75H6ZM3.25 6C3.25 4.48079 4.48079 3.25 6 3.25H18C19.5192 3.25 20.75 4.48079 20.75 6V18C20.75 19.5192 19.5192 20.75 18 20.75H6C4.48079 20.75 3.25 19.5192 3.25 18V6Z" fill="#555D72"/>
<path fill-rule="evenodd" clip-rule="evenodd" d="M15.3603 8.63959C15.6531 8.93248 15.6531 9.40736 15.3603 9.70025L9.70025 15.3603C9.40736 15.6531 8.93248 15.6531 8.63959 15.3603C8.3467 15.0674 8.3467 14.5925 8.63959 14.2996L14.2996 8.63959C14.5925 8.3467 15.0674 8.3467 15.3603 8.63959Z" fill="#555D72"/>
<path fill-rule="evenodd" clip-rule="evenodd" d="M8.63959 8.63959C8.93248 8.3467 9.40736 8.3467 9.70025 8.63959L15.3603 14.2996C15.6531 14.5925 15.6531 15.0674 15.3603 15.3603C15.0674 15.6531 14.5925 15.6531 14.2996 15.3603L8.63959 9.70025C8.3467 9.40736 8.3467 8.93248 8.63959 8.63959Z" fill="#555D72"/>
</svg>
