<svg width="16" height="16" viewBox="0 0 16 16" fill="none" xmlns="http://www.w3.org/2000/svg">
<g clip-path="url(#clip0_974_1468)">
<path fill-rule="evenodd" clip-rule="evenodd" d="M10.2393 6.07474C10.4346 6.27001 10.4346 6.58659 10.2393 6.78185L6.46806 10.5531C6.2728 10.7484 5.95621 10.7483 5.76095 10.5531C5.56569 10.3578 5.56569 10.0412 5.76095 9.84598L9.53219 6.07474C9.72745 5.87948 10.044 5.87948 10.2393 6.07474Z" fill="#F17878"/>
<path fill-rule="evenodd" clip-rule="evenodd" d="M5.7607 6.07474C5.95597 5.87948 6.27255 5.87948 6.46781 6.07474L10.239 9.84598C10.4343 10.0412 10.4343 10.3578 10.239 10.5531C10.0438 10.7483 9.7272 10.7484 9.53194 10.5531L5.7607 6.78185C5.56544 6.58659 5.56544 6.27001 5.7607 6.07474Z" fill="#F17878"/>
<path fill-rule="evenodd" clip-rule="evenodd" d="M11.8891 4.42488C9.741 2.27679 6.259 2.27679 4.11091 4.42488C1.96282 6.57297 1.96282 10.055 4.11091 12.2031C6.259 14.3511 9.741 14.3511 11.8891 12.2031C14.0372 10.055 14.0372 6.57297 11.8891 4.42488ZM3.40381 3.71778C5.94242 1.17916 10.0576 1.17916 12.5962 3.71778C15.1348 6.25639 15.1348 10.3715 12.5962 12.9102C10.0576 15.4488 5.94242 15.4488 3.40381 12.9102C0.865192 10.3715 0.865191 6.25639 3.40381 3.71778Z" fill="#F17878"/>
</g>
<defs>
<clipPath id="clip0_974_1468">
<rect width="16" height="16" fill="white"/>
</clipPath>
</defs>
</svg>
