<svg width="16" height="16" viewBox="0 0 16 16" fill="none" xmlns="http://www.w3.org/2000/svg">
<path fill-rule="evenodd" clip-rule="evenodd" d="M3.49609 3.99496C3.49609 2.61425 4.61538 1.49496 5.99609 1.49496H11.9961C13.3768 1.49496 14.4961 2.61425 14.4961 3.99496V11.995C14.4961 13.3757 13.3768 14.495 11.9961 14.495H5.99609C4.61538 14.495 3.49609 13.3757 3.49609 11.995V9.99496C3.49609 9.71882 3.71995 9.49496 3.99609 9.49496C4.27224 9.49496 4.49609 9.71882 4.49609 9.99496V11.995C4.49609 12.8234 5.16767 13.495 5.99609 13.495H11.9961C12.8245 13.495 13.4961 12.8234 13.4961 11.995V3.99496C13.4961 3.16654 12.8245 2.49496 11.9961 2.49496H5.99609C5.16767 2.49496 4.49609 3.16654 4.49609 3.99496V5.99496C4.49609 6.27111 4.27224 6.49496 3.99609 6.49496C3.71995 6.49496 3.49609 6.27111 3.49609 5.99496V3.99496Z" fill="#202637"/>
<path fill-rule="evenodd" clip-rule="evenodd" d="M7.64254 5.64138C7.8378 5.44612 8.15439 5.44612 8.34965 5.64138L10.3496 7.64138C10.5449 7.83664 10.5449 8.15323 10.3496 8.34849L8.34965 10.3485C8.15439 10.5437 7.8378 10.5437 7.64254 10.3485C7.44728 10.1532 7.44728 9.83664 7.64254 9.64138L9.28899 7.99493L7.64254 6.34849C7.44728 6.15323 7.44728 5.83664 7.64254 5.64138Z" fill="#202637"/>
<path fill-rule="evenodd" clip-rule="evenodd" d="M1.49609 7.99506C1.49609 7.71891 1.71995 7.49506 1.99609 7.49506H9.99609C10.2722 7.49506 10.4961 7.71891 10.4961 7.99506C10.4961 8.2712 10.2722 8.49506 9.99609 8.49506H1.99609C1.71995 8.49506 1.49609 8.2712 1.49609 7.99506Z" fill="#202637"/>
</svg>
