<svg width="16" height="16" viewBox="0 0 16 16" fill="none" xmlns="http://www.w3.org/2000/svg">
<path fill-rule="evenodd" clip-rule="evenodd" d="M5 2.5C3.61948 2.5 2.5 3.61948 2.5 5V11.0027C2.5 12.3819 3.61814 13.5 4.99733 13.5H11.0027C12.3819 13.5 13.5 12.3818 13.5 11.0033V4.99733C13.5 3.61814 12.3819 2.5 11.0027 2.5H5ZM5 1.5H11.0027C12.9341 1.5 14.5 3.06586 14.5 4.99733V11.0033C14.5 12.9342 12.9341 14.5 11.0027 14.5H4.99733C3.06586 14.5 1.5 12.9341 1.5 11.0027V5C1.5 3.06719 3.06719 1.5 5 1.5Z" fill="white"/>
<path fill-rule="evenodd" clip-rule="evenodd" d="M6.8999 8.59985C6.8999 8.32371 7.12376 8.09985 7.3999 8.09985H10.9999C11.276 8.09985 11.4999 8.32371 11.4999 8.59985C11.4999 8.876 11.276 9.09985 10.9999 9.09985H7.3999C7.12376 9.09985 6.8999 8.876 6.8999 8.59985Z" fill="white"/>
<path fill-rule="evenodd" clip-rule="evenodd" d="M8.1001 7.36985C8.1001 6.11638 9.11662 5.09985 10.3701 5.09985H11.0001C11.2762 5.09985 11.5001 5.32371 11.5001 5.59985C11.5001 5.876 11.2762 6.09985 11.0001 6.09985H10.3701C9.66891 6.09985 9.1001 6.66866 9.1001 7.36985V13.9999C9.1001 14.276 8.87624 14.4999 8.6001 14.4999C8.32396 14.4999 8.1001 14.276 8.1001 13.9999V7.36985Z" fill="white"/>
</svg>
