<svg width="109" height="40" viewBox="0 0 109 40" fill="none" xmlns="http://www.w3.org/2000/svg">
<g id="Frame" clip-path="url(#clip0_32_129)">
<path id="Vector" fill-rule="evenodd" clip-rule="evenodd" d="M104.001 27.6732C104.001 27.9295 104.209 28.1374 104.466 28.1374H108.255C108.512 28.1374 108.72 27.9295 108.72 27.6732V0.464218C108.72 0.207837 108.512 0 108.255 0H104.466C104.209 0 104.001 0.207837 104.001 0.464217V27.6732ZM34.3802 24.33C36.2632 24.33 38.2199 23.628 39.5926 22.3788C39.7153 22.2671 39.8857 22.2211 40.046 22.2646L43.3607 23.1644C43.6492 23.2427 43.79 23.5689 43.6287 23.8203C41.767 26.7218 37.9002 28.4514 34.3802 28.4514C28.4361 28.4514 23.8421 23.6356 23.8421 17.932C23.8421 11.997 28.6285 7.37326 34.3802 7.37326C39.4735 7.37326 43.7593 11.0717 44.6859 15.9276L44.687 15.9328C44.9216 17.0035 45.0095 18.1251 44.8297 19.2503C44.7952 19.4667 44.604 19.6198 44.3844 19.6198H28.718C28.593 19.6198 28.4998 19.7346 28.5256 19.8566C29.1377 22.7489 31.5114 24.33 34.3802 24.33ZM28.5268 15.8841C28.497 16.0075 28.5907 16.1264 28.718 16.1264H39.9246C40.0518 16.1264 40.1455 16.0075 40.1157 15.8841C39.5452 13.5248 37.4256 11.4947 34.3409 11.4947C31.2579 11.4947 29.0977 13.5231 28.5268 15.8841ZM67.1506 15.4983V27.6732C67.1506 27.9295 66.9424 28.1374 66.6856 28.1374H62.8971C62.6403 28.1374 62.4321 27.9295 62.4321 27.6732V16.8329C62.4321 13.7043 60.2228 11.7302 57.6348 11.7302C54.3962 11.7302 52.2871 14.3555 52.2871 17.6179V27.6732C52.2871 27.9295 52.0789 28.1374 51.8221 28.1374H48.0336C47.7768 28.1374 47.5686 27.9295 47.5686 27.6732V8.19074C47.5686 7.93436 47.7768 7.72652 48.0336 7.72652H51.8221C52.0789 7.72652 52.2871 7.93436 52.2871 8.19074V9.4809C52.2871 9.6623 52.5125 9.7466 52.632 9.60987C53.4884 8.62927 55.9266 7.37326 58.6572 7.37326C63.0928 7.37326 67.1506 10.4072 67.1506 15.4983ZM95.4458 27.6732C95.4458 27.9295 95.654 28.1374 95.9108 28.1374H99.6993C99.9561 28.1374 100.164 27.9295 100.164 27.6732V8.19074C100.164 7.93436 99.9561 7.72652 99.6993 7.72652H95.9108C95.654 7.72652 95.4458 7.93436 95.4458 8.19074V9.57592C95.4458 9.75321 95.2289 9.83963 95.1066 9.7111C93.6475 8.17793 91.5749 7.37326 88.9971 7.37326C83.449 7.37326 78.8521 11.9898 78.8521 17.932C78.8521 23.6405 83.4509 28.4514 88.9971 28.4514C91.5773 28.4514 93.6502 27.844 95.1083 26.3502C95.2314 26.2241 95.4458 26.3111 95.4458 26.4872V27.6732ZM89.5082 24.2122C85.9344 24.2122 83.2561 21.3325 83.2561 17.932C83.2561 14.5331 85.9328 11.6124 89.5082 11.6124C92.9632 11.6124 95.7603 14.5305 95.7603 17.932C95.7603 21.3358 92.9214 24.2122 89.5082 24.2122ZM75.5838 8.19074C75.5838 7.93436 75.3756 7.72652 75.1188 7.72652H71.3303C71.0735 7.72652 70.8653 7.93436 70.8653 8.19074V27.6732C70.8653 27.9295 71.0735 28.1374 71.3303 28.1374H75.1188C75.3756 28.1374 75.5838 27.9295 75.5838 27.6732V8.19074ZM14.7698 27.6652C14.8365 27.6366 14.9137 27.6478 14.9694 27.6943C15.9461 28.51 16.5555 29.6093 16.5555 30.8287C16.5555 32.1219 15.8704 33.2795 14.7886 34.1076C13.7071 34.9356 12.2212 35.4423 10.5878 35.4423C8.95443 35.4423 7.46859 34.9356 6.38704 34.1076C5.30529 33.2795 4.62015 32.1219 4.62015 30.8287C4.62015 30.726 4.53871 30.6399 4.43585 30.6399H0.194971C0.0878365 30.6399 0 30.7252 0 30.8322C0 35.7953 4.71142 39.8671 10.5878 39.8671C16.4642 39.8671 21.1757 35.7953 21.1757 30.8322C21.1757 28.623 20.2459 26.5952 18.6945 25.021C18.6248 24.9502 18.6204 24.8381 18.6846 24.7622C20.239 22.922 21.1757 20.5451 21.1757 17.9491C21.1757 12.1099 16.4353 7.37632 10.5878 7.37632C4.74033 7.37632 0 12.1099 0 17.9491C0 23.7883 4.74033 28.5219 10.5878 28.5219C12.0735 28.5219 13.4872 28.2165 14.7698 27.6652ZM16.9405 17.9491C16.9405 21.4526 14.0963 24.2928 10.5878 24.2928C7.07933 24.2928 4.23513 21.4526 4.23513 17.9491C4.23513 14.4456 7.07933 11.6054 10.5878 11.6054C14.0963 11.6054 16.9405 14.4456 16.9405 17.9491Z" fill="white"/>
<path id="Vector_2" fill-rule="evenodd" clip-rule="evenodd" d="M16.9055 0C15.881 0 15.0505 0.833481 15.0505 1.86163V2.11264C15.0505 3.14079 15.881 3.97428 16.9055 3.97428H20.3655V7.44654C20.3655 8.47469 21.1961 9.30818 22.2206 9.30818H22.4707C23.4952 9.30818 24.3258 8.47469 24.3258 7.44654V3.97428V1.86163C24.3258 0.858356 23.5349 0.0404425 22.5447 0.00145445C22.5294 0.000850311 22.514 0.000433202 22.4986 0.000205326C22.4893 6.86012e-05 22.48 0 22.4707 0H20.3655H16.9055Z" fill="white"/>
<path id="Vector_3" d="M26.7507 39.8671V33.6212H27.6943V39.8671H26.7507Z" fill="white"/>
<path id="Vector_4" d="M34.1913 39.8671V36.1993C34.1913 35.65 34.0274 35.207 33.6996 34.8704C33.3807 34.5249 32.9555 34.3521 32.4239 34.3521C32.0607 34.3521 31.7417 34.4319 31.4671 34.5913C31.1924 34.7508 30.9754 34.9678 30.8159 35.2425C30.6565 35.5171 30.5767 35.8316 30.5767 36.186L30.1515 35.9468C30.1515 35.4773 30.2622 35.0564 30.4837 34.6843C30.7052 34.3122 31.002 34.0199 31.3741 33.8073C31.755 33.5946 32.1891 33.4883 32.6764 33.4883C33.1548 33.4883 33.58 33.6035 33.9521 33.8338C34.3242 34.0642 34.6122 34.3743 34.8159 34.7641C35.0285 35.1539 35.1349 35.5791 35.1349 36.0398V39.8671H34.1913ZM29.6465 39.8671V33.6212H30.5767V39.8671H29.6465Z" fill="white"/>
<path id="Vector_5" d="M39.1208 39.8671L36.2371 33.6212H37.2737L39.7056 39.083H39.1208L41.566 33.6212H42.576L39.6657 39.8671H39.1208Z" fill="white"/>
<path id="Vector_6" d="M46.4322 40C45.8032 40 45.2406 39.8582 44.7445 39.5747C44.2484 39.2912 43.8541 38.9014 43.5618 38.4053C43.2783 37.9091 43.1365 37.351 43.1365 36.7309C43.1365 36.1196 43.2783 35.5703 43.5618 35.083C43.8453 34.5869 44.2307 34.1971 44.7179 33.9136C45.2052 33.6301 45.75 33.4883 46.3525 33.4883C46.9195 33.4883 47.42 33.6168 47.8541 33.8737C48.2971 34.1306 48.6426 34.4894 48.8907 34.9501C49.1476 35.402 49.2761 35.9247 49.2761 36.5182C49.2761 36.5891 49.2716 36.6733 49.2628 36.7707C49.2539 36.8593 49.2362 36.9656 49.2096 37.0897H43.801V36.2923H48.7046L48.3724 36.5847C48.3813 36.124 48.3015 35.7297 48.1332 35.402C47.9737 35.0653 47.739 34.8084 47.4289 34.6312C47.1277 34.4451 46.76 34.3521 46.3259 34.3521C45.8741 34.3521 45.4798 34.4496 45.1432 34.6445C44.8065 34.8394 44.5407 35.114 44.3458 35.4684C44.1598 35.8139 44.0668 36.2259 44.0668 36.7043C44.0668 37.1827 44.1642 37.6035 44.3591 37.9667C44.5629 38.33 44.8419 38.6135 45.1963 38.8172C45.5596 39.021 45.9759 39.1229 46.4455 39.1229C46.8264 39.1229 47.1764 39.0564 47.4953 38.9235C47.8143 38.7818 48.0845 38.5736 48.306 38.299L48.904 38.9103C48.6116 39.2558 48.2484 39.526 47.8143 39.7209C47.389 39.9069 46.9283 40 46.4322 40Z" fill="white"/>
<path id="Vector_7" d="M52.6793 40C52.3426 40 52.0193 39.9557 51.7092 39.8671C51.3991 39.7696 51.1156 39.6367 50.8587 39.4684C50.6106 39.3001 50.3936 39.1007 50.2075 38.8704L50.8055 38.2591C51.0536 38.5603 51.3327 38.7862 51.6427 38.9368C51.9617 39.0786 52.3161 39.1495 52.7059 39.1495C53.1223 39.1495 53.4456 39.0697 53.676 38.9103C53.9152 38.7508 54.0348 38.5293 54.0348 38.2458C54.0348 37.98 53.9506 37.7718 53.7823 37.6212C53.614 37.4706 53.3969 37.351 53.1311 37.2624C52.8742 37.1738 52.5996 37.0897 52.3072 37.0099C52.0148 36.9213 51.7358 36.815 51.47 36.691C51.2042 36.5581 50.9872 36.3765 50.8188 36.1461C50.6594 35.9158 50.5796 35.6146 50.5796 35.2425C50.5796 34.8881 50.6638 34.5825 50.8321 34.3255C51.0093 34.0598 51.2574 33.856 51.5763 33.7142C51.9041 33.5636 52.2895 33.4883 52.7324 33.4883C53.202 33.4883 53.6272 33.5725 54.0082 33.7408C54.3891 33.9091 54.6948 34.1572 54.9251 34.485L54.3271 35.083C54.1411 34.8438 53.9063 34.6622 53.6228 34.5382C53.3482 34.4053 53.0381 34.3388 52.6926 34.3388C52.2939 34.3388 51.9883 34.4186 51.7756 34.578C51.5719 34.7286 51.47 34.928 51.47 35.176C51.47 35.4152 51.5542 35.6057 51.7225 35.7475C51.8908 35.8804 52.1034 35.9911 52.3604 36.0797C52.6261 36.1594 52.9052 36.2436 53.1976 36.3322C53.4899 36.4119 53.769 36.5227 54.0348 36.6644C54.3006 36.7973 54.5132 36.9833 54.6727 37.2225C54.841 37.4529 54.9251 37.7674 54.9251 38.1661C54.9251 38.7242 54.7214 39.1716 54.3138 39.5083C53.9152 39.8361 53.3703 40 52.6793 40Z" fill="white"/>
<path id="Vector_8" d="M59.3746 40C59.0113 40 58.6791 39.9247 58.3779 39.774C58.0855 39.6146 57.8552 39.3887 57.6869 39.0963C57.5185 38.7951 57.4344 38.4274 57.4344 37.9933V30.99H58.3779V37.9667C58.3779 38.3477 58.4709 38.6356 58.657 38.8305C58.843 39.0254 59.0999 39.1229 59.4277 39.1229C59.6315 39.1229 59.8131 39.0874 59.9726 39.0166C60.1321 38.9457 60.2827 38.835 60.4244 38.6843L61.0091 39.2691C60.7965 39.5083 60.5617 39.6899 60.3048 39.8139C60.0479 39.9379 59.7378 40 59.3746 40ZM55.853 34.485V33.6212H60.7832V34.485H55.853Z" fill="white"/>
<path id="Vector_9" d="M62.3835 39.8671V33.6212H63.327V39.8671H62.3835Z" fill="white"/>
<path id="Vector_10" d="M65.2793 39.8671V33.6212H66.2095V39.8671H65.2793ZM69.5716 39.8671V36.0398C69.5716 35.526 69.4166 35.1185 69.1065 34.8172C68.7964 34.5072 68.4066 34.3521 67.9371 34.3521C67.6181 34.3521 67.3258 34.423 67.06 34.5647C66.8031 34.6976 66.5949 34.8881 66.4354 35.1362C66.2848 35.3842 66.2095 35.681 66.2095 36.0265L65.7843 35.8538C65.7843 35.3754 65.8906 34.959 66.1032 34.6046C66.3158 34.2502 66.5993 33.9756 66.9537 33.7807C67.3169 33.5858 67.7245 33.4883 68.1763 33.4883C68.6193 33.4883 69.0135 33.5858 69.359 33.7807C69.7134 33.9756 69.9925 34.2502 70.1962 34.6046C70.4088 34.959 70.5152 35.3798 70.5152 35.8671V39.8671H69.5716ZM73.8773 39.8671V36.0398C73.8773 35.526 73.7222 35.1185 73.4122 34.8172C73.1021 34.5072 72.7078 34.3521 72.2294 34.3521C71.9194 34.3521 71.6314 34.423 71.3657 34.5647C71.1087 34.6976 70.9005 34.8881 70.7411 35.1362C70.5905 35.3842 70.5152 35.681 70.5152 36.0265L69.957 35.8538C69.9836 35.3754 70.1076 34.959 70.3291 34.6046C70.5595 34.2502 70.8562 33.9756 71.2195 33.7807C71.5916 33.5858 71.9991 33.4883 72.4421 33.4883C72.885 33.4883 73.2837 33.5858 73.6381 33.7807C74.0013 33.9756 74.2848 34.2502 74.4886 34.6046C74.7012 34.959 74.8075 35.3798 74.8075 35.8671V39.8671H73.8773Z" fill="white"/>
<path id="Vector_11" d="M79.5069 40C78.8778 40 78.3153 39.8582 77.8191 39.5747C77.323 39.2912 76.9288 38.9014 76.6364 38.4053C76.3529 37.9091 76.2112 37.351 76.2112 36.7309C76.2112 36.1196 76.3529 35.5703 76.6364 35.083C76.9199 34.5869 77.3053 34.1971 77.7926 33.9136C78.2798 33.6301 78.8247 33.4883 79.4271 33.4883C79.9941 33.4883 80.4947 33.6168 80.9288 33.8737C81.3717 34.1306 81.7173 34.4894 81.9653 34.9501C82.2222 35.402 82.3507 35.9247 82.3507 36.5182C82.3507 36.5891 82.3463 36.6733 82.3374 36.7707C82.3286 36.8593 82.3108 36.9656 82.2843 37.0897H76.8756V36.2923H81.7793L81.4471 36.5847C81.4559 36.124 81.3762 35.7297 81.2078 35.402C81.0484 35.0653 80.8136 34.8084 80.5035 34.6312C80.2023 34.4451 79.8347 34.3521 79.4005 34.3521C78.9487 34.3521 78.5545 34.4496 78.2178 34.6445C77.8812 34.8394 77.6154 35.114 77.4205 35.4684C77.2344 35.8139 77.1414 36.2259 77.1414 36.7043C77.1414 37.1827 77.2389 37.6035 77.4338 37.9667C77.6375 38.33 77.9166 38.6135 78.271 38.8172C78.6342 39.021 79.0506 39.1229 79.5201 39.1229C79.9011 39.1229 80.251 39.0564 80.57 38.9235C80.8889 38.7818 81.1591 38.5736 81.3806 38.299L81.9786 38.9103C81.6863 39.2558 81.323 39.526 80.8889 39.7209C80.4637 39.9069 80.003 40 79.5069 40Z" fill="white"/>
<path id="Vector_12" d="M88.385 39.8671V36.1993C88.385 35.65 88.2211 35.207 87.8933 34.8704C87.5743 34.5249 87.1491 34.3521 86.6175 34.3521C86.2543 34.3521 85.9354 34.4319 85.6607 34.5913C85.3861 34.7508 85.169 34.9678 85.0096 35.2425C84.8501 35.5171 84.7704 35.8316 84.7704 36.186L84.3451 35.9468C84.3451 35.4773 84.4558 35.0564 84.6773 34.6843C84.8988 34.3122 85.1956 34.0199 85.5677 33.8073C85.9486 33.5946 86.3828 33.4883 86.87 33.4883C87.3484 33.4883 87.7737 33.6035 88.1458 33.8338C88.5179 34.0642 88.8058 34.3743 89.0096 34.7641C89.2222 35.1539 89.3285 35.5791 89.3285 36.0398V39.8671H88.385ZM83.8401 39.8671V33.6212H84.7704V39.8671H83.8401Z" fill="white"/>
<path id="Vector_13" d="M94.0455 40C93.6822 40 93.35 39.9247 93.0488 39.774C92.7564 39.6146 92.5261 39.3887 92.3578 39.0963C92.1894 38.7951 92.1053 38.4274 92.1053 37.9933V30.99H93.0488V37.9667C93.0488 38.3477 93.1418 38.6356 93.3279 38.8305C93.5139 39.0254 93.7708 39.1229 94.0986 39.1229C94.3024 39.1229 94.484 39.0874 94.6435 39.0166C94.8029 38.9457 94.9536 38.835 95.0953 38.6843L95.68 39.2691C95.4674 39.5083 95.2326 39.6899 94.9757 39.8139C94.7188 39.9379 94.4087 40 94.0455 40ZM90.5239 34.485V33.6212H95.4541V34.485H90.5239Z" fill="white"/>
<path id="Vector_14" d="M99.8852 40C99.2827 40 98.7335 39.8538 98.2373 39.5614C97.7501 39.2691 97.3602 38.8748 97.0679 38.3787C96.7844 37.8826 96.6426 37.3289 96.6426 36.7176C96.6426 36.1151 96.7844 35.5703 97.0679 35.083C97.3602 34.5957 97.7501 34.2104 98.2373 33.9269C98.7335 33.6345 99.2827 33.4883 99.8852 33.4883C100.496 33.4883 101.046 33.6301 101.533 33.9136C102.02 34.1971 102.406 34.5869 102.689 35.083C102.981 35.5703 103.128 36.1151 103.128 36.7176C103.128 37.3377 102.981 37.8959 102.689 38.392C102.406 38.8792 102.02 39.2691 101.533 39.5614C101.046 39.8538 100.496 40 99.8852 40ZM99.8852 39.0963C100.328 39.0963 100.718 38.9944 101.054 38.7907C101.4 38.5869 101.67 38.3034 101.865 37.9402C102.069 37.5769 102.171 37.1694 102.171 36.7176C102.171 36.2657 102.069 35.8671 101.865 35.5216C101.67 35.1672 101.4 34.8881 101.054 34.6843C100.718 34.4806 100.328 34.3787 99.8852 34.3787C99.4511 34.3787 99.0612 34.4806 98.7157 34.6843C98.3702 34.8881 98.1 35.1672 97.9051 35.5216C97.7102 35.8671 97.6127 36.2657 97.6127 36.7176C97.6127 37.1783 97.7102 37.5902 97.9051 37.9534C98.1 38.3078 98.3702 38.5869 98.7157 38.7907C99.0612 38.9944 99.4511 39.0963 99.8852 39.0963Z" fill="white"/>
<path id="Vector_15" d="M106.588 40C106.251 40 105.927 39.9557 105.617 39.8671C105.307 39.7696 105.024 39.6367 104.767 39.4684C104.519 39.3001 104.302 39.1007 104.116 38.8704L104.714 38.2591C104.962 38.5603 105.241 38.7862 105.551 38.9368C105.87 39.0786 106.224 39.1495 106.614 39.1495C107.03 39.1495 107.354 39.0697 107.584 38.9103C107.823 38.7508 107.943 38.5293 107.943 38.2458C107.943 37.98 107.859 37.7718 107.691 37.6212C107.522 37.4706 107.305 37.351 107.039 37.2624C106.782 37.1738 106.508 37.0897 106.215 37.0099C105.923 36.9213 105.644 36.815 105.378 36.691C105.112 36.5581 104.895 36.3765 104.727 36.1461C104.568 35.9158 104.488 35.6146 104.488 35.2425C104.488 34.8881 104.572 34.5825 104.74 34.3255C104.918 34.0598 105.166 33.856 105.485 33.7142C105.812 33.5636 106.198 33.4883 106.641 33.4883C107.11 33.4883 107.535 33.5725 107.916 33.7408C108.297 33.9091 108.603 34.1572 108.833 34.485L108.235 35.083C108.049 34.8438 107.815 34.6622 107.531 34.5382C107.256 34.4053 106.946 34.3388 106.601 34.3388C106.202 34.3388 105.896 34.4186 105.684 34.578C105.48 34.7286 105.378 34.928 105.378 35.176C105.378 35.4152 105.462 35.6057 105.631 35.7475C105.799 35.8804 106.012 35.9911 106.269 36.0797C106.534 36.1594 106.813 36.2436 107.106 36.3322C107.398 36.4119 107.677 36.5227 107.943 36.6644C108.209 36.7973 108.421 36.9833 108.581 37.2225C108.749 37.4529 108.833 37.7674 108.833 38.1661C108.833 38.7242 108.63 39.1716 108.222 39.5083C107.823 39.8361 107.279 40 106.588 40Z" fill="white"/>
</g>
<defs>
<clipPath id="clip0_32_129">
<rect width="109" height="40" fill="white"/>
</clipPath>
</defs>
</svg>
