<?xml version="1.0" encoding="utf-8"?><!-- Uploaded to: SVG Repo, www.svgrepo.com, Generator: SVG Repo Mixer Tools -->
<svg fill="#0e1c63" width="24px" height="24px" viewBox="0 0 1024 1024" xmlns="http://www.w3.org/2000/svg"><path d="M880.64 463.33c16.962 0 30.72-13.758 30.72-30.72v-56.013c0-16.962-13.758-30.72-30.72-30.72H143.36c-16.962 0-30.72 13.758-30.72 30.72v56.013c0 16.962 13.758 30.72 30.72 30.72h737.28zm0 40.96H143.36c-39.583 0-71.68-32.097-71.68-71.68v-56.013c0-39.583 32.097-71.68 71.68-71.68h737.28c39.583 0 71.68 32.097 71.68 71.68v56.013c0 39.583-32.097 71.68-71.68 71.68z"/><path d="M184.32 908.481c0 16.962 13.758 30.72 30.72 30.72h593.92c16.962 0 30.72-13.758 30.72-30.72V504.144H184.32v404.337zm624.64 71.68H215.04c-39.583 0-71.68-32.097-71.68-71.68V463.184h737.28v445.297c0 39.583-32.097 71.68-71.68 71.68z"/><path d="M491.52 326.681v645.12h40.96v-645.12z"/><path d="M490.883 292.319v-66.324c0-85.222-69.095-154.317-154.317-154.317h-24.207c-28.912 0-52.357 23.445-52.357 52.357v24.207c0 85.222 69.095 154.317 154.317 154.317h66.324c5.585 0 10.24-4.655 10.24-10.24zm40.96 0c0 28.207-22.993 51.2-51.2 51.2h-66.324c-107.843 0-195.277-87.434-195.277-195.277v-24.207c0-51.534 41.784-93.317 93.317-93.317h24.207c107.843 0 195.277 87.434 195.277 195.277v66.324z"/><path d="M491.301 292.319v-66.324c0-107.843 87.434-195.277 195.277-195.277h24.207c51.534 0 93.317 41.784 93.317 93.317v24.207c0 107.843-87.434 195.277-195.277 195.277h-66.324c-28.207 0-51.2-22.993-51.2-51.2zm40.96 0c0 5.585 4.655 10.24 10.24 10.24h66.324c85.222 0 154.317-69.095 154.317-154.317v-24.207c0-28.912-23.445-52.357-52.357-52.357h-24.207c-85.222 0-154.317 69.095-154.317 154.317v66.324z"/></svg>