<svg width="33" height="32" viewBox="0 0 33 32" fill="none" xmlns="http://www.w3.org/2000/svg">
<path fill-rule="evenodd" clip-rule="evenodd" d="M3.5 10.6667C3.5 10.1145 3.94772 9.66675 4.5 9.66675H28.5C29.0523 9.66675 29.5 10.1145 29.5 10.6667C29.5 11.219 29.0523 11.6667 28.5 11.6667H4.5C3.94772 11.6667 3.5 11.219 3.5 10.6667Z" fill="white"/>
<path fill-rule="evenodd" clip-rule="evenodd" d="M10.5 19.6934C11.0523 19.6934 11.5 20.1411 11.5 20.6934V22.6667C11.5 23.219 11.0523 23.6667 10.5 23.6667C9.94772 23.6667 9.5 23.219 9.5 22.6667V20.6934C9.5 20.1411 9.94772 19.6934 10.5 19.6934Z" fill="white"/>
<path fill-rule="evenodd" clip-rule="evenodd" d="M14.5 15.3333C15.0523 15.3333 15.5 15.781 15.5 16.3333V22.6666C15.5 23.2189 15.0523 23.6666 14.5 23.6666C13.9477 23.6666 13.5 23.2189 13.5 22.6666V16.3333C13.5 15.781 13.9477 15.3333 14.5 15.3333Z" fill="white"/>
<path fill-rule="evenodd" clip-rule="evenodd" d="M18.5 18.9067C19.0523 18.9067 19.5 19.3545 19.5 19.9067V22.6667C19.5 23.219 19.0523 23.6667 18.5 23.6667C17.9477 23.6667 17.5 23.219 17.5 22.6667V19.9067C17.5 19.3545 17.9477 18.9067 18.5 18.9067Z" fill="white"/>
<path fill-rule="evenodd" clip-rule="evenodd" d="M22.5 16.0667C23.0523 16.0667 23.5 16.5144 23.5 17.0667V22.6666C23.5 23.2189 23.0523 23.6666 22.5 23.6666C21.9477 23.6666 21.5 23.2189 21.5 22.6666V17.0667C21.5 16.5144 21.9477 16.0667 22.5 16.0667Z" fill="white"/>
<path fill-rule="evenodd" clip-rule="evenodd" d="M15.2831 6.37119C15.1896 6.34224 15.0902 6.32666 14.9871 6.32666C14.8841 6.32666 14.7847 6.34224 14.6912 6.37119C14.5463 6.4155 14.4013 6.49533 14.2752 6.62139C14.0612 6.83533 13.9805 7.10408 13.9805 7.33333C13.9805 7.56257 14.0612 7.83132 14.2752 8.04527C14.4891 8.25921 14.7579 8.33999 14.9871 8.33999C15.2164 8.33999 15.4851 8.25921 15.6991 8.04527C15.913 7.83132 15.9938 7.56257 15.9938 7.33333C15.9938 7.10408 15.913 6.83533 15.6991 6.62139C15.573 6.49533 15.4279 6.4155 15.2831 6.37119Z" fill="white"/>
<path fill-rule="evenodd" clip-rule="evenodd" d="M11.9003 6.37119C11.8068 6.34224 11.7074 6.32666 11.6043 6.32666C11.5013 6.32666 11.4019 6.34224 11.3083 6.37119C11.1635 6.4155 11.0184 6.49533 10.8924 6.62139C10.6784 6.83533 10.5977 7.10408 10.5977 7.33333C10.5977 7.56257 10.6784 7.83132 10.8924 8.04527C11.1063 8.25921 11.3751 8.33999 11.6043 8.33999C11.8336 8.33999 12.1023 8.25921 12.3163 8.04527C12.5302 7.83132 12.611 7.56257 12.611 7.33333C12.611 7.10408 12.5302 6.83533 12.3163 6.62139C12.1902 6.49533 12.0451 6.4155 11.9003 6.37119Z" fill="white"/>
<path fill-rule="evenodd" clip-rule="evenodd" d="M8.50186 6.36459C8.40833 6.33565 8.30893 6.32007 8.20589 6.32007C8.10284 6.32007 8.00344 6.33565 7.90991 6.36459C7.76509 6.40891 7.62 6.48874 7.49395 6.6148C7.28 6.82874 7.19922 7.09749 7.19922 7.32674C7.19922 7.55598 7.28 7.82473 7.49395 8.03867C7.70789 8.25262 7.97664 8.3334 8.20589 8.3334C8.43513 8.3334 8.70388 8.25262 8.91783 8.03867C9.13177 7.82473 9.21255 7.55598 9.21255 7.32674C9.21255 7.09749 9.13177 6.82874 8.91783 6.6148C8.79177 6.48873 8.64668 6.40891 8.50186 6.36459Z" fill="white"/>
<path fill-rule="evenodd" clip-rule="evenodd" d="M7.16667 5C6.24562 5 5.5 5.74562 5.5 6.66667V25.3333C5.5 26.2544 6.24562 27 7.16667 27H25.8333C26.7544 27 27.5 26.2544 27.5 25.3333V6.66667C27.5 5.74562 26.7544 5 25.8333 5H7.16667ZM3.5 6.66667C3.5 4.64105 5.14105 3 7.16667 3H25.8333C27.859 3 29.5 4.64105 29.5 6.66667V25.3333C29.5 27.359 27.859 29 25.8333 29H7.16667C5.14105 29 3.5 27.359 3.5 25.3333V6.66667Z" fill="white"/>
</svg>
