<svg width="16" height="16" viewBox="0 0 16 16" fill="none" xmlns="http://www.w3.org/2000/svg">
<path fill-rule="evenodd" clip-rule="evenodd" d="M8 2.50024C4.96243 2.50024 2.5 4.96268 2.5 8.00024C2.5 11.0378 4.96243 13.5002 8 13.5002C11.0376 13.5002 13.5 11.0378 13.5 8.00024C13.5 4.96268 11.0376 2.50024 8 2.50024ZM1.5 8.00024C1.5 4.41039 4.41015 1.50024 8 1.50024C11.5899 1.50024 14.5 4.41039 14.5 8.00024C14.5 11.5901 11.5899 14.5002 8 14.5002C4.41015 14.5002 1.5 11.5901 1.5 8.00024Z" fill="white"/>
<path fill-rule="evenodd" clip-rule="evenodd" d="M8.93316 6.68149C8.89334 6.18274 8.46258 5.80498 7.96101 5.83276C7.9449 5.83366 7.92875 5.83377 7.91263 5.8331C7.45457 5.81409 7.04782 6.12373 6.9442 6.57032C6.88179 6.83932 6.61313 7.00678 6.34413 6.94437C6.07514 6.88196 5.90767 6.6133 5.97008 6.3443C6.18054 5.43724 7.00139 4.80594 7.92991 4.8331C8.97534 4.78814 9.86719 5.58846 9.9324 6.63579C9.93304 6.64614 9.93336 6.6565 9.93336 6.66686C9.93336 7.43053 9.37673 7.90061 9.03212 8.18079C8.9867 8.21772 8.9445 8.25158 8.90516 8.28315C8.76915 8.39229 8.66737 8.47396 8.58523 8.5598C8.52068 8.62725 8.50375 8.66246 8.5 8.67266C8.49689 8.94613 8.27424 9.16686 8.00003 9.16686C7.72389 9.16686 7.50003 8.94301 7.50003 8.66686C7.50003 8.30813 7.69565 8.04303 7.86274 7.86841C7.99527 7.72992 8.1655 7.5938 8.30831 7.47961C8.34099 7.45348 8.37224 7.42849 8.40127 7.40489C8.76571 7.10858 8.92672 6.9139 8.93316 6.68149ZM8.49905 8.67585C8.49901 8.67586 8.49911 8.67531 8.49948 8.67416L8.49905 8.67585Z" fill="white"/>
<path fill-rule="evenodd" clip-rule="evenodd" d="M8.39212 10.1073C8.30056 9.99125 8.15865 9.91675 7.99935 9.91675C7.67718 9.91675 7.41602 10.1779 7.41602 10.5001C7.41602 10.8222 7.67718 11.0834 7.99935 11.0834C8.32152 11.0834 8.58268 10.8222 8.58268 10.5001C8.58268 10.3408 8.50818 10.1989 8.39212 10.1073Z" fill="white"/>
</svg>
