<svg width="16" height="16" viewBox="0 0 16 16" fill="none" xmlns="http://www.w3.org/2000/svg">
<path fill-rule="evenodd" clip-rule="evenodd" d="M8 2.5C4.96214 2.5 2.5 4.96214 2.5 8C2.5 11.0379 4.96214 13.5 8 13.5C11.0379 13.5 13.5 11.0379 13.5 8C13.5 4.96214 11.0379 2.5 8 2.5ZM1.5 8C1.5 4.40986 4.40986 1.5 8 1.5C11.5901 1.5 14.5 4.40986 14.5 8C14.5 11.5901 11.5901 14.5 8 14.5C4.40986 14.5 1.5 11.5901 1.5 8Z" fill="#A4AABB"/>
<path fill-rule="evenodd" clip-rule="evenodd" d="M6.83398 8C6.83398 7.72386 7.05784 7.5 7.33398 7.5L8.00065 7.5C8.27679 7.5 8.50065 7.72386 8.50065 8L8.50065 11.3333C8.50065 11.6095 8.27679 11.8333 8.00065 11.8333C7.72451 11.8333 7.50065 11.6095 7.50065 11.3333L7.50065 8.5L7.33398 8.5C7.05784 8.5 6.83398 8.27614 6.83398 8Z" fill="#A4AABB"/>
<path fill-rule="evenodd" clip-rule="evenodd" d="M7.16602 5.50173C7.16432 5.1309 7.46518 4.83325 7.83202 4.83325C8.19953 4.83325 8.49935 5.13048 8.49935 5.49992C8.49935 5.86806 8.20083 6.16659 7.83269 6.16659C7.46515 6.16659 7.167 5.86904 7.16602 5.50173Z" fill="#A4AABB"/>
</svg>
