<svg width="16" height="16" viewBox="0 0 16 16" fill="none" xmlns="http://www.w3.org/2000/svg">
<path fill-rule="evenodd" clip-rule="evenodd" d="M4.99733 2.5C3.61755 2.5 2.5 3.61807 2.5 4.99733V11.0027C2.5 12.3825 3.61807 13.5 4.99733 13.5H11.0027C12.3825 13.5 13.5 12.3819 13.5 11.0033V4.99733C13.5 3.61748 12.3819 2.5 11.0033 2.5H4.99733ZM4.99733 1.5H11.0033C12.9341 1.5 14.5 3.06519 14.5 4.99733V11.0033C14.5 12.9341 12.9348 14.5 11.0027 14.5H4.99733C3.06593 14.5 1.5 12.9349 1.5 11.0027V4.99733C1.5 3.06593 3.06512 1.5 4.99733 1.5Z" fill="white"/>
<path fill-rule="evenodd" clip-rule="evenodd" d="M11.7452 4.70185L12.0247 4.70335C12.0269 4.29801 11.6977 3.97534 11.2994 3.97534C11.2989 3.97534 11.2985 3.97534 11.298 3.97534C11.2976 3.97534 11.2971 3.97535 11.2967 3.97535C11.2964 3.97535 11.2961 3.97535 11.2957 3.97535C10.8986 3.978 10.5747 4.30034 10.5747 4.70068C10.5747 5.10274 10.9018 5.42534 11.3 5.42534C11.7002 5.42534 12.0247 5.10082 12.0247 4.70068H11.7458" fill="white"/>
<path fill-rule="evenodd" clip-rule="evenodd" d="M9.3436 6.65635C8.6016 5.91435 7.39859 5.91435 6.6566 6.65635C5.9146 7.39835 5.9146 8.60136 6.6566 9.34336C7.39859 10.0854 8.6016 10.0854 9.3436 9.34336C10.0856 8.60136 10.0856 7.39835 9.3436 6.65635ZM10.0507 5.94925C8.91819 4.81672 7.08201 4.81672 5.94949 5.94925C4.81697 7.08177 4.81697 8.91794 5.94949 10.0505C7.08201 11.183 8.91819 11.183 10.0507 10.0505C11.1832 8.91794 11.1832 7.08177 10.0507 5.94925Z" fill="white"/>
</svg>
