<svg width="16" height="16" viewBox="0 0 16 16" fill="none" xmlns="http://www.w3.org/2000/svg">
<path fill-rule="evenodd" clip-rule="evenodd" d="M11.4282 6.23718C11.5731 6.47224 11.5 6.78027 11.265 6.92519L9.31385 8.12812L9.07897 7.74715L9.31385 8.12812C8.50915 8.62424 7.49349 8.62424 6.68879 8.12812L6.94614 7.71071L6.68879 8.12812L4.73767 6.92519C4.50261 6.78027 4.42954 6.47224 4.57446 6.23718C4.71938 6.00212 5.02741 5.92905 5.26247 6.07397L7.2136 7.2769C7.69654 7.57465 8.3061 7.57465 8.78904 7.2769L10.7402 6.07397C10.9752 5.92905 11.2833 6.00212 11.4282 6.23718Z" fill="white"/>
<path fill-rule="evenodd" clip-rule="evenodd" d="M1.49609 5.33154C1.49609 3.95083 2.61538 2.83154 3.99609 2.83154H12.0011C13.3818 2.83154 14.5011 3.95083 14.5011 5.33154V10.6688C14.5011 12.0495 13.3818 13.1688 12.0011 13.1688H3.99609C2.61538 13.1688 1.49609 12.0495 1.49609 10.6688V5.33154ZM3.99609 3.83154C3.16767 3.83154 2.49609 4.50312 2.49609 5.33154V10.6688C2.49609 11.4972 3.16767 12.1688 3.99609 12.1688H12.0011C12.8295 12.1688 13.5011 11.4972 13.5011 10.6688V5.33154C13.5011 4.50312 12.8295 3.83154 12.0011 3.83154H3.99609Z" fill="white"/>
</svg>
