<svg width="24" height="24" viewBox="0 0 24 24" fill="none" xmlns="http://www.w3.org/2000/svg">
<path fill-rule="evenodd" clip-rule="evenodd" d="M6.85973 9.35552C7.07712 9.00294 7.53917 8.89333 7.89175 9.11071L10.8184 10.9151C11.5429 11.3617 12.4572 11.3617 13.1816 10.9151L16.1083 9.11071C16.4609 8.89333 16.9229 9.00294 17.1403 9.35552C17.3577 9.70811 17.2481 10.1702 16.8955 10.3875L13.9688 12.1919L13.5752 11.5535L13.9688 12.1919C12.7618 12.9361 11.2383 12.9361 10.0312 12.1919L10.4248 11.5535L10.0312 12.1919L7.10455 10.3875C6.75196 10.1702 6.64235 9.70811 6.85973 9.35552Z" fill="#202637"/>
<path fill-rule="evenodd" clip-rule="evenodd" d="M2.24609 7.99707C2.24609 5.926 3.92503 4.24707 5.99609 4.24707H18.0036C20.0747 4.24707 21.7536 5.926 21.7536 7.99707V16.0029C21.7536 18.074 20.0747 19.7529 18.0036 19.7529H5.99609C3.92502 19.7529 2.24609 18.074 2.24609 16.0029V7.99707ZM5.99609 5.74707C4.75345 5.74707 3.74609 6.75443 3.74609 7.99707V16.0029C3.74609 17.2455 4.75345 18.2529 5.99609 18.2529H18.0036C19.2462 18.2529 20.2536 17.2455 20.2536 16.0029V7.99707C20.2536 6.75443 19.2462 5.74707 18.0036 5.74707H5.99609Z" fill="#202637"/>
</svg>
