<svg width="16" height="16" viewBox="0 0 16 16" fill="none" xmlns="http://www.w3.org/2000/svg">
<path fill-rule="evenodd" clip-rule="evenodd" d="M4.76923 2.07692C3.28251 2.07692 2.07692 3.28251 2.07692 4.76923V11.2336C2.07692 12.7189 3.28108 13.9231 4.76636 13.9231H11.2336C12.719 13.9231 13.9231 12.7188 13.9231 11.2344V4.76636C13.9231 3.28108 12.7189 2.07692 11.2336 2.07692H4.76923ZM4.76923 1H11.2336C13.3137 1 15 2.68631 15 4.76636V11.2344C15 13.3138 13.3136 15 11.2336 15H4.76636C2.68631 15 1 13.3137 1 11.2336V4.76923C1 2.68774 2.68774 1 4.76923 1Z" fill="white"/>
<path fill-rule="evenodd" clip-rule="evenodd" d="M5.21424 6.81543C5.51163 6.81543 5.7527 7.05651 5.7527 7.35389V11.2308C5.7527 11.5282 5.51163 11.7693 5.21424 11.7693C4.91686 11.7693 4.67578 11.5282 4.67578 11.2308V7.35389C4.67578 7.05651 4.91686 6.81543 5.21424 6.81543Z" fill="white"/>
<path fill-rule="evenodd" clip-rule="evenodd" d="M9.41361 7.89235C8.81859 7.89235 8.33669 8.37425 8.33669 8.96928V11.2308C8.33669 11.5282 8.09561 11.7693 7.79823 11.7693C7.50084 11.7693 7.25977 11.5282 7.25977 11.2308V8.96928C7.25977 7.77948 8.22382 6.81543 9.41361 6.81543C10.6034 6.81543 11.5675 7.77948 11.5675 8.96928V11.2308C11.5675 11.5282 11.3264 11.7693 11.029 11.7693C10.7316 11.7693 10.4905 11.5282 10.4905 11.2308V8.96928C10.4905 8.37425 10.0086 7.89235 9.41361 7.89235Z" fill="white"/>
<path fill-rule="evenodd" clip-rule="evenodd" d="M4.51368 5.1758C4.51172 4.78618 4.82811 4.47363 5.21296 4.47363C5.59697 4.47363 5.91368 4.7834 5.91368 5.17363C5.91368 5.56004 5.60009 5.87363 5.21368 5.87363C4.82799 5.87363 4.51485 5.56122 4.51368 5.1758Z" fill="white"/>
</svg>
