<svg width="36" height="32" viewBox="0 0 13 12" fill="none" xmlns="http://www.w3.org/2000/svg">
<path fill-rule="evenodd" clip-rule="evenodd" d="M3.99895 5.37451C3.65354 5.37451 3.37354 5.65452 3.37354 5.99993V9.50139C3.37354 9.84679 3.65354 10.1268 3.99895 10.1268H9.00104C9.34644 10.1268 9.62645 9.84679 9.62645 9.50139V5.99993C9.62645 5.65452 9.34644 5.37451 9.00104 5.37451H3.99895ZM2.62354 5.99993C2.62354 5.24031 3.23933 4.62451 3.99895 4.62451H9.00104C9.76066 4.62451 10.3765 5.24031 10.3765 5.99993V9.50139C10.3765 10.261 9.76066 10.8768 9.00104 10.8768H3.99895C3.23933 10.8768 2.62354 10.261 2.62354 9.50139V5.99993Z" fill="white"/>
<path fill-rule="evenodd" clip-rule="evenodd" d="M6.49986 1.87305C5.60193 1.87305 4.87402 2.60096 4.87402 3.49888V4.99951C4.87402 5.20661 4.70613 5.37451 4.49902 5.37451C4.29192 5.37451 4.12402 5.20661 4.12402 4.99951V3.49888C4.12402 2.18674 5.18772 1.12305 6.49986 1.12305C7.81199 1.12305 8.87569 2.18674 8.87569 3.49888V4.99951C8.87569 5.20661 8.7078 5.37451 8.50069 5.37451C8.29358 5.37451 8.12569 5.20661 8.12569 4.99951V3.49888C8.12569 2.60096 7.39778 1.87305 6.49986 1.87305Z" fill="white"/>
</svg>

