<svg width="16" height="16" viewBox="0 0 16 16" fill="none" xmlns="http://www.w3.org/2000/svg">
<path fill-rule="evenodd" clip-rule="evenodd" d="M3.49414 3.99487C3.49414 2.61416 4.61343 1.49487 5.99414 1.49487H11.9941C13.3749 1.49487 14.4941 2.61416 14.4941 3.99487V11.9949C14.4941 13.3756 13.3749 14.4949 11.9941 14.4949H5.99414C4.61343 14.4949 3.49414 13.3756 3.49414 11.9949V9.99487C3.49414 9.71873 3.718 9.49487 3.99414 9.49487C4.27028 9.49487 4.49414 9.71873 4.49414 9.99487V11.9949C4.49414 12.8233 5.16571 13.4949 5.99414 13.4949H11.9941C12.8226 13.4949 13.4941 12.8233 13.4941 11.9949V3.99487C13.4941 3.16645 12.8226 2.49487 11.9941 2.49487H5.99414C5.16571 2.49487 4.49414 3.16645 4.49414 3.99487V5.99487C4.49414 6.27102 4.27028 6.49487 3.99414 6.49487C3.718 6.49487 3.49414 6.27102 3.49414 5.99487V3.99487Z" fill="white"/>
<path fill-rule="evenodd" clip-rule="evenodd" d="M7.64059 5.64132C7.83585 5.44606 8.15243 5.44606 8.34769 5.64132L10.3477 7.64132C10.543 7.83658 10.543 8.15316 10.3477 8.34843L8.34769 10.3484C8.15243 10.5437 7.83585 10.5437 7.64059 10.3484C7.44533 10.1532 7.44533 9.83658 7.64059 9.64132L9.28703 7.99487L7.64059 6.34843C7.44533 6.15316 7.44533 5.83658 7.64059 5.64132Z" fill="white"/>
<path fill-rule="evenodd" clip-rule="evenodd" d="M1.49414 7.99487C1.49414 7.71873 1.718 7.49487 1.99414 7.49487H9.99414C10.2703 7.49487 10.4941 7.71873 10.4941 7.99487C10.4941 8.27102 10.2703 8.49487 9.99414 8.49487H1.99414C1.718 8.49487 1.49414 8.27102 1.49414 7.99487Z" fill="white"/>
</svg>
