<svg width="24" height="24" viewBox="0 0 24 24" fill="none" xmlns="http://www.w3.org/2000/svg">
<path fill-rule="evenodd" clip-rule="evenodd" d="M5.24512 5.995C5.24512 3.92393 6.92405 2.245 8.99512 2.245H17.9951C20.0662 2.245 21.7451 3.92393 21.7451 5.995V17.995C21.7451 20.0661 20.0662 21.745 17.9951 21.745H8.99512C6.92405 21.745 5.24512 20.0661 5.24512 17.995V14.995C5.24512 14.5808 5.5809 14.245 5.99512 14.245C6.40933 14.245 6.74512 14.5808 6.74512 14.995V17.995C6.74512 19.2376 7.75248 20.245 8.99512 20.245H17.9951C19.2378 20.245 20.2451 19.2376 20.2451 17.995V5.995C20.2451 4.75235 19.2378 3.745 17.9951 3.745H8.99512C7.75248 3.745 6.74512 4.75235 6.74512 5.995V8.995C6.74512 9.40921 6.40933 9.745 5.99512 9.745C5.5809 9.745 5.24512 9.40921 5.24512 8.995V5.995Z" fill="#555D72"/>
<path fill-rule="evenodd" clip-rule="evenodd" d="M11.4648 8.46467C11.7577 8.17177 12.2326 8.17177 12.5254 8.46467L15.5254 11.4647C15.8183 11.7576 15.8183 12.2324 15.5254 12.5253L12.5254 15.5253C12.2326 15.8182 11.7577 15.8182 11.4648 15.5253C11.1719 15.2324 11.1719 14.7576 11.4648 14.4647L13.9345 11.995L11.4648 9.52533C11.1719 9.23243 11.1719 8.75756 11.4648 8.46467Z" fill="#555D72"/>
<path fill-rule="evenodd" clip-rule="evenodd" d="M2.24512 11.9951C2.24512 11.5809 2.5809 11.2451 2.99512 11.2451H14.9951C15.4093 11.2451 15.7451 11.5809 15.7451 11.9951C15.7451 12.4093 15.4093 12.7451 14.9951 12.7451H2.99512C2.5809 12.7451 2.24512 12.4093 2.24512 11.9951Z" fill="#555D72"/>
</svg>
