<svg width="16" height="16" viewBox="0 0 16 16" fill="none" xmlns="http://www.w3.org/2000/svg">
<g clip-path="url(#clip0_974_4145)">
<path fill-rule="evenodd" clip-rule="evenodd" d="M5.73911 11.2637C5.73914 11.2638 5.73907 11.2637 5.73911 11.2637L7.9605 13.4858C7.96054 13.4858 7.96045 13.4857 7.9605 13.4858C7.98241 13.5075 8.01787 13.5076 8.03979 13.4859C8.03974 13.486 8.03983 13.4859 8.03979 13.4859L10.2613 11.2637C10.2613 11.2638 10.2613 11.2637 10.2613 11.2637C10.2773 11.2476 10.2821 11.2234 10.2735 11.2025C10.2648 11.1816 10.2444 11.1679 10.2218 11.1678H5.77862C5.75599 11.1679 5.73562 11.1816 5.72696 11.2025C5.71829 11.2234 5.72315 11.2476 5.73911 11.2637ZM10.9693 11.97C11.2706 11.6679 11.3606 11.2143 11.1974 10.8201C11.0343 10.4259 10.65 10.1685 10.2233 10.1678L5.77795 10.1678C5.35132 10.1685 4.96615 10.4259 4.80298 10.8201C4.63982 11.2143 4.72983 11.6679 5.03113 11.97L7.25377 14.1933C7.66604 14.6045 8.33388 14.605 8.74616 14.1938L10.9693 11.97Z" fill="#555D72"/>
<path fill-rule="evenodd" clip-rule="evenodd" d="M2.16406 8C2.16406 7.72386 2.38792 7.5 2.66406 7.5L13.3352 7.5C13.6113 7.5 13.8352 7.72386 13.8352 8C13.8352 8.27614 13.6113 8.5 13.3352 8.5H2.66406C2.38792 8.5 2.16406 8.27614 2.16406 8Z" fill="#555D72"/>
<path fill-rule="evenodd" clip-rule="evenodd" d="M5.73901 4.73643C5.72305 4.75251 5.71829 4.7766 5.72696 4.79755C5.73562 4.81847 5.75598 4.83215 5.77861 4.83228H10.2218C10.2444 4.83215 10.2648 4.81847 10.2735 4.79755C10.2821 4.77661 10.2774 4.75252 10.2614 4.73644C10.2615 4.73648 10.2614 4.73641 10.2614 4.73644L8.03992 2.51428C8.03997 2.51432 8.03988 2.51423 8.03992 2.51428C8.01801 2.49257 7.98255 2.49243 7.96064 2.51414C7.96059 2.51418 7.96068 2.51409 7.96064 2.51414L5.73901 4.73643C5.73905 4.73639 5.73898 4.73646 5.73901 4.73643ZM4.80298 5.18C4.63982 4.7858 4.72983 4.33214 5.03113 4.0301L7.25377 1.80679C7.66605 1.39553 8.33388 1.39504 8.74616 1.8063L10.9689 4.02971C11.2702 4.33176 11.3606 4.7858 11.1974 5.18C11.0343 5.5742 10.65 5.83153 10.2233 5.83227L5.77795 5.83228C5.35132 5.83153 4.96615 5.5742 4.80298 5.18Z" fill="#555D72"/>
</g>
<defs>
<clipPath id="clip0_974_4145">
<rect width="16" height="16" fill="white"/>
</clipPath>
</defs>
</svg>
