<svg width="24" height="24" viewBox="0 0 24 24" fill="none" xmlns="http://www.w3.org/2000/svg">
<g clip-path="url(#clip0_1131_4857)">
<path fill-rule="evenodd" clip-rule="evenodd" d="M8.60671 16.8956C8.60676 16.8956 8.60666 16.8955 8.60671 16.8956L11.9388 20.2287C11.9389 20.2287 11.9387 20.2286 11.9388 20.2287C11.9717 20.2613 12.0249 20.2614 12.0577 20.2289C12.0578 20.2288 12.0577 20.2289 12.0577 20.2289L15.39 16.8956C15.3901 16.8955 15.39 16.8956 15.39 16.8956C15.4139 16.8715 15.4212 16.8352 15.4082 16.8038C15.3952 16.7724 15.3647 16.7518 15.3307 16.7517H8.66597C8.63203 16.7518 8.60148 16.7724 8.58849 16.8038C8.57549 16.8352 8.58277 16.8715 8.60671 16.8956ZM16.452 17.9549C16.9039 17.5019 17.0389 16.8214 16.7942 16.2301C16.5494 15.6388 15.973 15.2528 15.3331 15.2517L8.66497 15.2517C8.02502 15.2528 7.44727 15.6388 7.20252 16.2301C6.95778 16.8214 7.09279 17.5019 7.54474 17.9549L10.8787 21.2899C11.4971 21.9068 12.4989 21.9075 13.1173 21.2906L16.452 17.9549Z" fill="white"/>
<path fill-rule="evenodd" clip-rule="evenodd" d="M3.24609 12C3.24609 11.5858 3.58188 11.25 3.99609 11.25L20.0028 11.25C20.417 11.25 20.7528 11.5858 20.7528 12C20.7528 12.4142 20.417 12.75 20.0028 12.75L3.99609 12.75C3.58188 12.75 3.24609 12.4142 3.24609 12Z" fill="white"/>
<path fill-rule="evenodd" clip-rule="evenodd" d="M8.60657 7.10452C8.58262 7.12864 8.57548 7.16478 8.58849 7.1962C8.60148 7.22759 8.63202 7.24811 8.66597 7.24829H15.3308C15.3647 7.24811 15.3952 7.22759 15.4082 7.1962C15.4212 7.16479 15.4141 7.12866 15.3902 7.10454C15.3901 7.10449 15.3902 7.1046 15.3902 7.10454L12.0579 3.77129C12.0579 3.77122 12.058 3.77136 12.0579 3.77129C12.0251 3.73873 11.9719 3.73852 11.939 3.77108C11.9389 3.77115 11.9391 3.77101 11.939 3.77108L8.60657 7.10452C8.60652 7.10456 8.60662 7.10447 8.60657 7.10452ZM7.20252 7.76987C6.95778 7.17857 7.09279 6.49809 7.54474 6.04502L10.8787 2.71006C11.4971 2.09317 12.4989 2.09244 13.1173 2.70932L16.4514 6.04445C16.9034 6.49752 17.0389 7.17857 16.7942 7.76987C16.5494 8.36118 15.973 8.74718 15.3331 8.74829L8.66497 8.74829C8.02502 8.74718 7.44727 8.36118 7.20252 7.76987Z" fill="white"/>
</g>
<defs>
<clipPath id="clip0_1131_4857">
<rect width="24" height="24" fill="white"/>
</clipPath>
</defs>
</svg>
