<svg width="29" height="29" viewBox="0 0 29 29" fill="none" xmlns="http://www.w3.org/2000/svg">
<path fill-rule="evenodd" clip-rule="evenodd" d="M14.5013 10.8503C10.7964 10.8503 7.79297 13.8538 7.79297 17.5587C7.79297 21.2636 10.7964 24.267 14.5013 24.267C18.2062 24.267 21.2096 21.2636 21.2096 17.5587C21.2096 13.8538 18.2062 10.8503 14.5013 10.8503ZM6.04297 17.5587C6.04297 12.8873 9.82989 9.10034 14.5013 9.10034C19.1727 9.10034 22.9596 12.8873 22.9596 17.5587C22.9596 22.2301 19.1727 26.017 14.5013 26.017C9.82989 26.017 6.04297 22.2301 6.04297 17.5587Z" fill="white"/>
<path fill-rule="evenodd" clip-rule="evenodd" d="M14.4987 15.5171C13.3711 15.5171 12.457 16.4312 12.457 17.5588C12.457 18.6863 13.3711 19.6004 14.4987 19.6004C15.6263 19.6004 16.5404 18.6863 16.5404 17.5588C16.5404 16.4312 15.6263 15.5171 14.4987 15.5171ZM10.707 17.5588C10.707 15.4647 12.4046 13.7671 14.4987 13.7671C16.5928 13.7671 18.2904 15.4647 18.2904 17.5588C18.2904 19.6528 16.5928 21.3504 14.4987 21.3504C12.4046 21.3504 10.707 19.6528 10.707 17.5588Z" fill="white"/>
<path fill-rule="evenodd" clip-rule="evenodd" d="M19.6805 5.01709C19.5853 5.0171 19.4961 5.06353 19.4416 5.1415L15.6974 10.4904C15.4202 10.8863 14.8747 10.9826 14.4788 10.7054C14.0829 10.4283 13.9866 9.88272 14.2637 9.48683L18.0079 4.13794C18.39 3.59216 19.0143 3.26711 19.6805 3.26709H23.8323C24.5936 3.26709 25.2917 3.69065 25.6433 4.3659C25.9948 5.04115 25.9415 5.85592 25.5049 6.47959L20.9075 13.0473C20.6304 13.4431 20.0848 13.5394 19.6889 13.2623C19.293 12.9852 19.1967 12.4396 19.4739 12.0437L24.0713 5.47602C24.1337 5.38693 24.1413 5.27053 24.0911 5.17406C24.0408 5.0776 23.9411 5.01709 23.8323 5.01709H19.6805C19.6805 5.01709 19.6805 5.01709 19.6805 5.01709Z" fill="white"/>
<path fill-rule="evenodd" clip-rule="evenodd" d="M5.17059 3.26709C5.17059 3.26709 5.17058 3.26709 5.17059 3.26709H9.32245C9.98867 3.26709 10.613 3.59215 10.995 4.13794L14.7392 9.48683C15.0163 9.88273 14.9201 10.4283 14.5242 10.7054C14.1283 10.9826 13.5827 10.8863 13.3056 10.4904L9.56138 5.1415C9.50681 5.06353 9.41762 5.01709 9.32245 5.01709H5.17058C5.06183 5.01709 4.9621 5.0776 4.91188 5.17406C4.86165 5.27053 4.86927 5.38692 4.93164 5.47602L9.52905 12.0437C9.80618 12.4396 9.7099 12.9852 9.31401 13.2623C8.91812 13.5394 8.37253 13.4431 8.0954 13.0473L3.49799 6.47959C3.49799 6.47959 3.49799 6.47959 3.49799 6.47959C3.06141 5.85592 3.00809 5.04115 3.35966 4.3659C3.71123 3.69065 4.40929 3.26709 5.17059 3.26709Z" fill="white"/>
</svg>
