<svg width="60" height="61" viewBox="0 0 60 61" fill="none" xmlns="http://www.w3.org/2000/svg">
<path fill-rule="evenodd" clip-rule="evenodd" d="M30 22.3747C22.0609 22.3747 15.625 28.8106 15.625 36.7497C15.625 44.6888 22.0609 51.1247 30 51.1247C37.9391 51.1247 44.375 44.6888 44.375 36.7497C44.375 28.8106 37.9391 22.3747 30 22.3747ZM11.875 36.7497C11.875 26.7395 19.9898 18.6247 30 18.6247C40.0102 18.6247 48.125 26.7395 48.125 36.7497C48.125 46.7599 40.0102 54.8747 30 54.8747C19.9898 54.8747 11.875 46.7599 11.875 36.7497Z" fill="white"/>
<path fill-rule="evenodd" clip-rule="evenodd" d="M30 32.375C27.5838 32.375 25.625 34.3338 25.625 36.75C25.625 39.1662 27.5838 41.125 30 41.125C32.4162 41.125 34.375 39.1662 34.375 36.75C34.375 34.3338 32.4162 32.375 30 32.375ZM21.875 36.75C21.875 32.2627 25.5127 28.625 30 28.625C34.4873 28.625 38.125 32.2627 38.125 36.75C38.125 41.2373 34.4873 44.875 30 44.875C25.5127 44.875 21.875 41.2373 21.875 36.75Z" fill="white"/>
<path fill-rule="evenodd" clip-rule="evenodd" d="M41.0988 9.875C40.8949 9.87502 40.7038 9.97452 40.5868 10.1416L32.5636 21.6035C31.9697 22.4518 30.8006 22.6581 29.9523 22.0643C29.1039 21.4705 28.8976 20.3014 29.4914 19.453L37.5147 7.99111C38.3334 6.82158 39.6712 6.12503 41.0988 6.125H49.9957C51.627 6.12499 53.1228 7.03263 53.8762 8.47959C54.6296 9.92655 54.5153 11.6725 53.5798 13.0089L43.7282 27.0825C43.1343 27.9308 41.9652 28.1371 41.1169 27.5433C40.2685 26.9495 40.0622 25.7803 40.6561 24.932L50.5077 10.8584C50.6413 10.6675 50.6577 10.4181 50.55 10.2114C50.4424 10.0047 50.2287 9.875 49.9957 9.875H41.0988C41.0988 9.875 41.0988 9.875 41.0988 9.875Z" fill="white"/>
<path fill-rule="evenodd" clip-rule="evenodd" d="M10.0039 6.125C10.0039 6.125 10.0039 6.125 10.0039 6.125H18.9008C20.3284 6.12501 21.6662 6.82156 22.4849 7.99111L30.5081 19.453C31.102 20.3014 30.8957 21.4705 30.0473 22.0643C29.199 22.6581 28.0298 22.4518 27.436 21.6035L19.4128 10.1416C19.2958 9.97451 19.1047 9.875 18.9008 9.875H10.0039C9.77088 9.875 9.55718 10.0047 9.44955 10.2114C9.34193 10.4181 9.35825 10.6675 9.4919 10.8584L19.3435 24.932C19.9374 25.7803 19.731 26.9495 18.8827 27.5433C18.0344 28.1371 16.8652 27.9308 16.2714 27.0825L6.4198 13.0089C6.4198 13.0089 6.4198 13.0089 6.4198 13.0089C5.48428 11.6725 5.37002 9.92655 6.12338 8.47959C6.87674 7.03263 8.37259 6.125 10.0039 6.125Z" fill="white"/>
</svg>
