<svg width="16" height="16" viewBox="0 0 16 16" fill="none" xmlns="http://www.w3.org/2000/svg">
<path d="M14 3.83008H12C11.72 3.83008 11.5 3.61008 11.5 3.33008C11.5 3.05008 11.72 2.83008 12 2.83008H14C14.28 2.83008 14.5 3.05008 14.5 3.33008C14.5 3.61008 14.28 3.83008 14 3.83008Z" fill="#555D72"/>
<path d="M9.33 3.83008H2C1.72 3.83008 1.5 3.61008 1.5 3.33008C1.5 3.05008 1.72 2.83008 2 2.83008H9.33C9.61 2.83008 9.83 3.05008 9.83 3.33008C9.83 3.61008 9.61 3.83008 9.33 3.83008Z" fill="#555D72"/>
<path d="M13.9999 8.5H6.66992C6.38992 8.5 6.16992 8.28 6.16992 8C6.16992 7.72 6.38992 7.5 6.66992 7.5H13.9999C14.2799 7.5 14.4999 7.72 14.4999 8C14.4999 8.28 14.2799 8.5 13.9999 8.5Z" fill="#555D72"/>
<path d="M4 8.5H2C1.72 8.5 1.5 8.28 1.5 8C1.5 7.72 1.72 7.5 2 7.5H4C4.28 7.5 4.5 7.72 4.5 8C4.5 8.28 4.28 8.5 4 8.5Z" fill="#555D72"/>
<path d="M14 13.1699H12C11.72 13.1699 11.5 12.9499 11.5 12.6699C11.5 12.3899 11.72 12.1699 12 12.1699H14C14.28 12.1699 14.5 12.3899 14.5 12.6699C14.5 12.9499 14.28 13.1699 14 13.1699Z" fill="#555D72"/>
<path d="M9.33 13.1699H2C1.72 13.1699 1.5 12.9499 1.5 12.6699C1.5 12.3899 1.72 12.1699 2 12.1699H9.33C9.61 12.1699 9.83 12.3899 9.83 12.6699C9.83 12.9499 9.61 13.1699 9.33 13.1699Z" fill="#555D72"/>
<path d="M10.6701 5.16995C10.1801 5.16995 9.72008 4.97995 9.37008 4.62995C9.02008 4.27995 8.83008 3.81995 8.83008 3.32995C8.83008 2.83995 9.02008 2.37995 9.37008 2.02995C10.0601 1.33995 11.2701 1.33995 11.9601 2.02995C12.3101 2.37995 12.5001 2.83995 12.5001 3.32995C12.5001 3.81995 12.3101 4.27995 11.9601 4.62995C11.6101 4.97995 11.1501 5.16995 10.6601 5.16995H10.6701ZM10.6701 2.49995C10.4501 2.49995 10.2401 2.58995 10.0801 2.73995C9.92008 2.89995 9.84008 3.10995 9.84008 3.32995C9.84008 3.54995 9.93008 3.75995 10.0801 3.91995C10.3901 4.22995 10.9401 4.22995 11.2601 3.91995C11.4201 3.75995 11.5001 3.54995 11.5001 3.32995C11.5001 3.10995 11.4101 2.89995 11.2601 2.73995C11.1001 2.57995 10.8901 2.49995 10.6701 2.49995Z" fill="#555D72"/>
<path d="M5.33055 9.82998C4.84055 9.82998 4.38055 9.63998 4.03055 9.28998C3.32055 8.57998 3.32055 7.40998 4.03055 6.69998C4.74055 5.98998 5.91055 5.98998 6.62055 6.69998C7.33055 7.41998 7.33055 8.57998 6.62055 9.28998C6.27055 9.63998 5.81055 9.82998 5.32055 9.82998H5.33055ZM5.33055 7.15998C5.12055 7.15998 4.90055 7.23998 4.74055 7.39998C4.42055 7.72998 4.42055 8.24998 4.74055 8.57998C5.05055 8.89998 5.60055 8.88998 5.92055 8.57998C6.24055 8.25998 6.24055 7.72998 5.92055 7.39998C5.76055 7.23998 5.54055 7.15998 5.33055 7.15998Z" fill="#555D72"/>
<path d="M10.6701 14.5C10.1801 14.5 9.72008 14.31 9.37008 13.96C9.02008 13.61 8.83008 13.15 8.83008 12.66C8.83008 12.17 9.02008 11.71 9.37008 11.36C10.0601 10.67 11.2701 10.67 11.9601 11.36C12.3101 11.71 12.5001 12.17 12.5001 12.66C12.5001 13.15 12.3101 13.61 11.9601 13.96C11.6101 14.31 11.1501 14.5 10.6601 14.5H10.6701ZM10.6701 11.83C10.4501 11.83 10.2401 11.92 10.0801 12.07C9.92008 12.23 9.84008 12.44 9.84008 12.66C9.84008 12.88 9.93008 13.09 10.0801 13.25C10.4001 13.57 10.9401 13.57 11.2601 13.25C11.4201 13.09 11.5001 12.88 11.5001 12.66C11.5001 12.44 11.4101 12.23 11.2601 12.07C11.1001 11.91 10.8901 11.83 10.6701 11.83Z" fill="#555D72"/>
</svg>
