<svg width="24" height="24" viewBox="0 0 24 24" fill="none" xmlns="http://www.w3.org/2000/svg">
<path d="M21 5.75H18C17.59 5.75 17.25 5.41 17.25 5C17.25 4.59 17.59 4.25 18 4.25H21C21.41 4.25 21.75 4.59 21.75 5C21.75 5.41 21.41 5.75 21 5.75Z" fill="white"/>
<path d="M14 5.75H3C2.59 5.75 2.25 5.41 2.25 5C2.25 4.59 2.59 4.25 3 4.25H14C14.41 4.25 14.75 4.59 14.75 5C14.75 5.41 14.41 5.75 14 5.75Z" fill="white"/>
<path d="M21 12.75H10C9.59 12.75 9.25 12.41 9.25 12C9.25 11.59 9.59 11.25 10 11.25H21C21.41 11.25 21.75 11.59 21.75 12C21.75 12.41 21.41 12.75 21 12.75Z" fill="white"/>
<path d="M6 12.75H3C2.59 12.75 2.25 12.41 2.25 12C2.25 11.59 2.59 11.25 3 11.25H6C6.41 11.25 6.75 11.59 6.75 12C6.75 12.41 6.41 12.75 6 12.75Z" fill="white"/>
<path d="M21 19.75H18C17.59 19.75 17.25 19.41 17.25 19C17.25 18.59 17.59 18.25 18 18.25H21C21.41 18.25 21.75 18.59 21.75 19C21.75 19.41 21.41 19.75 21 19.75Z" fill="white"/>
<path d="M14 19.75H3C2.59 19.75 2.25 19.41 2.25 19C2.25 18.59 2.59 18.25 3 18.25H14C14.41 18.25 14.75 18.59 14.75 19C14.75 19.41 14.41 19.75 14 19.75Z" fill="white"/>
<path d="M16.0003 7.75007C15.3003 7.75007 14.5903 7.48007 14.0603 6.95007C12.9903 5.88007 12.9903 4.13007 14.0603 3.06007C15.1303 1.99007 16.8803 1.99007 17.9503 3.06007C19.0203 4.13007 19.0203 5.88007 17.9503 6.95007C17.4103 7.49007 16.7103 7.75007 16.0103 7.75007H16.0003ZM16.0003 3.75007C15.6803 3.75007 15.3603 3.87007 15.1203 4.12007C14.6303 4.61007 14.6303 5.40007 15.1203 5.89007C15.6103 6.38007 16.4003 6.38007 16.8903 5.89007C17.3803 5.40007 17.3803 4.61007 16.8903 4.12007C16.6503 3.88007 16.3303 3.75007 16.0103 3.75007H16.0003Z" fill="white"/>
<path d="M8.00031 14.7501C7.30031 14.7501 6.59031 14.4801 6.06031 13.9501C4.99031 12.8801 4.99031 11.1301 6.06031 10.0601C7.13031 8.99007 8.88031 8.99007 9.95031 10.0601C11.0203 11.1301 11.0203 12.8801 9.95031 13.9501C9.41031 14.4901 8.71031 14.7501 8.01031 14.7501H8.00031ZM8.00031 10.7501C7.68031 10.7501 7.36031 10.8701 7.12031 11.1201C6.63031 11.6101 6.63031 12.4001 7.12031 12.8901C7.61031 13.3801 8.40031 13.3801 8.89031 12.8901C9.38031 12.4001 9.38031 11.6101 8.89031 11.1201C8.65031 10.8801 8.33031 10.7501 8.01031 10.7501H8.00031Z" fill="white"/>
<path d="M16.0003 21.7501C15.3003 21.7501 14.5903 21.4801 14.0603 20.9501C12.9903 19.8801 12.9903 18.1301 14.0603 17.0601C15.1303 15.9901 16.8803 15.9901 17.9503 17.0601C19.0203 18.1301 19.0203 19.8801 17.9503 20.9501C17.4103 21.4901 16.7103 21.7501 16.0103 21.7501H16.0003ZM16.0003 17.7501C15.6803 17.7501 15.3603 17.8701 15.1203 18.1201C14.6303 18.6101 14.6303 19.4001 15.1203 19.8901C15.6103 20.3801 16.4003 20.3801 16.8903 19.8901C17.3803 19.4001 17.3803 18.6101 16.8903 18.1201C16.6503 17.8801 16.3303 17.7501 16.0103 17.7501H16.0003Z" fill="white"/>
</svg>
