<svg width="24" height="24" viewBox="0 0 24 24" fill="none" xmlns="http://www.w3.org/2000/svg">
<g clip-path="url(#clip0_1615_9082)">
<path d="M9.95385 14H4.81538C4.07692 14 3.35385 13.6871 2.83077 13.1551C2.30769 12.6232 2 11.8879 2 11.1213V4.8631C2 4.11213 2.30769 3.37679 2.83077 2.84485C3.35385 2.31291 4.07692 2 4.81538 2H19.1846C19.9231 2 20.6462 2.31291 21.1692 2.84485C21.6923 3.37679 22 4.11213 22 4.8631V7.99218C22 8.43025 21.6615 8.77445 21.2308 8.77445C20.8 8.77445 20.4615 8.43025 20.4615 7.99218V4.8631C20.4615 4.5189 20.3231 4.19035 20.0923 3.94003C19.8615 3.70535 19.5231 3.56454 19.1846 3.56454H4.81538C4.47692 3.56454 4.15385 3.70535 3.90769 3.94003C3.67692 4.17471 3.53846 4.5189 3.53846 4.8631V11.1213C3.53846 11.4811 3.67692 11.8096 3.90769 12.06C4.13846 12.2947 4.47692 12.4355 4.81538 12.4355H9.95385C10.3846 12.4355 10.7231 12.7797 10.7231 13.2177C10.7231 13.6558 10.3846 14 9.95385 14Z" fill="#3239F4"/>
<path fill-rule="evenodd" clip-rule="evenodd" d="M17.7054 7.28892C17.3148 6.90099 16.684 6.90141 16.2939 7.29019L16.2939 7.29019L16.293 7.29108C16.0069 7.57715 15.9213 8.0074 16.0762 8.38118C16.231 8.75497 16.5957 8.99869 17.0003 8.99869C17.4049 8.99869 17.7696 8.75497 17.9245 8.38118C18.0793 8.0074 17.9937 7.57715 17.7076 7.29108" fill="#3239F4"/>
<path fill-rule="evenodd" clip-rule="evenodd" d="M12.7054 7.28892C12.3148 6.90099 11.684 6.90141 11.2939 7.29019L11.2939 7.29019L11.293 7.29108C11.0069 7.57715 10.9213 8.0074 11.0762 8.38118C11.231 8.75497 11.5957 8.99869 12.0003 8.99869C12.4049 8.99869 12.7696 8.75497 12.9245 8.38118C13.0793 8.0074 12.9937 7.57715 12.7076 7.29108" fill="#3239F4"/>
<path fill-rule="evenodd" clip-rule="evenodd" d="M7.70349 7.28892C7.31287 6.90099 6.68206 6.90141 6.29196 7.29019L6.29196 7.29019L6.29107 7.29108C6.00498 7.57715 5.91939 8.0074 6.07421 8.38118C6.22904 8.75497 6.59378 8.99869 6.99836 8.99869C7.40294 8.99869 7.76768 8.75497 7.92251 8.38118C8.07733 8.0074 7.99174 7.57715 7.70565 7.29108" fill="#3239F4"/>
<path fill-rule="evenodd" clip-rule="evenodd" d="M14.7133 11.2353C16.4841 9.92873 18.8975 9.92054 20.6771 11.2151C22.4568 12.5097 23.1921 14.8083 22.4942 16.8954C21.7966 18.9819 19.8275 20.3757 17.6279 20.3403C17.2575 20.3359 16.8894 20.2896 16.5305 20.2025L14.5224 22.2148C14.5221 22.2151 14.5217 22.2155 14.5214 22.2158C14.179 22.5608 13.7129 22.7547 13.2268 22.7543H12.079C11.0689 22.7543 10.25 21.9354 10.25 20.9253L10.25 19.7808C10.251 19.2977 10.4423 18.8344 10.7825 18.4914L10.7841 18.4897L12.8015 16.4682C12.3336 14.5141 13.0719 12.4465 14.7133 11.2353ZM19.7947 12.4281C18.5442 11.5184 16.8482 11.5242 15.6039 12.4423C14.3595 13.3605 13.8538 14.9793 14.3541 16.4425C14.3808 16.5207 14.3944 16.6026 14.3944 16.6852C14.3944 16.8838 14.3156 17.0744 14.1753 17.215L11.8475 19.5477C11.8473 19.5479 11.8477 19.5475 11.8475 19.5477C11.7857 19.6103 11.7503 19.6953 11.75 19.7833V20.9253C11.75 21.107 11.8973 21.2543 12.079 21.2543H13.2268C13.3128 21.2545 13.3963 21.2201 13.4569 21.159L13.4587 21.1571L15.7833 18.8277C15.9871 18.6235 16.2898 18.5543 16.562 18.6496C16.9109 18.7717 17.2773 18.8362 17.6469 18.8405L17.6506 18.8405C19.1968 18.866 20.5812 17.8864 21.0716 16.4197C21.562 14.9531 21.0453 13.3378 19.7947 12.4281Z" fill="#3239F4"/>
<path fill-rule="evenodd" clip-rule="evenodd" d="M16.7627 15.366C16.7627 14.8827 17.1545 14.491 17.6377 14.491C18.121 14.491 18.5128 14.8827 18.5128 15.366C18.5128 15.8493 18.121 16.2411 17.6377 16.2411C17.1545 16.2411 16.7627 15.8493 16.7627 15.366Z" fill="#3239F4"/>
</g>
<defs>
<clipPath id="clip0_1615_9082">
<rect width="24" height="24" fill="white"/>
</clipPath>
</defs>
</svg>
