<svg width="32" height="32" viewBox="0 0 32 32" fill="none" xmlns="http://www.w3.org/2000/svg">
<path fill-rule="evenodd" clip-rule="evenodd" d="M27.0186 13.4049C26.3558 12.7421 25.2811 12.7421 24.6182 13.4049L23.9413 12.728L24.6182 13.4049C23.9554 14.0678 23.9554 15.1425 24.6182 15.8053L23.9111 16.5124L24.6182 15.8053C25.2811 16.4682 26.3558 16.4682 27.0186 15.8053C27.6815 15.1425 27.6815 14.0678 27.0186 13.4049ZM28.4328 11.9907C29.8767 13.4346 29.8767 15.7756 28.4328 17.2195C26.9889 18.6634 24.6479 18.6634 23.204 17.2195C21.7601 15.7756 21.7601 13.4346 23.204 11.9907C24.6479 10.5468 26.9889 10.5468 28.4328 11.9907Z" fill="white"/>
<path fill-rule="evenodd" clip-rule="evenodd" d="M18.2307 8.59015C16.9993 7.3587 15.0027 7.35871 13.7712 8.59015C12.5398 9.82161 12.5398 11.8182 13.7712 13.0496C15.0027 14.2811 16.9993 14.2811 18.2307 13.0496C19.4622 11.8182 19.4622 9.8216 18.2307 8.59015C18.2307 8.59015 18.2307 8.59015 18.2307 8.59015ZM12.357 7.17594C14.3695 5.16344 17.6324 5.16344 19.6449 7.17594L19.6449 7.17594C21.6574 9.18844 21.6574 12.4513 19.645 14.4639L19.6449 14.4639C17.6324 16.4764 14.3695 16.4764 12.357 14.4639L12.357 14.4639C10.3445 12.4514 10.3445 9.18845 12.357 7.17594L12.357 7.17594Z" fill="white"/>
<path fill-rule="evenodd" clip-rule="evenodd" d="M7.3819 13.4049C6.71905 12.7421 5.64436 12.7421 4.98151 13.4049L4.30462 12.728L4.98151 13.4049C4.31866 14.0678 4.31866 15.1425 4.98151 15.8053L4.27441 16.5124L4.98151 15.8053C5.64436 16.4682 6.71905 16.4682 7.3819 15.8053C8.04475 15.1425 8.04475 14.0678 7.3819 13.4049ZM8.79611 11.9907C10.24 13.4346 10.24 15.7756 8.79611 17.2195C7.35221 18.6634 5.0112 18.6634 3.5673 17.2195C2.1234 15.7756 2.1234 13.4346 3.5673 11.9907C5.0112 10.5468 7.35222 10.5468 8.79611 11.9907Z" fill="white"/>
<path fill-rule="evenodd" clip-rule="evenodd" d="M25.2656 20.5386C25.2656 19.9864 25.7133 19.5386 26.2656 19.5386H27.3336C29.7272 19.5386 31.667 21.4784 31.667 23.872V25.3333C31.667 25.8856 31.2192 26.3333 30.667 26.3333C30.1147 26.3333 29.667 25.8856 29.667 25.3333V23.872C29.667 22.5829 28.6227 21.5386 27.3336 21.5386H26.2656C25.7133 21.5386 25.2656 21.0909 25.2656 20.5386Z" fill="white"/>
<path fill-rule="evenodd" clip-rule="evenodd" d="M4.66927 21.5386C3.38022 21.5386 2.33594 22.5829 2.33594 23.872V25.3333C2.33594 25.8856 1.88822 26.3333 1.33594 26.3333C0.783653 26.3333 0.335938 25.8856 0.335938 25.3333V23.872C0.335938 21.4784 2.27565 19.5386 4.66927 19.5386H5.73727C6.28956 19.5386 6.73727 19.9864 6.73727 20.5386C6.73727 21.0909 6.28956 21.5386 5.73727 21.5386H4.66927Z" fill="white"/>
<path fill-rule="evenodd" clip-rule="evenodd" d="M7.87891 23.1985C7.87891 20.0688 10.416 17.5318 13.5456 17.5318H18.4509C21.5805 17.5318 24.1176 20.0688 24.1176 23.1985V25.3331C24.1176 25.8854 23.6699 26.3331 23.1176 26.3331C22.5653 26.3331 22.1176 25.8854 22.1176 25.3331V23.1985C22.1176 21.1734 20.476 19.5318 18.4509 19.5318H13.5456C11.5205 19.5318 9.87891 21.1734 9.87891 23.1985V25.3331C9.87891 25.8854 9.43119 26.3331 8.87891 26.3331C8.32662 26.3331 7.87891 25.8854 7.87891 25.3331V23.1985Z" fill="white"/>
</svg>
