<svg width="24" height="24" viewBox="0 0 24 24" fill="none" xmlns="http://www.w3.org/2000/svg">
<path d="M9 6.25L8.61075 4.88762C8.33925 3.93739 9.19803 3.04951 10.1568 3.28919V3.28919C11.3462 3.58655 12.6028 3.44862 13.6994 2.90032L14.3393 2.58036C15.0049 2.24757 15.7586 2.8361 15.5972 3.56254L15 6.25" stroke="#555D72" stroke-width="1.5"/>
<path d="M5.40137 7.64312C5.40137 6.86267 6.03405 6.22998 6.81451 6.22998H17.1776C17.958 6.22998 18.5907 6.86267 18.5907 7.64312C18.5907 8.42358 17.958 9.05627 17.1776 9.05627H6.81451C6.03405 9.05627 5.40137 8.42358 5.40137 7.64312Z" stroke="#555D72" stroke-width="1.5"/>
<path d="M16.2568 9.21887L19.4862 14.9304C21.3972 18.31 18.8268 22.4082 14.7961 22.4082H9.1946C5.16393 22.4082 2.59355 18.31 4.50449 14.9304L7.73389 9.21887" stroke="#555D72" stroke-width="1.5"/>
</svg>
