<svg width="60" height="61" viewBox="0 0 60 61" fill="none" xmlns="http://www.w3.org/2000/svg">
<path fill-rule="evenodd" clip-rule="evenodd" d="M40.395 9.875C48.0149 9.875 53.4375 17.1207 53.4375 24.185C53.4375 31.5664 48.8136 38.3033 43.2727 43.3208C40.5311 45.8034 37.6438 47.7904 35.1644 49.1471C33.9245 49.8256 32.8096 50.3338 31.8859 50.6676C30.9245 51.0151 30.3017 51.125 30 51.125C29.6983 51.125 29.0754 51.0151 28.1141 50.6676C27.1904 50.3338 26.0755 49.8256 24.8356 49.1471C22.3562 47.7904 19.4689 45.8034 16.7273 43.3208C11.1864 38.3033 6.5625 31.5664 6.5625 24.185C6.5625 17.1207 11.9851 9.875 19.605 9.875C24.0084 9.875 26.88 12.0474 28.5745 14.0305C28.9307 14.4474 29.4516 14.6875 30 14.6875C30.5484 14.6875 31.0693 14.4474 31.4255 14.0305C33.12 12.0474 35.9916 9.875 40.395 9.875ZM57.1875 24.185C57.1875 15.6393 50.6301 6.125 40.395 6.125C35.6926 6.125 32.2843 8.03847 30 10.1215C27.7157 8.03847 24.3074 6.125 19.605 6.125C9.36988 6.125 2.8125 15.6393 2.8125 24.185C2.8125 33.1186 8.34487 40.7892 14.2102 46.1005C17.1717 48.7822 20.3 50.9399 23.0355 52.4368C24.403 53.1851 25.6954 53.7809 26.8395 54.1944C27.946 54.5943 29.0517 54.875 30 54.875C30.9483 54.875 32.054 54.5943 33.1605 54.1944C34.3046 53.7809 35.597 53.1851 36.9645 52.4368C39.6999 50.9399 42.8283 48.7822 45.7898 46.1005C51.6551 40.7892 57.1875 33.1186 57.1875 24.185Z" fill="white"/>
<path fill-rule="evenodd" clip-rule="evenodd" d="M32.6184 21.1318C31.9373 21.1898 31.3417 21.6139 31.0641 22.2386L26.8925 31.6254L24.615 28.2098C24.2672 27.6883 23.6819 27.375 23.055 27.375L17.5 27.375C16.4645 27.375 15.625 28.2145 15.625 29.25C15.625 30.2855 16.4645 31.125 17.5 31.125L22.0516 31.125L25.6625 36.5402C26.0417 37.109 26.7005 37.4263 27.3816 37.3683C28.0627 37.3102 28.6583 36.8861 28.9359 36.2615L33.1075 26.8746L35.385 30.2902C35.7328 30.8118 36.3181 31.125 36.945 31.125L42.5 31.125C43.5355 31.125 44.375 30.2856 44.375 29.25C44.375 28.2145 43.5355 27.375 42.5 27.375L37.9484 27.375L34.3375 21.9598C33.9583 21.3911 33.2995 21.0738 32.6184 21.1318Z" fill="white"/>
</svg>
