<svg width="16" height="16" viewBox="0 0 16 16" fill="none" xmlns="http://www.w3.org/2000/svg">
<path fill-rule="evenodd" clip-rule="evenodd" d="M7.37202 3.1665C5.04911 3.1665 3.16602 5.04959 3.16602 7.3725C3.16602 9.69541 5.04911 11.5785 7.37202 11.5785C9.69492 11.5785 11.578 9.69541 11.578 7.3725C11.578 5.04959 9.69492 3.1665 7.37202 3.1665ZM2.16602 7.3725C2.16602 4.49731 4.49682 2.1665 7.37202 2.1665C10.2472 2.1665 12.578 4.49731 12.578 7.3725C12.578 10.2477 10.2472 12.5785 7.37202 12.5785C4.49682 12.5785 2.16602 10.2477 2.16602 7.3725Z" fill="#A4AABB"/>
<path fill-rule="evenodd" clip-rule="evenodd" d="M10.3457 10.3462C10.5409 10.1509 10.8575 10.1509 11.0528 10.3462L13.6861 12.9795C13.8814 13.1747 13.8814 13.4913 13.6861 13.6866C13.4908 13.8819 13.1743 13.8819 12.979 13.6866L10.3457 11.0533C10.1504 10.858 10.1504 10.5414 10.3457 10.3462Z" fill="#A4AABB"/>
</svg>
