<svg width="16" height="16" viewBox="0 0 16 16" fill="none" xmlns="http://www.w3.org/2000/svg">
<g clip-path="url(#clip0_1152_5372)">
<path fill-rule="evenodd" clip-rule="evenodd" d="M7.17439 7.17496C7.63 6.71935 8.36869 6.71935 8.82431 7.17496L9.17786 6.82141L8.82431 7.17496C9.27992 7.63057 9.27992 8.36926 8.82431 8.82487C8.3687 9.28049 7.63001 9.28049 7.17439 8.82487C6.71878 8.36926 6.71878 7.63057 7.17439 7.17496ZM6.46729 6.46785C5.62115 7.31399 5.62115 8.68585 6.46729 9.53198C7.31342 10.3781 8.68528 10.3781 9.53141 9.53198C10.3775 8.68584 10.3775 7.31399 9.53141 6.46785C8.68528 5.62172 7.31342 5.62172 6.46729 6.46785Z" fill="white"/>
<path fill-rule="evenodd" clip-rule="evenodd" d="M5.39564 1.92732C4.63198 2.18187 4.1152 2.89685 4.1152 3.70333V4.13625L3.68259 4.14555C2.9872 4.1602 2.35756 4.55989 2.04744 5.18012L1.86411 5.54679C1.50351 6.26797 1.64523 7.13824 2.21476 7.70777L2.52109 8.01411L2.22083 8.32783C2.22085 8.32781 2.22081 8.32785 2.22083 8.32783C1.7406 8.82955 1.57704 9.55556 1.7973 10.2153C1.79733 10.2153 1.79728 10.2152 1.7973 10.2153L1.92636 10.6031C2.18091 11.3667 2.89605 11.884 3.70253 11.884H4.13546L4.14475 12.3166C4.1594 13.012 4.55909 13.6416 5.17932 13.9518L5.54599 14.1351C6.26718 14.4957 7.13744 14.354 7.70697 13.7844L8.01331 13.4781L8.32703 13.7784C8.82874 14.2586 9.55468 14.4222 10.2144 14.2019C10.2145 14.2019 10.2143 14.202 10.2144 14.2019L10.6023 14.0728C11.3659 13.8183 11.8832 13.1031 11.8832 12.2967V11.8637L12.3158 11.8545C13.0112 11.8398 13.6408 11.4401 13.951 10.8199L14.1343 10.4532C14.4949 9.73203 14.3532 8.86176 13.7836 8.29223L13.4773 7.9859L13.7775 7.67222C14.2579 7.1705 14.4223 6.44408 14.2018 5.7842C14.2017 5.78387 14.2016 5.78354 14.2015 5.7832L14.0727 5.39626C13.8182 4.6326 13.103 4.11533 12.2965 4.11533H11.8636L11.8542 3.6786C11.8371 2.98759 11.4411 2.35859 10.8191 2.04757L10.4524 1.86424C9.73123 1.50365 8.86096 1.64536 8.29143 2.21489L7.9851 2.52123L7.6703 2.21993C7.1691 1.74158 6.44325 1.57782 5.78414 1.79804C5.78378 1.79816 5.78343 1.79828 5.78307 1.7984L5.39564 1.92732ZM6.10053 2.74667C6.4072 2.644 6.74587 2.72 6.97987 2.94333L7.38387 3.33C7.72653 3.658 8.26853 3.652 8.60387 3.31667L8.99853 2.922C9.26387 2.65667 9.6692 2.59067 10.0052 2.75867L10.3719 2.942C10.6612 3.08667 10.8465 3.38 10.8545 3.70333L10.8665 4.262C10.8765 4.73667 11.2639 5.11533 11.7385 5.11533H12.2965C12.6719 5.11533 13.0052 5.356 13.1239 5.712L13.2532 6.10067C13.3559 6.40733 13.2799 6.746 13.0552 6.98067L12.6685 7.38467C12.3405 7.72733 12.3465 8.26933 12.6819 8.60467L13.0765 8.99933C13.3419 9.26467 13.4079 9.67 13.2399 10.006L13.0565 10.3727C12.9119 10.662 12.6185 10.848 12.2952 10.8547L11.7365 10.8667C11.2619 10.8767 10.8832 11.264 10.8832 11.7387V12.2967C10.8832 12.672 10.6425 13.0053 10.2865 13.124L9.89787 13.2533C9.59053 13.356 9.25253 13.28 9.01853 13.056L8.61453 12.6693C8.27187 12.3413 7.72987 12.3473 7.39453 12.6827L6.99987 13.0773C6.73453 13.3427 6.3292 13.4087 5.9932 13.2407L5.62654 13.0573C5.3372 12.9127 5.1512 12.6193 5.14454 12.296L5.13253 11.7373C5.12253 11.2627 4.7352 10.884 4.26054 10.884H3.70253C3.3272 10.884 2.99387 10.6433 2.8752 10.2873L2.74587 9.89867C2.6432 9.59133 2.7192 9.25333 2.9432 9.01933L3.32987 8.61533C3.65787 8.27267 3.65187 7.73067 3.31653 7.39533L2.92187 7.00067C2.65654 6.73533 2.59054 6.33 2.75854 5.994L2.94187 5.62733C3.08654 5.338 3.37987 5.152 3.7032 5.14533L4.26187 5.13333C4.73654 5.12333 5.1152 4.736 5.1152 4.26133V3.70333C5.1152 3.328 5.35587 2.99467 5.71187 2.876L6.10053 2.74667ZM13.391 8.07611C13.391 8.07608 13.3909 8.07613 13.391 8.07611V8.07611ZM7.9231 13.3918C7.92313 13.3918 7.92306 13.3917 7.9231 13.3918V13.3918Z" fill="white"/>
</g>
<defs>
<clipPath id="clip0_1152_5372">
<rect width="16" height="16" fill="white" transform="matrix(-1 0 0 1 16 0)"/>
</clipPath>
</defs>
</svg>
