<svg width="16" height="16" viewBox="0 0 16 16" fill="none" xmlns="http://www.w3.org/2000/svg">
<path fill-rule="evenodd" clip-rule="evenodd" d="M5.86392 12.1562C5.9636 11.8987 6.25317 11.7707 6.51069 11.8704C7.00817 12.0629 7.50894 12.1667 7.99955 12.1667C8.27569 12.1667 8.49955 12.3905 8.49955 12.6667C8.49955 12.9428 8.27569 13.1667 7.99955 13.1667C7.36749 13.1667 6.74426 13.0331 6.14973 12.803C5.89221 12.7033 5.76425 12.4137 5.86392 12.1562Z" fill="#555D72"/>
<path fill-rule="evenodd" clip-rule="evenodd" d="M14.1592 7.87217C14.4021 8.00351 14.4925 8.3069 14.3612 8.54981C13.7001 9.77231 12.7583 10.9165 11.6672 11.7597C10.5788 12.6008 9.30892 13.1667 8 13.1667C7.72386 13.1667 7.5 12.9428 7.5 12.6667C7.5 12.3905 7.72386 12.1667 8 12.1667C9.02108 12.1667 10.0812 11.7215 11.0557 10.9684C12.0274 10.2175 12.8812 9.18433 13.4815 8.07416C13.6129 7.83126 13.9162 7.74082 14.1592 7.87217Z" fill="#555D72"/>
<path fill-rule="evenodd" clip-rule="evenodd" d="M12.394 5.56721C12.604 5.38786 12.9196 5.41269 13.099 5.62266C13.5808 6.18677 14.0106 6.80367 14.3606 7.45091L14.3608 7.45132C14.5454 7.7935 14.5454 8.2073 14.3608 8.54947C14.2297 8.7925 13.9264 8.88322 13.6833 8.7521C13.4403 8.62099 13.3496 8.31768 13.4807 8.07465C13.5054 8.02888 13.5054 7.97207 13.4808 7.92627C13.1668 7.34561 12.778 6.78661 12.3386 6.27213C12.1592 6.06216 12.184 5.74655 12.394 5.56721Z" fill="#555D72"/>
<path fill-rule="evenodd" clip-rule="evenodd" d="M13.0209 2.97982C13.2161 3.17508 13.2161 3.49167 13.0209 3.68693L3.68754 13.0203C3.49228 13.2155 3.17569 13.2155 2.98043 13.0203C2.78517 12.825 2.78517 12.5084 2.98043 12.3132L12.3138 2.97982C12.509 2.78456 12.8256 2.78456 13.0209 2.97982Z" fill="#555D72"/>
<path fill-rule="evenodd" clip-rule="evenodd" d="M9.13184 6.86821C8.5071 6.24347 7.49368 6.24347 6.86894 6.86821C6.24421 7.49295 6.24421 8.50637 6.86894 9.13111C7.06421 9.32637 7.06421 9.64295 6.86894 9.83821C6.67368 10.0335 6.3571 10.0335 6.16184 9.83821C5.14658 8.82295 5.14658 7.17637 6.16184 6.1611C7.1771 5.14584 8.82368 5.14584 9.83894 6.1611C10.0342 6.35637 10.0342 6.67295 9.83894 6.86821C9.64368 7.06347 9.3271 7.06347 9.13184 6.86821Z" fill="#555D72"/>
<path fill-rule="evenodd" clip-rule="evenodd" d="M4.33265 4.24043C5.42106 3.39922 6.69091 2.83337 7.99983 2.83337C9.30914 2.83337 10.58 3.39975 11.6685 4.24193C11.8869 4.41092 11.9269 4.72495 11.7579 4.94335C11.589 5.16175 11.2749 5.20181 11.0565 5.03282C10.0823 4.279 9.0212 3.83337 7.99983 3.83337C6.97876 3.83337 5.91861 4.27853 4.94418 5.03165C3.97249 5.78266 3.11864 6.81599 2.51835 7.92648L2.07851 7.68871L2.51854 7.92612C2.49385 7.97188 2.49382 8.02866 2.51844 8.07445C3.11874 9.1842 3.97208 10.2167 4.94311 10.9679C5.16152 11.1369 5.20161 11.4509 5.03264 11.6693C4.86367 11.8877 4.54964 11.9278 4.33122 11.7588C3.241 10.9154 2.29974 9.77206 1.63871 8.54992L1.63846 8.54945C1.45385 8.20727 1.45385 7.79348 1.63846 7.4513L1.63865 7.45094C2.29969 6.22809 3.24151 5.08376 4.33265 4.24043Z" fill="#555D72"/>
</svg>
