<svg width="37" height="37" viewBox="0 0 37 37" fill="none" xmlns="http://www.w3.org/2000/svg">
<path fill-rule="evenodd" clip-rule="evenodd" d="M26.2375 17.7412C26.6767 17.3018 27.389 17.3016 27.8284 17.7408L30.0347 19.946L32.2424 17.7406C32.6819 17.3015 33.3942 17.3018 33.8333 17.7414C34.2724 18.1809 34.272 18.8932 33.8325 19.3323L30.8296 22.3322C30.3903 22.7711 29.6785 22.771 29.2393 22.332L26.2379 19.3321C25.7985 18.8929 25.7983 18.1806 26.2375 17.7412Z" fill="#3239F4"/>
<path fill-rule="evenodd" clip-rule="evenodd" d="M18.0292 7.65878C15.0232 7.65878 12.3044 8.87559 10.3332 10.8454C9.89376 11.2846 9.18147 11.2844 8.7423 10.8449C8.30313 10.4054 8.30338 9.69312 8.74285 9.25395C11.1185 6.87996 14.4025 5.40887 18.0292 5.40887C25.2813 5.40887 31.1612 11.2849 31.1612 18.5364C31.1612 19.5401 31.039 20.5081 30.8308 21.4336C30.6944 22.0398 30.0925 22.4206 29.4863 22.2843C28.8802 22.1479 28.4993 21.546 28.6357 20.9398C28.8115 20.1585 28.9113 19.3565 28.9113 18.5364C28.9113 12.5284 24.0396 7.65878 18.0292 7.65878Z" fill="#3239F4"/>
<path fill-rule="evenodd" clip-rule="evenodd" d="M5.22242 14.7346C5.66173 14.2957 6.37355 14.2958 6.81275 14.7348L9.81413 17.7347C10.2536 18.1739 10.2537 18.8862 9.81452 19.3256C9.37531 19.765 8.66303 19.7652 8.2236 19.326L6.01728 17.1208L3.80967 19.3262C3.37013 19.7653 2.65785 19.765 2.21874 19.3254C1.77964 18.8859 1.78 18.1736 2.21954 17.7345L5.22242 14.7346Z" fill="#3239F4"/>
<path fill-rule="evenodd" clip-rule="evenodd" d="M6.56595 14.7826C7.1721 14.9189 7.55294 15.5208 7.41658 16.127C7.2408 16.9084 7.14102 17.7103 7.14102 18.5305C7.14102 24.5385 12.0127 29.408 18.0231 29.408C21.0291 29.408 23.7479 28.1912 25.7191 26.2214C26.1585 25.7822 26.8708 25.7825 27.31 26.2219C27.7492 26.6614 27.7489 27.3737 27.3094 27.8129C24.9338 30.1869 21.6498 31.6579 18.0231 31.6579C10.771 31.6579 4.89111 25.782 4.89111 18.5305C4.89111 17.5267 5.01332 16.5587 5.22153 15.6332C5.35789 15.027 5.9598 14.6462 6.56595 14.7826Z" fill="#3239F4"/>
</svg>
