<svg width="32" height="32" viewBox="0 0 32 32" fill="none" xmlns="http://www.w3.org/2000/svg">
<path fill-rule="evenodd" clip-rule="evenodd" d="M16 5C9.92428 5 5 9.92428 5 16C5 22.0757 9.92428 27 16 27C22.0757 27 27 22.0757 27 16C27 9.92428 22.0757 5 16 5ZM3 16C3 8.81972 8.81972 3 16 3C23.1803 3 29 8.81972 29 16C29 23.1803 23.1803 29 16 29C8.81972 29 3 23.1803 3 16Z" fill="#F7CA3A"/>
<path fill-rule="evenodd" clip-rule="evenodd" d="M13.6665 16C13.6665 15.4477 14.1142 15 14.6665 15H15.9998C16.5521 15 16.9998 15.4477 16.9998 16V22.6667C16.9998 23.219 16.5521 23.6667 15.9998 23.6667C15.4476 23.6667 14.9998 23.219 14.9998 22.6667V17H14.6665C14.1142 17 13.6665 16.5523 13.6665 16Z" fill="#F7CA3A"/>
<path fill-rule="evenodd" clip-rule="evenodd" d="M14.3335 11.0035C14.3301 10.2618 14.9318 9.6665 15.6655 9.6665C16.4005 9.6665 17.0002 10.261 17.0002 10.9998C17.0002 11.7361 16.4031 12.3332 15.6668 12.3332C14.9318 12.3332 14.3355 11.7381 14.3335 11.0035Z" fill="#F7CA3A"/>
</svg>
