<svg width="32" height="32" viewBox="0 0 32 32" fill="none" xmlns="http://www.w3.org/2000/svg">
<path fill-rule="evenodd" clip-rule="evenodd" d="M16 5C9.92487 5 5 9.92487 5 16C5 22.0751 9.92487 27 16 27C22.0751 27 27 22.0751 27 16C27 9.92487 22.0751 5 16 5ZM3 16C3 8.8203 8.8203 3 16 3C23.1797 3 29 8.8203 29 16C29 23.1797 23.1797 29 16 29C8.8203 29 3 23.1797 3 16Z" fill="#5DB771"/>
<path fill-rule="evenodd" clip-rule="evenodd" d="M21.4744 12.0707C21.8649 12.4612 21.8649 13.0944 21.4744 13.4849L15.1178 19.8415C15.078 19.9058 15.0301 19.9665 14.9744 20.0223C14.5838 20.4128 13.9507 20.4128 13.5602 20.0223L10.6708 17.1329C10.2803 16.7424 10.2803 16.1092 10.6708 15.7187C11.0613 15.3282 11.6945 15.3282 12.085 15.7187L14.2486 17.8823L20.0602 12.0707C20.4507 11.6802 21.0838 11.6802 21.4744 12.0707Z" fill="#5DB771"/>
</svg>
