<svg width="32" height="32" viewBox="0 0 32 32" fill="none" xmlns="http://www.w3.org/2000/svg">
<g clip-path="url(#clip0_1432_17385)">
<path fill-rule="evenodd" clip-rule="evenodd" d="M20.4781 20.851C20.8686 20.4605 20.8686 19.8273 20.4781 19.4368L12.9356 11.8943C12.5451 11.5038 11.9119 11.5038 11.5214 11.8943C11.1309 12.2848 11.1309 12.918 11.5214 13.3085L19.0639 20.851C19.4544 21.2415 20.0876 21.2415 20.4781 20.851Z" fill="#F17878"/>
<path fill-rule="evenodd" clip-rule="evenodd" d="M11.5219 20.851C11.9124 21.2415 12.5456 21.2415 12.9361 20.851L20.4786 13.3085C20.8691 12.918 20.8691 12.2848 20.4786 11.8943C20.0881 11.5038 19.4549 11.5038 19.0644 11.8943L11.5219 19.4368C11.1314 19.8273 11.1314 20.4605 11.5219 20.851Z" fill="#F17878"/>
<path fill-rule="evenodd" clip-rule="evenodd" d="M23.7782 24.1507C19.482 28.4469 12.518 28.4469 8.22183 24.1507C3.92565 19.8545 3.92565 12.8906 8.22183 8.59437C12.518 4.29819 19.482 4.29819 23.7782 8.59437C28.0744 12.8906 28.0744 19.8545 23.7782 24.1507ZM6.80761 25.5649C11.8848 30.6422 20.1152 30.6422 25.1924 25.5649C30.2696 20.4877 30.2696 12.2574 25.1924 7.18016C20.1152 2.10293 11.8848 2.10293 6.80761 7.18016C1.73038 12.2574 1.73038 20.4877 6.80761 25.5649Z" fill="#F17878"/>
</g>
<defs>
<clipPath id="clip0_1432_17385">
<rect width="32" height="32" fill="white" transform="matrix(1 0 0 -1 0 32)"/>
</clipPath>
</defs>
</svg>
