<svg width="13" height="12" viewBox="0 0 13 12" fill="none" xmlns="http://www.w3.org/2000/svg">
<path fill-rule="evenodd" clip-rule="evenodd" d="M3.99951 5.37402C3.65412 5.37402 3.37451 5.65363 3.37451 5.99902V9.49902C3.37451 9.84442 3.65412 10.124 3.99951 10.124H8.99951C9.34491 10.124 9.62451 9.84442 9.62451 9.49902V5.99902C9.62451 5.65363 9.34491 5.37402 8.99951 5.37402H3.99951ZM2.62451 5.99902C2.62451 5.23942 3.23991 4.62402 3.99951 4.62402H8.99951C9.75912 4.62402 10.3745 5.23942 10.3745 5.99902V9.49902C10.3745 10.2586 9.75912 10.874 8.99951 10.874H3.99951C3.23991 10.874 2.62451 10.2586 2.62451 9.49902V5.99902Z" fill="white"/>
<path fill-rule="evenodd" clip-rule="evenodd" d="M4.20292 2.91917C4.46241 1.89184 5.38647 1.12451 6.4995 1.12451C7.8111 1.12451 8.8745 2.1879 8.8745 3.49951C8.8745 3.70662 8.7066 3.87451 8.4995 3.87451C8.29239 3.87451 8.1245 3.70662 8.1245 3.49951C8.1245 2.60212 7.39689 1.87451 6.4995 1.87451C5.74252 1.87451 5.10858 2.39618 4.93008 3.10285C4.87935 3.30365 4.67546 3.42531 4.47466 3.37459C4.27386 3.32387 4.15219 3.11997 4.20292 2.91917Z" fill="white"/>
<path fill-rule="evenodd" clip-rule="evenodd" d="M8.49951 3.12402C8.70662 3.12402 8.87451 3.29192 8.87451 3.49902V4.99902C8.87451 5.20613 8.70662 5.37402 8.49951 5.37402C8.2924 5.37402 8.12451 5.20613 8.12451 4.99902V3.49902C8.12451 3.29192 8.2924 3.12402 8.49951 3.12402Z" fill="white"/>
</svg>
