<svg width="24" height="24" viewBox="0 0 24 24" fill="none" xmlns="http://www.w3.org/2000/svg">
<path fill-rule="evenodd" clip-rule="evenodd" d="M9.4 16.3501C7.40303 16.3501 5.75 17.9254 5.75 20.0001C5.75 20.4143 5.41421 20.7501 5 20.7501C4.58579 20.7501 4.25 20.4143 4.25 20.0001C4.25 17.0748 6.59697 14.8501 9.4 14.8501H14.5C17.4253 14.8501 19.65 17.1971 19.65 20.0001C19.65 20.4143 19.3142 20.7501 18.9 20.7501C18.4858 20.7501 18.15 20.4143 18.15 20.0001C18.15 18.0031 16.5747 16.3501 14.5 16.3501H9.4Z" fill="white"/>
<path fill-rule="evenodd" clip-rule="evenodd" d="M14.4778 5.73837C13.0665 4.41796 10.9226 4.42055 9.51413 5.74615C8.15789 7.02262 8.18881 9.24369 9.54626 10.686C10.8227 12.0422 13.0438 12.0113 14.4861 10.6538C15.8596 9.36108 15.886 7.155 14.4778 5.73837ZM15.5112 4.6511C13.5224 2.78205 10.4739 2.78297 8.48609 4.65385C6.44233 6.57738 6.61141 9.75631 8.45396 11.714C10.3775 13.7578 13.5564 13.5887 15.5141 11.7462C17.537 9.84224 17.5142 6.6563 15.5332 4.67241C15.5296 4.66881 15.526 4.66524 15.5223 4.6617C15.5187 4.65812 15.5149 4.65459 15.5112 4.6511Z" fill="white"/>
</svg>
