<svg width="16" height="16" viewBox="0 0 16 16" fill="none" xmlns="http://www.w3.org/2000/svg">
<path fill-rule="evenodd" clip-rule="evenodd" d="M6.26683 10.9004C4.93552 10.9004 3.8335 11.9506 3.8335 13.3337C3.8335 13.6099 3.60964 13.8337 3.3335 13.8337C3.05735 13.8337 2.8335 13.6099 2.8335 13.3337C2.8335 11.3835 4.39814 9.90039 6.26683 9.90039H9.66683C11.617 9.90039 13.1002 11.465 13.1002 13.3337C13.1002 13.6099 12.8763 13.8337 12.6002 13.8337C12.324 13.8337 12.1002 13.6099 12.1002 13.3337C12.1002 12.0024 11.05 10.9004 9.66683 10.9004H6.26683Z" fill="white"/>
<path fill-rule="evenodd" clip-rule="evenodd" d="M9.65186 3.8259C8.71098 2.94563 7.28172 2.94736 6.34276 3.83109C5.43859 4.68207 5.45921 6.16278 6.36417 7.12431C7.21515 8.02847 8.69586 8.00786 9.65739 7.10289C10.5731 6.24105 10.5907 4.77032 9.65186 3.8259ZM10.3412 3.10146C9.01534 1.85503 6.98274 1.8555 5.65739 3.10289C4.29489 4.38525 4.40761 6.50453 5.63597 7.80967C6.91833 9.17218 9.03762 9.05946 10.3428 7.83109C11.6915 6.56171 11.6761 4.43749 10.3551 3.11492C10.3528 3.11264 10.3506 3.11037 10.3482 3.10812C10.3459 3.10587 10.3436 3.10365 10.3412 3.10146Z" fill="white"/>
</svg>
