<svg width="60" height="61" viewBox="0 0 60 61" fill="none" xmlns="http://www.w3.org/2000/svg">
<path fill-rule="evenodd" clip-rule="evenodd" d="M18.5406 19.3683C14.8967 22.1843 11.6948 26.0587 9.4437 30.2218L7.79438 29.33L9.44453 30.2203C9.35182 30.3921 9.35182 30.6054 9.44453 30.7772L7.79438 31.6675L9.4438 30.7759C11.6949 34.9402 14.8968 38.8152 18.5407 41.6315C22.1948 44.4557 26.1703 46.125 29.9994 46.125C33.8284 46.125 37.804 44.4557 41.4581 41.6317C45.1016 38.8161 48.3032 34.9423 50.5542 30.7797C50.6469 30.6079 50.6469 30.3946 50.5542 30.2228L52.2044 29.3325L50.5549 30.2241C48.3038 26.0598 45.1019 22.1848 41.4581 19.3685C37.804 16.5443 33.8284 14.875 29.9994 14.875C26.1703 14.875 22.1947 16.5444 18.5406 19.3683ZM16.2475 16.4011C20.329 13.2469 25.0909 11.125 29.9994 11.125C34.9078 11.125 39.6698 13.2469 43.7513 16.4015C47.8431 19.5639 51.3749 23.8552 53.8538 28.4409L53.8545 28.4422C54.5468 29.7254 54.5468 31.2771 53.8545 32.5603L53.8537 32.5618C51.3748 37.1462 47.843 41.4368 43.7512 44.5989C39.6697 47.7531 34.9078 49.875 29.9994 49.875C25.0909 49.875 20.329 47.7531 16.2475 44.5985C12.1557 41.4361 8.62383 37.1448 6.14495 32.5591L6.14422 32.5578C5.45193 31.2746 5.45193 29.7229 6.14422 28.4397L6.14505 28.4382C8.62395 23.8538 12.1558 19.5632 16.2475 16.4011Z" fill="white"/>
<path fill-rule="evenodd" clip-rule="evenodd" d="M33.9775 26.5225C31.7808 24.3258 28.2192 24.3258 26.0225 26.5225C23.8258 28.7192 23.8258 32.2808 26.0225 34.4775C28.2192 36.6742 31.7808 36.6742 33.9775 34.4775C36.1742 32.2808 36.1742 28.7192 33.9775 26.5225ZM36.6291 23.8709C32.968 20.2097 27.032 20.2097 23.3709 23.8709C19.7097 27.532 19.7097 33.468 23.3709 37.1291C27.032 40.7903 32.968 40.7903 36.6291 37.1291C40.2903 33.468 40.2903 27.532 36.6291 23.8709Z" fill="white"/>
</svg>
