<svg width="24" height="24" viewBox="0 0 24 24" fill="none" xmlns="http://www.w3.org/2000/svg">
<path fill-rule="evenodd" clip-rule="evenodd" d="M20.262 10.054C19.7649 9.55687 18.9589 9.55687 18.4617 10.054L17.9314 9.52368L18.4617 10.054C17.9646 10.5511 17.9646 11.3572 18.4617 11.8543L17.9314 12.3846L18.4617 11.8543C18.9589 12.3514 19.7649 12.3514 20.262 11.8543C20.7591 11.3572 20.7591 10.5511 20.262 10.054ZM21.3218 8.99249C20.2388 7.91042 18.4837 7.91071 17.4011 8.99335C16.3181 10.0763 16.3181 11.832 17.4011 12.915C18.484 13.9979 20.2397 13.9979 21.3227 12.915C22.4056 11.832 22.4056 10.0763 21.3227 8.99335C21.3224 8.99306 21.3221 8.99277 21.3218 8.99249Z" fill="white"/>
<path fill-rule="evenodd" clip-rule="evenodd" d="M13.6721 6.44269C12.7485 5.5191 11.251 5.5191 10.3275 6.44269C9.40387 7.36629 9.40387 8.86372 10.3275 9.78731C11.2511 10.7109 12.7485 10.7109 13.6721 9.78731C14.5957 8.86371 14.5957 7.36628 13.6721 6.44269ZM14.7324 5.38165C13.2229 3.87266 10.776 3.87278 9.2668 5.38203L9.26679 5.38203C7.75742 6.89141 7.75742 9.3386 9.2668 10.848L9.79138 10.3234L9.2668 10.848C10.7762 12.3573 13.2234 12.3573 14.7327 10.848L14.2024 10.3176L14.7327 10.848C16.2421 9.33859 16.2421 6.8914 14.7327 5.38203C14.7326 5.3819 14.7325 5.38178 14.7324 5.38165Z" fill="white"/>
<path fill-rule="evenodd" clip-rule="evenodd" d="M5.53838 10.054C5.04124 9.55687 4.23523 9.55687 3.73809 10.054L3.20776 9.52368L3.73809 10.054C3.24095 10.5511 3.24095 11.3572 3.73809 11.8543L3.20776 12.3846L3.73809 11.8543C4.23522 12.3514 5.04124 12.3514 5.53838 11.8543C6.03551 11.3572 6.03552 10.5511 5.53838 10.054ZM6.59818 8.99249C5.51519 7.91042 3.76007 7.91071 2.67743 8.99335C1.5945 10.0763 1.5945 11.832 2.67743 12.915C3.76035 13.9979 5.51611 13.9979 6.59904 12.915C7.68196 11.832 7.68196 10.0763 6.59904 8.99335C6.59875 8.99306 6.59847 8.99277 6.59818 8.99249Z" fill="white"/>
<path fill-rule="evenodd" clip-rule="evenodd" d="M18.9492 15.4038C18.9492 14.9896 19.285 14.6538 19.6992 14.6538H20.5002C22.2954 14.6538 23.7502 16.1086 23.7502 17.9038V18.9998C23.7502 19.414 23.4144 19.7498 23.0002 19.7498C22.586 19.7498 22.2502 19.414 22.2502 18.9998V17.9038C22.2502 16.937 21.467 16.1538 20.5002 16.1538H19.6992C19.285 16.1538 18.9492 15.818 18.9492 15.4038Z" fill="white"/>
<path fill-rule="evenodd" clip-rule="evenodd" d="M3.5 16.1538C2.53321 16.1538 1.75 16.937 1.75 17.9038V18.9998C1.75 19.414 1.41421 19.7498 1 19.7498C0.585786 19.7498 0.25 19.414 0.25 18.9998V17.9038C0.25 16.1086 1.70479 14.6538 3.5 14.6538H4.301C4.71521 14.6538 5.051 14.9896 5.051 15.4038C5.051 15.818 4.71521 16.1538 4.301 16.1538H3.5Z" fill="white"/>
<path fill-rule="evenodd" clip-rule="evenodd" d="M5.91016 17.3989C5.91016 15.0517 7.81294 13.1489 10.1602 13.1489H13.8392C16.1864 13.1489 18.0892 15.0517 18.0892 17.3989V18.9999C18.0892 19.4141 17.7534 19.7499 17.3392 19.7499C16.9249 19.7499 16.5892 19.4141 16.5892 18.9999V17.3989C16.5892 15.8801 15.3579 14.6489 13.8392 14.6489H10.1602C8.64137 14.6489 7.41016 15.8801 7.41016 17.3989V18.9999C7.41016 19.4141 7.07437 19.7499 6.66016 19.7499C6.24594 19.7499 5.91016 19.4141 5.91016 18.9999V17.3989Z" fill="white"/>
</svg>
