<svg width="16" height="16" viewBox="0 0 16 16" fill="none" xmlns="http://www.w3.org/2000/svg">
<path fill-rule="evenodd" clip-rule="evenodd" d="M13.5078 6.70267C13.1764 6.37125 12.6391 6.37125 12.3077 6.70267L11.9692 6.36423L12.3077 6.70267C11.9762 7.0341 11.9762 7.57144 12.3077 7.90286L11.9541 8.25642L12.3077 7.90286C12.6391 8.23429 13.1764 8.23429 13.5078 7.90286C13.8393 7.57144 13.8393 7.0341 13.5078 6.70267ZM14.215 5.99556C14.9369 6.71751 14.9369 7.88802 14.215 8.60997C13.493 9.33192 12.3225 9.33192 11.6005 8.60997C10.8786 7.88802 10.8786 6.71751 11.6005 5.99556C12.3225 5.27361 13.493 5.27361 14.215 5.99556Z" fill="#555D72"/>
<path fill-rule="evenodd" clip-rule="evenodd" d="M9.11488 4.29529C8.49915 3.67956 7.50086 3.67957 6.88513 4.29529C6.26941 4.91102 6.26941 5.90931 6.88513 6.52503C7.50086 7.14076 8.49915 7.14076 9.11488 6.52504C9.73061 5.90931 9.7306 4.91101 9.11488 4.29529M6.17803 3.58818C7.18428 2.58193 8.81573 2.58194 9.82198 3.58818L9.82199 3.58818C10.8282 4.59443 10.8282 6.22589 9.82199 7.23214L9.82199 7.23214C8.81574 8.23839 7.18428 8.23839 6.17803 7.23214L6.17803 7.23214C5.17178 6.22589 5.17178 4.59444 6.17803 3.58818L6.17803 3.58818Z" fill="#555D72"/>
<path fill-rule="evenodd" clip-rule="evenodd" d="M3.69193 6.70267C3.3605 6.37125 2.82316 6.37125 2.49173 6.70267L2.15329 6.36423L2.49173 6.70267C2.16031 7.0341 2.16031 7.57144 2.49173 7.90286L2.13818 8.25642L2.49173 7.90286C2.82316 8.23429 3.3605 8.23429 3.69193 7.90286C4.02335 7.57144 4.02335 7.0341 3.69193 6.70267ZM4.39903 5.99556C5.12098 6.71751 5.12098 7.88802 4.39903 8.60997C3.67708 9.33192 2.50657 9.33192 1.78463 8.60997C1.06268 7.88802 1.06268 6.71751 1.78463 5.99556C2.50658 5.27361 3.67708 5.27361 4.39903 5.99556Z" fill="#555D72"/>
<path fill-rule="evenodd" clip-rule="evenodd" d="M12.6323 10.2695C12.6323 9.99339 12.8562 9.76953 13.1323 9.76953H13.6663C14.8631 9.76953 15.833 10.7394 15.833 11.9362V12.6669C15.833 12.943 15.6091 13.1669 15.333 13.1669C15.0568 13.1669 14.833 12.943 14.833 12.6669V11.9362C14.833 11.2917 14.3108 10.7695 13.6663 10.7695H13.1323C12.8562 10.7695 12.6323 10.5457 12.6323 10.2695Z" fill="#555D72"/>
<path fill-rule="evenodd" clip-rule="evenodd" d="M2.33317 10.7695C1.68865 10.7695 1.1665 11.2917 1.1665 11.9362V12.6669C1.1665 12.943 0.942646 13.1669 0.666504 13.1669C0.390362 13.1669 0.166504 12.943 0.166504 12.6669V11.9362C0.166504 10.7394 1.13636 9.76953 2.33317 9.76953H2.86717C3.14331 9.76953 3.36717 9.99339 3.36717 10.2695C3.36717 10.5457 3.14331 10.7695 2.86717 10.7695H2.33317Z" fill="#555D72"/>
<path fill-rule="evenodd" clip-rule="evenodd" d="M3.93994 11.5994C3.93994 10.0346 5.20847 8.76611 6.77327 8.76611H9.22594C10.7908 8.76611 12.0593 10.0346 12.0593 11.5994V12.6668C12.0593 12.9429 11.8354 13.1668 11.5593 13.1668C11.2831 13.1668 11.0593 12.9429 11.0593 12.6668V11.5994C11.0593 10.5869 10.2385 9.76611 9.22594 9.76611H6.77327C5.76075 9.76611 4.93994 10.5869 4.93994 11.5994V12.6668C4.93994 12.9429 4.71608 13.1668 4.43994 13.1668C4.1638 13.1668 3.93994 12.9429 3.93994 12.6668V11.5994Z" fill="#555D72"/>
</svg>
