<svg width="16" height="16" viewBox="0 0 16 16" fill="none" xmlns="http://www.w3.org/2000/svg">
<path fill-rule="evenodd" clip-rule="evenodd" d="M4.66732 2.83325C4.5077 2.83325 4.35651 2.84617 4.2132 2.87115C4.20805 2.87205 4.20289 2.87287 4.19772 2.8736C2.80279 3.07199 1.83398 4.24069 1.83398 6.11103V9.88881C1.83398 10.9259 2.13829 11.7446 2.62557 12.2969C3.10786 12.8435 3.80125 13.1666 4.66732 13.1666H11.334C12.2001 13.1666 12.8934 12.8435 13.3757 12.2969C13.863 11.7446 14.1673 10.9259 14.1673 9.88881V6.11103C14.1673 4.22807 13.1816 3.05294 11.7687 2.86673C11.7595 2.86552 11.7503 2.86405 11.7412 2.86233C11.6263 2.84062 11.4956 2.83325 11.334 2.83325H4.66732ZM4.04921 1.88467C4.25012 1.85012 4.45633 1.83325 4.66732 1.83325H11.334C11.5148 1.83325 11.7124 1.84062 11.9127 1.87709C13.9318 2.14996 15.1673 3.85851 15.1673 6.11103V9.88881C15.1673 11.1184 14.805 12.1885 14.1256 12.9585C13.4412 13.7341 12.4679 14.1666 11.334 14.1666H4.66732C3.53339 14.1666 2.56011 13.7341 1.87573 12.9585C1.19635 12.1885 0.833984 11.1184 0.833984 9.88881V6.11103C0.833984 3.87402 2.04872 2.17309 4.04921 1.88467Z" fill="white"/>
<path fill-rule="evenodd" clip-rule="evenodd" d="M3.5 11.3333C3.5 11.0571 3.72386 10.8333 4 10.8333H7.33333C7.60948 10.8333 7.83333 11.0571 7.83333 11.3333C7.83333 11.6094 7.60948 11.8333 7.33333 11.8333H4C3.72386 11.8333 3.5 11.6094 3.5 11.3333Z" fill="white"/>
<path fill-rule="evenodd" clip-rule="evenodd" d="M10.168 7.66659C10.168 6.65406 10.9888 5.83325 12.0013 5.83325H14.0965C14.6883 5.83325 15.168 6.31295 15.168 6.90468V8.42849C15.168 9.02022 14.6883 9.49992 14.0965 9.49992H12.0013C10.9888 9.49992 10.168 8.67911 10.168 7.66659ZM11.168 7.66659C11.168 8.12682 11.5411 8.49992 12.0013 8.49992H14.0965C14.136 8.49992 14.168 8.46794 14.168 8.42849V6.90468C14.168 6.86523 14.136 6.83325 14.0965 6.83325H12.0013C11.5411 6.83325 11.168 7.20635 11.168 7.66659Z" fill="white"/>
</svg>
