<svg width="55" height="49" viewBox="0 0 55 49" fill="none" xmlns="http://www.w3.org/2000/svg">
<g id="xp-investimentos">
<path id="Subtract" fill-rule="evenodd" clip-rule="evenodd" d="M38.1471 46.0587H46.5891C49.3894 46.0587 51.6598 43.7954 51.6598 41.0018V7.55059C51.6598 4.75791 49.3894 2.49368 46.5891 2.49368H7.23816C4.43788 2.49368 2.16748 4.75791 2.16748 7.55059V41.0018C2.16748 43.7944 4.43788 46.0587 7.23816 46.0587H33.3323V44.2896V44.1515C33.3323 43.1908 33.7858 42.3386 34.4885 41.7883C35.0661 41.2941 35.8041 40.9304 36.6366 40.9028L28.4468 40.8304C28.3246 40.8304 28.2072 40.7818 28.1203 40.6961L24.2736 36.879L20.1968 40.8304H13.7837C13.674 40.8304 13.6186 40.6971 13.6969 40.62L21.1955 33.5445L13.6988 26.3824C13.6205 26.3052 13.6759 26.1719 13.7857 26.1719H20.1481C20.1806 26.1719 20.2121 26.1853 20.235 26.2081L24.2917 30.2329L28.2979 26.3052C28.3847 26.2205 28.5012 26.1729 28.6225 26.1729H33.2225H33.2778H35.32H38.2034H45.1435C48.1032 26.1729 50.6323 28.0048 51.6577 30.5928V36.5609C50.6323 39.1241 48.1032 40.9028 45.1435 40.9028V40.9037H38.1471V46.0587ZM44.5229 30.6937H38.1872V36.4733H44.5229C46.123 36.4733 47.4205 35.1794 47.4205 33.5835C47.4205 31.9877 46.123 30.6937 44.5229 30.6937ZM27.6706 33.5873L33.2225 39.0956V28.2067L27.6706 33.5873Z" fill="white"/>
</g>
</svg>
