<svg width="33" height="32" viewBox="0 0 33 32" fill="none" xmlns="http://www.w3.org/2000/svg">
<path fill-rule="evenodd" clip-rule="evenodd" d="M15.668 9.33331C15.668 8.78103 16.1157 8.33331 16.668 8.33331H22.0013C22.5536 8.33331 23.0013 8.78103 23.0013 9.33331C23.0013 9.8856 22.5536 10.3333 22.0013 10.3333H16.668C16.1157 10.3333 15.668 9.8856 15.668 9.33331Z" fill="white"/>
<path fill-rule="evenodd" clip-rule="evenodd" d="M15.668 14.6667C15.668 14.1144 16.1157 13.6667 16.668 13.6667H22.0013C22.5536 13.6667 23.0013 14.1144 23.0013 14.6667C23.0013 15.219 22.5536 15.6667 22.0013 15.6667H16.668C16.1157 15.6667 15.668 15.219 15.668 14.6667Z" fill="white"/>
<path fill-rule="evenodd" clip-rule="evenodd" d="M15.668 20C15.668 19.4477 16.1157 19 16.668 19H22.0013C22.5536 19 23.0013 19.4477 23.0013 20C23.0013 20.5523 22.5536 21 22.0013 21H16.668C16.1157 21 15.668 20.5523 15.668 20Z" fill="white"/>
<path fill-rule="evenodd" clip-rule="evenodd" d="M7.33333 5C7.14962 5 7 5.14962 7 5.33333V26.3825L9.10727 25.3283C9.38878 25.1875 9.72018 25.1874 10.0017 25.3282L13.1107 26.8821L16.2196 25.3282C16.501 25.1875 16.8323 25.1875 17.1137 25.3282L20.2224 26.8819L23.3298 25.327C23.6115 25.1861 23.9431 25.1861 24.2247 25.327L26.3333 26.3818V5.33333C26.3333 5.14962 26.1837 5 26 5H7.33333ZM5 5.33333C5 4.04505 6.04505 3 7.33333 3H26C27.2883 3 28.3333 4.04505 28.3333 5.33333V26.9213C28.3333 28.1635 27.0277 28.9636 25.9219 28.4123L25.9206 28.4117L23.7774 27.3395L20.6701 28.8943C20.3886 29.0352 20.0572 29.0352 19.7756 28.8945L16.6667 27.3406L13.5577 28.8945C13.2763 29.0352 12.945 29.0352 12.6636 28.8945L9.55487 27.3407L7.4114 28.413L7.40905 28.4142C6.30361 28.9636 5 28.1619 5 26.9213V5.33333Z" fill="white"/>
<path fill-rule="evenodd" clip-rule="evenodd" d="M11.6308 8.36453C11.5372 8.33559 11.4378 8.32001 11.3348 8.32001C11.2317 8.32001 11.1323 8.33559 11.0388 8.36453C10.894 8.40885 10.7489 8.48867 10.6229 8.61473C10.4089 8.82868 10.3281 9.09743 10.3281 9.32667C10.3281 9.55592 10.4089 9.82467 10.6229 10.0386C10.8368 10.2526 11.1055 10.3333 11.3348 10.3333C11.564 10.3333 11.8328 10.2526 12.0467 10.0386C12.2607 9.82467 12.3415 9.55592 12.3415 9.32667C12.3415 9.09743 12.2607 8.82868 12.0467 8.61473C11.9207 8.48867 11.7756 8.40885 11.6308 8.36453Z" fill="white"/>
<path fill-rule="evenodd" clip-rule="evenodd" d="M11.6308 13.7112C11.5372 13.6823 11.4378 13.6667 11.3348 13.6667C11.2317 13.6667 11.1323 13.6823 11.0388 13.7112C10.894 13.7555 10.7489 13.8354 10.6229 13.9614C10.4089 14.1754 10.3281 14.4441 10.3281 14.6734C10.3281 14.9026 10.4089 15.1713 10.6229 15.3853C10.8368 15.5992 11.1055 15.68 11.3348 15.68C11.564 15.68 11.8328 15.5992 12.0467 15.3853C12.2607 15.1713 12.3415 14.9026 12.3415 14.6734C12.3415 14.4441 12.2607 14.1754 12.0467 13.9614C11.9207 13.8354 11.7756 13.7555 11.6308 13.7112Z" fill="white"/>
<path fill-rule="evenodd" clip-rule="evenodd" d="M11.6308 19.0312C11.5372 19.0023 11.4378 18.9867 11.3348 18.9867C11.2317 18.9867 11.1323 19.0023 11.0388 19.0312C10.894 19.0755 10.7489 19.1554 10.6229 19.2814C10.4089 19.4954 10.3281 19.7641 10.3281 19.9934C10.3281 20.2226 10.4089 20.4914 10.6229 20.7053C10.8368 20.9192 11.1055 21 11.3348 21C11.564 21 11.8328 20.9192 12.0467 20.7053C12.2607 20.4914 12.3415 20.2226 12.3415 19.9934C12.3415 19.7641 12.2607 19.4954 12.0467 19.2814C11.9207 19.1554 11.7756 19.0755 11.6308 19.0312Z" fill="white"/>
</svg>
