<svg width="33" height="32" viewBox="0 0 33 32" fill="none" xmlns="http://www.w3.org/2000/svg">
<g clip-path="url(#clip0_2558_954)">
<path fill-rule="evenodd" clip-rule="evenodd" d="M11.8102 22.5274C11.8103 22.5275 11.8102 22.5274 11.8102 22.5274L16.253 26.9716C16.2531 26.9716 16.2529 26.9715 16.253 26.9716C16.2969 27.015 16.3678 27.0153 16.4116 26.9718C16.4115 26.9719 16.4117 26.9717 16.4116 26.9718L20.8547 22.5274C20.8546 22.5275 20.8547 22.5274 20.8547 22.5274C20.8865 22.4953 20.8963 22.4469 20.8789 22.405C20.8616 22.3632 20.8209 22.3358 20.7756 22.3356H11.8893C11.844 22.3358 11.8033 22.3632 11.786 22.405C11.7686 22.4469 11.7783 22.4953 11.8102 22.5274ZM21.5626 23.2337L22.2706 23.9399C22.8732 23.3358 23.0532 22.4285 22.7269 21.6401C22.4006 20.8517 21.632 20.337 20.7787 20.3356L11.8879 20.3356L11.8862 20.3356C11.0329 20.337 10.2643 20.8517 9.938 21.6401C9.61167 22.4285 9.79168 23.3358 10.3943 23.9399L14.8406 28.3875C15.6651 29.21 16.9998 29.21 17.8243 28.3875L22.2698 23.9407L21.5626 23.2337Z" fill="white"/>
<path fill-rule="evenodd" clip-rule="evenodd" d="M4.66016 16C4.66016 15.4477 5.10787 15 5.66016 15L27.0024 15C27.5547 15 28.0024 15.4477 28.0024 16C28.0024 16.5523 27.5547 17 27.0024 17H5.66016C5.10787 17 4.66016 16.5523 4.66016 16Z" fill="white"/>
<path fill-rule="evenodd" clip-rule="evenodd" d="M11.8101 9.47273C11.7781 9.50489 11.7686 9.55309 11.786 9.59498C11.8033 9.63682 11.844 9.66418 11.8893 9.66443H20.7756C20.8209 9.66418 20.8616 9.63682 20.8789 9.59498C20.8963 9.5531 20.8868 9.50492 20.8549 9.47276C20.8549 9.47284 20.8548 9.47269 20.8549 9.47276L16.4119 5.02843C16.412 5.02852 16.4118 5.02834 16.4119 5.02843C16.368 4.98501 16.2971 4.98473 16.2533 5.02815C16.2532 5.02824 16.2534 5.02806 16.2533 5.02815L11.8101 9.47273C11.8101 9.47267 11.81 9.47279 11.8101 9.47273ZM9.938 10.3599C9.61167 9.57147 9.79168 8.66416 10.3943 8.06007L10.3951 8.0593L14.8406 3.61247C15.6651 2.78996 16.9998 2.78996 17.8243 3.61247L22.2706 8.06007C22.8732 8.66416 23.0532 9.57147 22.7269 10.3599C22.4006 11.1483 21.632 11.6629 20.7787 11.6644L11.8862 11.6644C11.0329 11.6629 10.2643 11.1483 9.938 10.3599Z" fill="white"/>
</g>
<defs>
<clipPath id="clip0_2558_954">
<rect width="32" height="32" fill="white" transform="translate(0.332031)"/>
</clipPath>
</defs>
</svg>
