<svg width="32" height="32" viewBox="0 0 32 32" fill="none" xmlns="http://www.w3.org/2000/svg">
<path fill-rule="evenodd" clip-rule="evenodd" d="M19.864 3.7893C20.416 3.7893 20.864 4.2373 20.864 4.7893C20.864 5.3413 20.416 5.7893 19.864 5.7893H10.1733C6.8293 5.7893 4.66797 8.08797 4.66797 11.648V22.424C4.66797 26.0306 6.7773 28.2706 10.1733 28.2706H21.6453C24.9893 28.2706 27.1506 25.976 27.1506 22.424V13.0386C27.1506 12.4866 27.5986 12.0386 28.1506 12.0386C28.7026 12.0386 29.1506 12.4866 29.1506 13.0386V22.424C29.1506 27.1173 26.1346 30.2706 21.6453 30.2706H10.1733C5.68397 30.2706 2.66797 27.1173 2.66797 22.424V11.648C2.66797 6.94797 5.68397 3.7893 10.1733 3.7893H19.864ZM22.6845 12.8957C23.1218 13.2344 23.2018 13.8624 22.8632 14.2984L18.9565 19.3384C18.7938 19.549 18.5538 19.6864 18.2898 19.7184C18.0232 19.7544 17.7592 19.677 17.5485 19.513L13.7912 16.561L10.4165 20.9464C10.2192 21.2024 9.92317 21.337 9.62317 21.337C9.40984 21.337 9.19517 21.269 9.01384 21.1304C8.5765 20.793 8.49384 20.165 8.83117 19.7277L12.8218 14.541C12.9845 14.329 13.2258 14.1917 13.4898 14.1584C13.7592 14.1237 14.0232 14.1984 14.2325 14.365L17.9925 17.3184L21.2818 13.0744C21.6205 12.6357 22.2472 12.5544 22.6845 12.8957ZM26.6245 2.6665C28.5898 2.6665 30.1872 4.26384 30.1872 6.22917C30.1872 8.1945 28.5898 9.79317 26.6245 9.79317C24.6605 9.79317 23.0618 8.1945 23.0618 6.22917C23.0618 4.26384 24.6605 2.6665 26.6245 2.6665ZM26.6245 4.6665C25.7632 4.6665 25.0618 5.3665 25.0618 6.22917C25.0618 7.0905 25.7632 7.79317 26.6245 7.79317C27.4858 7.79317 28.1872 7.0905 28.1872 6.22917C28.1872 5.3665 27.4858 4.6665 26.6245 4.6665Z" fill="white"/>
</svg>
