<svg width="121" height="32" viewBox="0 0 121 32" fill="none" xmlns="http://www.w3.org/2000/svg">
<path d="M21.8362 32C15.569 32 10.4727 26.9305 10.4727 20.7027V12.0336C10.4727 10.5836 11.6549 9.4054 13.1163 9.4054H21.8362C28.1034 9.4054 33.1998 14.4749 33.1998 20.7027C33.1998 26.9305 28.1006 32 21.8362 32ZM15.7599 14.6618V20.7027C15.7599 24.0332 18.4861 26.7436 21.8362 26.7436C25.1863 26.7436 27.9126 24.0332 27.9126 20.7027C27.9126 17.3721 25.1863 14.6618 21.8362 14.6618H15.7599Z" fill="white"/>
<path d="M13.1163 14.6618C11.6577 14.6618 10.4727 13.4865 10.4727 12.0336V2.6282C10.4727 1.17816 11.6549 0 13.1163 0C14.5777 0 15.7599 1.17533 15.7599 2.6282V12.0336C15.7599 13.4837 14.5777 14.6618 13.1163 14.6618Z" fill="white"/>
<path d="M3.22476 15.2395C5.00574 15.2395 6.44951 13.8042 6.44951 12.0336C6.44951 10.263 5.00574 8.82764 3.22476 8.82764C1.44377 8.82764 0 10.263 0 12.0336C0 13.8042 1.44377 15.2395 3.22476 15.2395Z" fill="white"/>
<path d="M50.7915 13.4935C51.3213 13.216 51.9281 13.0772 52.609 13.0772C53.4009 13.0772 54.1188 13.2726 54.7597 13.6606C55.4007 14.0486 55.9106 14.6009 56.2838 15.3174C56.657 16.0339 56.845 16.8637 56.845 17.8068C56.845 18.7499 56.657 19.5854 56.2838 20.3132C55.9106 21.0411 55.4007 21.6047 54.7597 22.004C54.1188 22.4033 53.4009 22.6044 52.609 22.6044C51.9167 22.6044 51.3128 22.4685 50.7915 22.1966C50.273 21.9247 49.8571 21.5735 49.5437 21.1402V22.4543H47.1992V10.1346H49.5437V14.5811C49.8457 14.1364 50.2616 13.7767 50.7915 13.4992V13.4935ZM54.1074 16.3653C53.8795 15.9603 53.5775 15.6516 53.2043 15.442C52.8312 15.2324 52.4266 15.1248 51.9908 15.1248C51.5549 15.1248 51.1675 15.2324 50.7943 15.4505C50.4211 15.6658 50.1192 15.9801 49.8884 16.3908C49.6605 16.8014 49.5466 17.2857 49.5466 17.838C49.5466 18.3902 49.6605 18.8774 49.8884 19.2852C50.1163 19.6958 50.4183 20.0102 50.7943 20.2254C51.1675 20.4407 51.5663 20.5511 51.9908 20.5511C52.4152 20.5511 52.8312 20.4407 53.2043 20.217C53.5775 19.996 53.8795 19.6788 54.1074 19.2682C54.3353 18.8575 54.4521 18.3704 54.4521 17.804C54.4521 17.2376 54.3381 16.7703 54.1074 16.3653Z" fill="white"/>
<path d="M60.2629 22.0067C59.5478 21.6131 58.9866 21.0551 58.5793 20.3329C58.1719 19.6108 57.9668 18.7781 57.9668 17.835C57.9668 16.8919 58.1776 16.0593 58.5964 15.3371C59.0151 14.6149 59.5877 14.057 60.3141 13.6633C61.0406 13.2697 61.8496 13.0714 62.7413 13.0714C63.6329 13.0714 64.4448 13.2697 65.1684 13.6633C65.8948 14.057 66.4674 14.6149 66.8862 15.3371C67.3049 16.0593 67.5157 16.8919 67.5157 17.835C67.5157 18.7781 67.3021 19.6108 66.8719 20.3329C66.4418 21.0551 65.8606 21.6131 65.1313 22.0067C64.3992 22.4004 63.5816 22.5986 62.6786 22.5986C61.7755 22.5986 60.9807 22.4004 60.2686 22.0067H60.2629ZM63.8722 20.2593C64.2454 20.0554 64.5445 19.7467 64.7696 19.336C64.9918 18.9254 65.1057 18.4269 65.1057 17.8379C65.1057 16.9599 64.875 16.2859 64.4106 15.8157C63.9463 15.3428 63.3794 15.1077 62.7099 15.1077C62.0405 15.1077 61.4793 15.3428 61.0263 15.8157C60.5734 16.2887 60.3483 16.9627 60.3483 17.8379C60.3483 18.713 60.5677 19.3898 61.0092 19.86C61.4508 20.3329 62.0063 20.568 62.6757 20.568C63.1002 20.568 63.499 20.466 63.8722 20.2593Z" fill="white"/>
<path d="M71.5808 10.129V22.4487H69.2363V10.129H71.5808Z" fill="white"/>
<path d="M82.4486 18.5375H75.6658C75.7228 19.203 75.9564 19.7241 76.3694 20.1036C76.7825 20.4803 77.2896 20.6701 77.8935 20.6701C78.7652 20.6701 79.3834 20.2991 79.7537 19.5542H82.2834C82.0156 20.4435 81.5028 21.1713 80.7422 21.7434C79.9816 22.3155 79.0501 22.6016 77.9448 22.6016C77.0503 22.6016 76.2498 22.4033 75.5405 22.0096C74.8311 21.616 74.2785 21.0581 73.8825 20.3359C73.4865 19.6137 73.2871 18.781 73.2871 17.8379C73.2871 16.8949 73.4837 16.0452 73.8739 15.323C74.2642 14.6008 74.8112 14.0458 75.5148 13.6578C76.2185 13.2698 77.0275 13.0743 77.9419 13.0743C78.9988 13.0743 79.9246 13.3462 80.7166 13.8872C81.0442 14.1109 81.3348 14.3856 81.5741 14.6971C82.2008 15.51 82.5141 16.4899 82.5141 17.634C82.5141 17.9682 82.4913 18.2656 82.4458 18.5318L82.4486 18.5375ZM80.087 16.9713C80.0756 16.3709 79.8591 15.8923 79.4347 15.5326C79.0102 15.1729 78.4917 14.9917 77.8764 14.9917C77.2953 14.9917 76.8081 15.1673 76.4122 15.5156C76.0162 15.864 75.774 16.3511 75.6829 16.9713H80.087Z" fill="white"/>
<path d="M86.9552 15.1419V19.6024C86.9552 19.914 87.0292 20.1377 87.1802 20.2765C87.3312 20.4153 87.5847 20.4832 87.9408 20.4832H89.0291V22.4487H87.5563C85.5792 22.4487 84.5936 21.4943 84.5936 19.5854V15.1419H83.4883V13.2274H84.5936V10.9475H86.9552V13.2274H89.0319V15.1419H86.9552Z" fill="white"/>
<path d="M90.6832 15.323C91.0564 14.6008 91.5663 14.0458 92.2073 13.6578C92.8482 13.2698 93.5661 13.0743 94.358 13.0743C95.0503 13.0743 95.6571 13.2131 96.1755 13.4907C96.694 13.7682 97.1099 14.1166 97.4233 14.5385V13.2244H99.7849V22.4486H97.4233V21.1005C97.1213 21.5339 96.7054 21.8907 96.1755 22.1739C95.6457 22.4571 95.0332 22.5987 94.341 22.5987C93.5604 22.5987 92.8482 22.3976 92.2044 21.9983C91.5634 21.599 91.0535 21.0354 90.6803 20.3075C90.3072 19.5797 90.1191 18.7442 90.1191 17.8011C90.1191 16.858 90.3072 16.0424 90.6803 15.3202L90.6832 15.323ZM97.09 16.3794C96.8649 15.9744 96.5658 15.6629 96.1869 15.4476C95.8081 15.2324 95.4007 15.122 94.9648 15.122C94.529 15.122 94.1273 15.2267 93.7598 15.4392C93.3923 15.6487 93.0932 15.9574 92.8625 16.3624C92.6346 16.7674 92.5178 17.2489 92.5178 17.8011C92.5178 18.3534 92.6317 18.8405 92.8625 19.2568C93.0904 19.6732 93.3923 19.9932 93.7655 20.2141C94.1387 20.435 94.5375 20.5483 94.962 20.5483C95.3864 20.5483 95.8052 20.4407 96.1841 20.2226C96.563 20.0073 96.8649 19.6958 97.0871 19.2908C97.3093 18.8858 97.4204 18.4015 97.4204 17.8351C97.4204 17.2687 97.3093 16.7844 97.0871 16.3794H97.09Z" fill="white"/>
<path d="M102.068 22.1739C101.795 21.9134 101.658 21.5877 101.658 21.1997C101.658 20.8117 101.795 20.486 102.068 20.2254C102.342 19.9649 102.689 19.8346 103.114 19.8346C103.538 19.8346 103.866 19.9649 104.134 20.2254C104.402 20.486 104.535 20.8117 104.535 21.1997C104.535 21.5877 104.402 21.9134 104.134 22.1739C103.866 22.4345 103.524 22.5647 103.114 22.5647C102.704 22.5647 102.342 22.4345 102.068 22.1739Z" fill="white"/>
<path d="M106.386 15.323C106.759 14.6008 107.269 14.0458 107.91 13.6578C108.551 13.2698 109.269 13.0743 110.061 13.0743C110.753 13.0743 111.36 13.2131 111.879 13.4907C112.397 13.7682 112.813 14.1166 113.126 14.5385V13.2244H115.488V22.4486H113.126V21.1005C112.824 21.5339 112.409 21.8907 111.879 22.1739C111.349 22.4571 110.736 22.5987 110.044 22.5987C109.264 22.5987 108.551 22.3976 107.908 21.9983C107.267 21.599 106.757 21.0354 106.383 20.3075C106.01 19.5797 105.822 18.7442 105.822 17.8011C105.822 16.858 106.01 16.0424 106.383 15.3202L106.386 15.323ZM112.793 16.3794C112.568 15.9744 112.269 15.6629 111.89 15.4476C111.511 15.2324 111.104 15.122 110.668 15.122C110.232 15.122 109.83 15.2267 109.463 15.4392C109.095 15.6487 108.796 15.9574 108.566 16.3624C108.338 16.7674 108.221 17.2489 108.221 17.8011C108.221 18.3534 108.335 18.8405 108.566 19.2568C108.793 19.6732 109.095 19.9932 109.469 20.2141C109.842 20.435 110.241 20.5483 110.665 20.5483C111.09 20.5483 111.508 20.4407 111.887 20.2226C112.266 20.0073 112.568 19.6958 112.79 19.2908C113.012 18.8858 113.124 18.4015 113.124 17.8351C113.124 17.2687 113.012 16.7844 112.79 16.3794H112.793Z" fill="white"/>
<path d="M117.941 11.7348C117.668 11.4743 117.531 11.1486 117.531 10.7606C117.531 10.3726 117.668 10.0469 117.941 9.78634C118.215 9.52579 118.56 9.39551 118.973 9.39551C119.386 9.39551 119.728 9.52579 120.004 9.78634C120.277 10.0469 120.414 10.3726 120.414 10.7606C120.414 11.1486 120.277 11.4743 120.004 11.7348C119.73 11.9954 119.386 12.1257 118.973 12.1257C118.56 12.1257 118.215 11.9954 117.941 11.7348ZM120.126 13.2245V22.4487H117.782V13.2245H120.126Z" fill="white"/>
</svg>
