<svg width="121" height="32" viewBox="0 0 121 32" fill="none" xmlns="http://www.w3.org/2000/svg">
<path d="M21.8352 31.9998C15.5681 31.9998 10.4717 26.9304 10.4717 20.7026V12.0335C10.4717 10.5834 11.6539 9.40527 13.1153 9.40527H21.8352C28.1024 9.40527 33.1988 14.4747 33.1988 20.7026C33.1988 26.9304 28.0996 31.9998 21.8352 31.9998ZM15.7589 14.6617V20.7026C15.7589 24.0331 18.4851 26.7434 21.8352 26.7434C25.1854 26.7434 27.9116 24.0331 27.9116 20.7026C27.9116 17.372 25.1854 14.6617 21.8352 14.6617H15.7589Z" fill="#202637"/>
<path d="M13.1153 14.6618C11.6568 14.6618 10.4717 13.4865 10.4717 12.0336V2.6282C10.4717 1.17816 11.6539 0 13.1153 0C14.5767 0 15.7589 1.17533 15.7589 2.6282V12.0336C15.7589 13.4837 14.5767 14.6618 13.1153 14.6618Z" fill="#202637"/>
<path d="M3.22476 15.2395C5.00574 15.2395 6.44951 13.8042 6.44951 12.0336C6.44951 10.263 5.00574 8.82764 3.22476 8.82764C1.44377 8.82764 0 10.263 0 12.0336C0 13.8042 1.44377 15.2395 3.22476 15.2395Z" fill="#202637"/>
<path d="M50.7915 13.4936C51.3213 13.2161 51.9281 13.0773 52.609 13.0773C53.4009 13.0773 54.1188 13.2727 54.7597 13.6607C55.4007 14.0487 55.9106 14.601 56.2838 15.3175C56.657 16.034 56.845 16.8639 56.845 17.8069C56.845 18.75 56.657 19.5855 56.2838 20.3134C55.9106 21.0412 55.4007 21.6048 54.7597 22.0041C54.1188 22.4035 53.4009 22.6045 52.609 22.6045C51.9167 22.6045 51.3128 22.4686 50.7915 22.1967C50.273 21.9248 49.8571 21.5737 49.5437 21.1403V22.4544H47.1992V10.1348H49.5437V14.5812C49.8457 14.1365 50.2616 13.7769 50.7915 13.4993V13.4936ZM54.1074 16.3654C53.8795 15.9604 53.5775 15.6517 53.2043 15.4421C52.8312 15.2326 52.4266 15.1249 51.9908 15.1249C51.5549 15.1249 51.1675 15.2326 50.7943 15.4506C50.4211 15.6659 50.1192 15.9802 49.8884 16.3909C49.6605 16.8015 49.5466 17.2858 49.5466 17.8381C49.5466 18.3904 49.6605 18.8775 49.8884 19.2853C50.1163 19.696 50.4183 20.0103 50.7943 20.2256C51.1675 20.4408 51.5663 20.5513 51.9908 20.5513C52.4152 20.5513 52.8312 20.4408 53.2043 20.2171C53.5775 19.9962 53.8795 19.679 54.1074 19.2683C54.3353 18.8577 54.4521 18.3705 54.4521 17.8041C54.4521 17.2377 54.3381 16.7704 54.1074 16.3654Z" fill="#202637"/>
<path d="M60.2634 22.0066C59.5483 21.6129 58.9871 21.055 58.5798 20.3328C58.1724 19.6106 57.9673 18.778 57.9673 17.8349C57.9673 16.8918 58.1781 16.0592 58.5969 15.337C59.0156 14.6148 59.5882 14.0569 60.3146 13.6632C61.0411 13.2695 61.8501 13.0713 62.7417 13.0713C63.6334 13.0713 64.4453 13.2695 65.1689 13.6632C65.8953 14.0569 66.4679 14.6148 66.8866 15.337C67.3054 16.0592 67.5162 16.8918 67.5162 17.8349C67.5162 18.778 67.3026 19.6106 66.8724 20.3328C66.4422 21.055 65.8611 21.6129 65.1318 22.0066C64.3997 22.4003 63.5821 22.5985 62.6791 22.5985C61.776 22.5985 60.9812 22.4003 60.2691 22.0066H60.2634ZM63.8727 20.2592C64.2459 20.0553 64.545 19.7466 64.77 19.3359C64.9922 18.9253 65.1062 18.4268 65.1062 17.8377C65.1062 16.9598 64.8754 16.2857 64.4111 15.8156C63.9468 15.3426 63.3799 15.1076 62.7104 15.1076C62.041 15.1076 61.4798 15.3426 61.0268 15.8156C60.5739 16.2886 60.3488 16.9626 60.3488 17.8377C60.3488 18.7129 60.5682 19.3897 61.0097 19.8599C61.4513 20.3328 62.0068 20.5679 62.6762 20.5679C63.1007 20.5679 63.4995 20.4659 63.8727 20.2592Z" fill="#202637"/>
<path d="M71.5813 10.1289V22.4486H69.2368V10.1289H71.5813Z" fill="#202637"/>
<path d="M82.4491 18.5374H75.6663C75.7233 19.2029 75.9569 19.724 76.3699 20.1035C76.783 20.4802 77.2901 20.6699 77.894 20.6699C78.7657 20.6699 79.3839 20.2989 79.7542 19.5541H82.2839C82.0161 20.4434 81.5033 21.1712 80.7427 21.7433C79.9821 22.3154 79.0506 22.6014 77.9453 22.6014C77.0508 22.6014 76.2503 22.4032 75.5409 22.0095C74.8316 21.6159 74.279 21.0579 73.883 20.3357C73.487 19.6136 73.2876 18.7809 73.2876 17.8378C73.2876 16.8947 73.4842 16.0451 73.8744 15.3229C74.2647 14.6007 74.8117 14.0456 75.5153 13.6576C76.2189 13.2696 77.028 13.0742 77.9424 13.0742C78.9993 13.0742 79.9251 13.3461 80.7171 13.887C81.0447 14.1108 81.3352 14.3855 81.5745 14.697C82.2013 15.5098 82.5146 16.4897 82.5146 17.6339C82.5146 17.9681 82.4918 18.2655 82.4462 18.5317L82.4491 18.5374ZM80.0875 16.9712C80.0761 16.3708 79.8596 15.8922 79.4351 15.5325C79.0107 15.1728 78.4922 14.9916 77.8769 14.9916C77.2958 14.9916 76.8086 15.1671 76.4127 15.5155C76.0167 15.8638 75.7745 16.351 75.6834 16.9712H80.0875Z" fill="#202637"/>
<path d="M86.9562 15.1416V19.6022C86.9562 19.9137 87.0302 20.1375 87.1812 20.2762C87.3322 20.415 87.5857 20.483 87.9418 20.483H89.03V22.4485H87.5572C85.5802 22.4485 84.5946 21.494 84.5946 19.5852V15.1416H83.4893V13.2271H84.5946V10.9473H86.9562V13.2271H89.0329V15.1416H86.9562Z" fill="#202637"/>
<path d="M90.6822 15.3229C91.0554 14.6007 91.5653 14.0456 92.2063 13.6576C92.8472 13.2696 93.5651 13.0742 94.3571 13.0742C95.0493 13.0742 95.6561 13.213 96.1746 13.4905C96.693 13.7681 97.1089 14.1164 97.4223 14.5384V13.2243H99.7839V22.4485H97.4223V21.1004C97.1203 21.5337 96.7044 21.8906 96.1746 22.1738C95.6447 22.457 95.0322 22.5986 94.34 22.5986C93.5594 22.5986 92.8472 22.3975 92.2034 21.9982C91.5625 21.5989 91.0525 21.0353 90.6794 20.3074C90.3062 19.5796 90.1182 18.7441 90.1182 17.801C90.1182 16.8579 90.3062 16.0423 90.6794 15.3201L90.6822 15.3229ZM97.089 16.3793C96.8639 15.9743 96.5648 15.6628 96.186 15.4475C95.8071 15.2323 95.3997 15.1218 94.9638 15.1218C94.528 15.1218 94.1263 15.2266 93.7588 15.439C93.3913 15.6486 93.0922 15.9573 92.8615 16.3623C92.6336 16.7673 92.5168 17.2487 92.5168 17.801C92.5168 18.3533 92.6307 18.8404 92.8615 19.2567C93.0894 19.673 93.3914 19.9931 93.7645 20.214C94.1377 20.4349 94.5365 20.5482 94.961 20.5482C95.3855 20.5482 95.8042 20.4405 96.1831 20.2225C96.562 20.0072 96.864 19.6957 97.0862 19.2907C97.3084 18.8857 97.4194 18.4014 97.4194 17.835C97.4194 17.2686 97.3084 16.7843 97.0862 16.3793H97.089Z" fill="#202637"/>
<path d="M102.068 22.1738C101.795 21.9132 101.658 21.5875 101.658 21.1995C101.658 20.8116 101.795 20.4859 102.068 20.2253C102.342 19.9648 102.689 19.8345 103.114 19.8345C103.538 19.8345 103.866 19.9648 104.134 20.2253C104.402 20.4859 104.535 20.8116 104.535 21.1995C104.535 21.5875 104.402 21.9132 104.134 22.1738C103.866 22.4343 103.524 22.5646 103.114 22.5646C102.704 22.5646 102.342 22.4343 102.068 22.1738Z" fill="#202637"/>
<path d="M106.387 15.3229C106.76 14.6007 107.27 14.0456 107.911 13.6576C108.552 13.2696 109.27 13.0742 110.062 13.0742C110.754 13.0742 111.361 13.213 111.88 13.4905C112.398 13.7681 112.814 14.1164 113.127 14.5384V13.2243H115.489V22.4485H113.127V21.1004C112.825 21.5337 112.409 21.8906 111.88 22.1738C111.35 22.457 110.737 22.5986 110.045 22.5986C109.265 22.5986 108.552 22.3975 107.909 21.9982C107.268 21.5989 106.758 21.0353 106.384 20.3074C106.011 19.5796 105.823 18.7441 105.823 17.801C105.823 16.8579 106.011 16.0423 106.384 15.3201L106.387 15.3229ZM112.794 16.3793C112.569 15.9743 112.27 15.6628 111.891 15.4475C111.512 15.2323 111.105 15.1218 110.669 15.1218C110.233 15.1218 109.831 15.2266 109.464 15.439C109.096 15.6486 108.797 15.9573 108.567 16.3623C108.339 16.7673 108.222 17.2487 108.222 17.801C108.222 18.3533 108.336 18.8404 108.567 19.2567C108.794 19.673 109.096 19.9931 109.47 20.214C109.843 20.4349 110.242 20.5482 110.666 20.5482C111.091 20.5482 111.509 20.4405 111.888 20.2225C112.267 20.0072 112.569 19.6957 112.791 19.2907C113.013 18.8857 113.125 18.4014 113.125 17.835C113.125 17.2686 113.013 16.7843 112.791 16.3793H112.794Z" fill="#202637"/>
<path d="M117.941 11.7348C117.668 11.4743 117.531 11.1486 117.531 10.7606C117.531 10.3726 117.668 10.0469 117.941 9.78634C118.215 9.52579 118.56 9.39551 118.973 9.39551C119.386 9.39551 119.728 9.52579 120.004 9.78634C120.277 10.0469 120.414 10.3726 120.414 10.7606C120.414 11.1486 120.277 11.4743 120.004 11.7348C119.73 11.9954 119.386 12.1257 118.973 12.1257C118.56 12.1257 118.215 11.9954 117.941 11.7348ZM120.126 13.2245V22.4487H117.782V13.2245H120.126Z" fill="#202637"/>
</svg>
